<?xml version="1.0" encoding="utf-8"?>
<!-- Generator: Adobe Illustrator 19.2.1, SVG Export Plug-In . SVG Version: 6.00 Build 0)  -->
<svg version="1.1" id="Layer_1" xmlns="http://www.w3.org/2000/svg" xmlns:xlink="http://www.w3.org/1999/xlink" x="0px" y="0px"
	 viewBox="0 0 184.5 170.3" style="enable-background:new 0 0 184.5 170.3;" xml:space="preserve">
<style type="text/css">
	.st0{fill:#FDD301;}
	.st1{fill:#1D144E;}
	.st2{fill:none;stroke:#000000;stroke-width:10;stroke-miterlimit:10;}
</style>
<g>
	<g>
		<g>
			<path class="st0" d="M30.2,105.4h-2.8c-0.8,0-1.4-0.6-1.4-1.4l0,0c0-0.8,0.6-1.4,1.4-1.4h2.8c0.8,0,1.4,0.6,1.4,1.4l0,0
				C31.6,104.8,31,105.4,30.2,105.4z M21.7,105.4h-2.8c-0.8,0-1.4-0.6-1.4-1.4l0,0c0-0.8,0.6-1.4,1.4-1.4h2.8c0.8,0,1.4,0.6,1.4,1.4
				l0,0C23.1,104.8,22.5,105.4,21.7,105.4z"/>
		</g>
	</g>
	<g>
		<g>
			<path class="st0" d="M31.5,148.1L31.5,148.1c-0.8,0-1.5-0.7-1.5-1.5v0c0-0.8,0.7-1.5,1.5-1.5h0c0.8,0,1.5,0.7,1.5,1.5l0,0
				C33,147.4,32.3,148.1,31.5,148.1z"/>
		</g>
		<g>
			<path class="st0" d="M50.8,148.2l-3.4,0c-0.8,0-1.5-0.7-1.5-1.5l0,0c0-0.8,0.7-1.5,1.5-1.5l3.4,0c0.8,0,1.5,0.7,1.5,1.5l0,0
				C52.3,147.6,51.6,148.2,50.8,148.2z M41.1,148.2l-3.4,0c-0.8,0-1.5-0.7-1.5-1.5v0c0-0.8,0.7-1.5,1.5-1.5l3.4,0
				c0.8,0,1.5,0.7,1.5,1.5l0,0C42.6,147.5,42,148.2,41.1,148.2z"/>
		</g>
		<g>
			<path class="st0" d="M166.4,149.1l-3.4,0c-0.8,0-1.5-0.7-1.5-1.5l0,0c0-0.8,0.7-1.5,1.5-1.5l3.4,0c0.8,0,1.5,0.7,1.5,1.5l0,0
				C168,148.4,167.3,149.1,166.4,149.1z M156.8,149l-3.4,0c-0.8,0-1.5-0.7-1.5-1.5v0c0-0.8,0.7-1.5,1.5-1.5l3.4,0
				c0.8,0,1.5,0.7,1.5,1.5l0,0C158.3,148.3,157.6,149,156.8,149z M147.2,148.9l-3.4,0c-0.8,0-1.5-0.7-1.5-1.5v0
				c0-0.8,0.7-1.5,1.5-1.5l3.4,0c0.8,0,1.5,0.7,1.5,1.5l0,0C148.7,148.2,148,148.9,147.2,148.9z M137.5,148.8l-3.4,0
				c-0.8,0-1.5-0.7-1.5-1.5v0c0-0.8,0.7-1.5,1.5-1.5l3.4,0c0.8,0,1.5,0.7,1.5,1.5v0C139,148.2,138.4,148.9,137.5,148.8z
				 M127.9,148.8l-3.4,0c-0.8,0-1.5-0.7-1.5-1.5v0c0-0.8,0.7-1.5,1.5-1.5l3.4,0c0.8,0,1.5,0.7,1.5,1.5v0
				C129.4,148.1,128.7,148.8,127.9,148.8z M118.2,148.7l-3.4,0c-0.8,0-1.5-0.7-1.5-1.5v0c0-0.8,0.7-1.5,1.5-1.5l3.4,0
				c0.8,0,1.5,0.7,1.5,1.5l0,0C119.8,148,119.1,148.7,118.2,148.7z M108.6,148.6l-3.4,0c-0.8,0-1.5-0.7-1.5-1.5v0
				c0-0.8,0.7-1.5,1.5-1.5l3.4,0c0.8,0,1.5,0.7,1.5,1.5l0,0C110.1,148,109.4,148.7,108.6,148.6z M99,148.6l-3.4,0
				c-0.8,0-1.5-0.7-1.5-1.5l0,0c0-0.8,0.7-1.5,1.5-1.5l3.4,0c0.8,0,1.5,0.7,1.5,1.5v0C100.5,147.9,99.8,148.6,99,148.6z M89.3,148.5
				l-3.4,0c-0.8,0-1.5-0.7-1.5-1.5l0,0c0-0.8,0.7-1.5,1.5-1.5l3.4,0c0.8,0,1.5,0.7,1.5,1.5l0,0C90.8,147.8,90.2,148.5,89.3,148.5z
				 M79.7,148.4l-3.4,0c-0.8,0-1.5-0.7-1.5-1.5v0c0-0.8,0.7-1.5,1.5-1.5l3.4,0c0.8,0,1.5,0.7,1.5,1.5l0,0
				C81.2,147.8,80.5,148.4,79.7,148.4z M70,148.4l-3.4,0c-0.8,0-1.5-0.7-1.5-1.5v0c0-0.8,0.7-1.5,1.5-1.5l3.4,0
				c0.8,0,1.5,0.7,1.5,1.5l0,0C71.6,147.7,70.9,148.4,70,148.4z M60.4,148.3l-3.4,0c-0.8,0-1.5-0.7-1.5-1.5v0c0-0.8,0.7-1.5,1.5-1.5
				l3.4,0c0.8,0,1.5,0.7,1.5,1.5v0C61.9,147.6,61.2,148.3,60.4,148.3z"/>
		</g>
		<g>
			<path class="st0" d="M172.7,149.1L172.7,149.1c-0.8,0-1.5-0.7-1.5-1.5l0,0c0-0.8,0.7-1.5,1.5-1.5l0,0c0.8,0,1.5,0.7,1.5,1.5l0,0
				C174.2,148.4,173.5,149.1,172.7,149.1z"/>
		</g>
	</g>
	<g>
		<g>
			<path class="st0" d="M43.4,126.6L43.4,126.6c-0.8,0-1.5-0.7-1.5-1.5l0,0c0-0.8,0.7-1.5,1.5-1.5h0c0.8,0,1.5,0.7,1.5,1.5l0,0
				C44.9,125.9,44.2,126.6,43.4,126.6z"/>
		</g>
		<g>
			<path class="st0" d="M63.6,126.6h-3.7c-0.8,0-1.5-0.7-1.5-1.5l0,0c0-0.8,0.7-1.5,1.5-1.5h3.7c0.8,0,1.5,0.7,1.5,1.5l0,0
				C65.1,125.9,64.5,126.6,63.6,126.6z M53.5,126.6h-3.7c-0.8,0-1.5-0.7-1.5-1.5l0,0c0-0.8,0.7-1.5,1.5-1.5h3.7
				c0.8,0,1.5,0.7,1.5,1.5l0,0C55,125.9,54.3,126.6,53.5,126.6z"/>
		</g>
		<g>
			<path class="st0" d="M154.7,126.6h-3.7c-0.8,0-1.5-0.7-1.5-1.5l0,0c0-0.8,0.7-1.5,1.5-1.5h3.7c0.8,0,1.5,0.7,1.5,1.5l0,0
				C156.2,125.9,155.5,126.6,154.7,126.6z M144.5,126.6h-3.7c-0.8,0-1.5-0.7-1.5-1.5l0,0c0-0.8,0.7-1.5,1.5-1.5h3.7
				c0.8,0,1.5,0.7,1.5,1.5l0,0C146.1,125.9,145.4,126.6,144.5,126.6z M134.4,126.6h-3.7c-0.8,0-1.5-0.7-1.5-1.5l0,0
				c0-0.8,0.7-1.5,1.5-1.5h3.7c0.8,0,1.5,0.7,1.5,1.5l0,0C135.9,125.9,135.3,126.6,134.4,126.6z M124.3,126.6h-3.7
				c-0.8,0-1.5-0.7-1.5-1.5l0,0c0-0.8,0.7-1.5,1.5-1.5h3.7c0.8,0,1.5,0.7,1.5,1.5l0,0C125.8,125.9,125.1,126.6,124.3,126.6z
				 M114.2,126.6h-3.7c-0.8,0-1.5-0.7-1.5-1.5l0,0c0-0.8,0.7-1.5,1.5-1.5h3.7c0.8,0,1.5,0.7,1.5,1.5l0,0
				C115.7,125.9,115,126.6,114.2,126.6z M104.1,126.6h-3.7c-0.8,0-1.5-0.7-1.5-1.5l0,0c0-0.8,0.7-1.5,1.5-1.5h3.7
				c0.8,0,1.5,0.7,1.5,1.5l0,0C105.6,125.9,104.9,126.6,104.1,126.6z M94,126.6h-3.7c-0.8,0-1.5-0.7-1.5-1.5l0,0
				c0-0.8,0.7-1.5,1.5-1.5H94c0.8,0,1.5,0.7,1.5,1.5l0,0C95.5,125.9,94.8,126.6,94,126.6z M83.8,126.6h-3.7c-0.8,0-1.5-0.7-1.5-1.5
				l0,0c0-0.8,0.7-1.5,1.5-1.5h3.7c0.8,0,1.5,0.7,1.5,1.5l0,0C85.4,125.9,84.7,126.6,83.8,126.6z M73.7,126.6H70
				c-0.8,0-1.5-0.7-1.5-1.5l0,0c0-0.8,0.7-1.5,1.5-1.5h3.7c0.8,0,1.5,0.7,1.5,1.5l0,0C75.3,125.9,74.6,126.6,73.7,126.6z"/>
		</g>
		<g>
			<path class="st0" d="M161.1,126.6L161.1,126.6c-0.8,0-1.5-0.7-1.5-1.5l0,0c0-0.8,0.7-1.5,1.5-1.5l0,0c0.8,0,1.5,0.7,1.5,1.5l0,0
				C162.6,125.9,161.9,126.6,161.1,126.6z"/>
		</g>
	</g>
	<g>
		<g>
			<path class="st0" d="M46.6,158.8l-3.9,0c-0.8,0-1.5-0.7-1.5-1.5l0,0c0-0.8,0.7-1.5,1.5-1.5l3.9,0c0.8,0,1.5,0.7,1.5,1.5l0,0
				C48.1,158.1,47.4,158.8,46.6,158.8z M36.1,158.8l-3.9,0c-0.8,0-1.5-0.7-1.5-1.5v0c0-0.8,0.7-1.5,1.5-1.5l3.9,0
				c0.8,0,1.5,0.7,1.5,1.5l0,0C37.7,158.1,37,158.8,36.1,158.8z"/>
		</g>
		<g>
			<path class="st0" d="M172,159.6l-3.9,0c-0.8,0-1.5-0.7-1.5-1.5l0,0c0-0.8,0.7-1.5,1.5-1.5l3.9,0c0.8,0,1.5,0.7,1.5,1.5l0,0
				C173.5,159,172.8,159.6,172,159.6z M161.5,159.6l-3.9,0c-0.8,0-1.5-0.7-1.5-1.5v0c0-0.8,0.7-1.5,1.5-1.5l3.9,0
				c0.8,0,1.5,0.7,1.5,1.5l0,0C163,158.9,162.4,159.6,161.5,159.6z M151.1,159.5l-3.9,0c-0.8,0-1.5-0.7-1.5-1.5v0
				c0-0.8,0.7-1.5,1.5-1.5l3.9,0c0.8,0,1.5,0.7,1.5,1.5l0,0C152.6,158.8,151.9,159.5,151.1,159.5z M140.6,159.4l-3.9,0
				c-0.8,0-1.5-0.7-1.5-1.5l0,0c0-0.8,0.7-1.5,1.5-1.5l3.9,0c0.8,0,1.5,0.7,1.5,1.5l0,0C142.2,158.8,141.5,159.4,140.6,159.4z
				 M130.2,159.4l-3.9,0c-0.8,0-1.5-0.7-1.5-1.5v0c0-0.8,0.7-1.5,1.5-1.5l3.9,0c0.8,0,1.5,0.7,1.5,1.5v0
				C131.7,158.7,131,159.4,130.2,159.4z M119.7,159.3l-3.9,0c-0.8,0-1.5-0.7-1.5-1.5v0c0-0.8,0.7-1.5,1.5-1.5l3.9,0
				c0.8,0,1.5,0.7,1.5,1.5v0C121.3,158.6,120.6,159.3,119.7,159.3z M109.3,159.2l-3.9,0c-0.8,0-1.5-0.7-1.5-1.5l0,0
				c0-0.8,0.7-1.5,1.5-1.5l3.9,0c0.8,0,1.5,0.7,1.5,1.5l0,0C110.8,158.6,110.1,159.2,109.3,159.2z M98.8,159.2l-3.9,0
				c-0.8,0-1.5-0.7-1.5-1.5v0c0-0.8,0.7-1.5,1.5-1.5l3.9,0c0.8,0,1.5,0.7,1.5,1.5v0C100.4,158.5,99.7,159.2,98.8,159.2z M88.4,159.1
				l-3.9,0c-0.8,0-1.5-0.7-1.5-1.5v0c0-0.8,0.7-1.5,1.5-1.5l3.9,0c0.8,0,1.5,0.7,1.5,1.5l0,0C89.9,158.4,89.2,159.1,88.4,159.1z
				 M77.9,159l-3.9,0c-0.8,0-1.5-0.7-1.5-1.5v0c0-0.8,0.7-1.5,1.5-1.5l3.9,0c0.8,0,1.5,0.7,1.5,1.5l0,0
				C79.5,158.4,78.8,159,77.9,159z M67.5,159l-3.9,0c-0.8,0-1.5-0.7-1.5-1.5v0c0-0.8,0.7-1.5,1.5-1.5l3.9,0c0.8,0,1.5,0.7,1.5,1.5
				l0,0C69,158.3,68.3,159,67.5,159z M57,158.9l-3.9,0c-0.8,0-1.5-0.7-1.5-1.5l0,0c0-0.8,0.7-1.5,1.5-1.5l3.9,0
				c0.8,0,1.5,0.7,1.5,1.5v0C58.6,158.2,57.9,158.9,57,158.9z"/>
		</g>
	</g>
	<g>
		<g>
			<path class="st0" d="M38.6,137.2h-0.3c-0.8,0-1.5-0.7-1.5-1.5l0,0c0-0.8,0.7-1.5,1.5-1.5h0.3c0.8,0,1.5,0.7,1.5,1.5l0,0
				C40.1,136.5,39.4,137.2,38.6,137.2z"/>
		</g>
		<g>
			<path class="st0" d="M60.5,137.2h-4.3c-0.8,0-1.5-0.7-1.5-1.5l0,0c0-0.8,0.7-1.5,1.5-1.5h4.3c0.8,0,1.5,0.7,1.5,1.5l0,0
				C62,136.5,61.4,137.2,60.5,137.2z M49.5,137.2h-4.3c-0.8,0-1.5-0.7-1.5-1.5l0,0c0-0.8,0.7-1.5,1.5-1.5h4.3c0.8,0,1.5,0.7,1.5,1.5
				l0,0C51.1,136.5,50.4,137.2,49.5,137.2z"/>
		</g>
		<g>
			<path class="st0" d="M159.2,137.2h-4.3c-0.8,0-1.5-0.7-1.5-1.5l0,0c0-0.8,0.7-1.5,1.5-1.5h4.3c0.8,0,1.5,0.7,1.5,1.5l0,0
				C160.7,136.5,160,137.2,159.2,137.2z M148.2,137.2H144c-0.8,0-1.5-0.7-1.5-1.5l0,0c0-0.8,0.7-1.5,1.5-1.5h4.3
				c0.8,0,1.5,0.7,1.5,1.5l0,0C149.8,136.5,149.1,137.2,148.2,137.2z M137.3,137.2H133c-0.8,0-1.5-0.7-1.5-1.5l0,0
				c0-0.8,0.7-1.5,1.5-1.5h4.3c0.8,0,1.5,0.7,1.5,1.5l0,0C138.8,136.5,138.1,137.2,137.3,137.2z M126.3,137.2H122
				c-0.8,0-1.5-0.7-1.5-1.5l0,0c0-0.8,0.7-1.5,1.5-1.5h4.3c0.8,0,1.5,0.7,1.5,1.5l0,0C127.8,136.5,127.1,137.2,126.3,137.2z
				 M115.3,137.2h-4.3c-0.8,0-1.5-0.7-1.5-1.5l0,0c0-0.8,0.7-1.5,1.5-1.5h4.3c0.8,0,1.5,0.7,1.5,1.5l0,0
				C116.9,136.5,116.2,137.2,115.3,137.2z M104.4,137.2h-4.3c-0.8,0-1.5-0.7-1.5-1.5l0,0c0-0.8,0.7-1.5,1.5-1.5h4.3
				c0.8,0,1.5,0.7,1.5,1.5l0,0C105.9,136.5,105.2,137.2,104.4,137.2z M93.4,137.2h-4.3c-0.8,0-1.5-0.7-1.5-1.5l0,0
				c0-0.8,0.7-1.5,1.5-1.5h4.3c0.8,0,1.5,0.7,1.5,1.5l0,0C94.9,136.5,94.2,137.2,93.4,137.2z M82.4,137.2h-4.3
				c-0.8,0-1.5-0.7-1.5-1.5l0,0c0-0.8,0.7-1.5,1.5-1.5h4.3c0.8,0,1.5,0.7,1.5,1.5l0,0C84,136.5,83.3,137.2,82.4,137.2z M71.5,137.2
				h-4.3c-0.8,0-1.5-0.7-1.5-1.5l0,0c0-0.8,0.7-1.5,1.5-1.5h4.3c0.8,0,1.5,0.7,1.5,1.5l0,0C73,136.5,72.3,137.2,71.5,137.2z"/>
		</g>
		<g>
			<path class="st0" d="M166.1,137.2h-0.3c-0.8,0-1.5-0.7-1.5-1.5l0,0c0-0.8,0.7-1.5,1.5-1.5h0.3c0.8,0,1.5,0.7,1.5,1.5l0,0
				C167.7,136.5,167,137.2,166.1,137.2z"/>
		</g>
	</g>
	<g>
		<g>
			<path class="st0" d="M31.4,97.3h-3.4c-0.8,0-1.4-0.6-1.4-1.4v0c0-0.8,0.6-1.4,1.4-1.4h3.4c0.8,0,1.4,0.6,1.4,1.4v0
				C32.8,96.6,32.2,97.3,31.4,97.3z M21.9,97.3h-3.4c-0.8,0-1.4-0.6-1.4-1.4v0c0-0.8,0.6-1.4,1.4-1.4h3.4c0.8,0,1.4,0.6,1.4,1.4v0
				C23.3,96.6,22.7,97.3,21.9,97.3z"/>
		</g>
		<g>
			<rect x="36" y="94.4" class="st0" width="2.9" height="2.9"/>
		</g>
	</g>
	<g>
		<g>
			<path class="st0" d="M27,113.1h-2c-0.7,0-1.2-0.6-1.2-1.2v-0.4c0-0.7,0.6-1.2,1.2-1.2h2c0.7,0,1.2,0.6,1.2,1.2v0.4
				C28.2,112.6,27.7,113.1,27,113.1z M20.3,113.1h-2c-0.7,0-1.2-0.6-1.2-1.2v-0.4c0-0.7,0.6-1.2,1.2-1.2h2c0.7,0,1.2,0.6,1.2,1.2
				v0.4C21.5,112.6,21,113.1,20.3,113.1z"/>
		</g>
		<g>
			<path class="st0" d="M31.9,113.1L31.9,113.1c-0.8,0-1.4-0.6-1.4-1.4l0,0c0-0.8,0.6-1.4,1.4-1.4h0c0.8,0,1.4,0.6,1.4,1.4l0,0
				C33.3,112.5,32.7,113.1,31.9,113.1z"/>
		</g>
	</g>
	<g>
		<g>
			<path class="st0" d="M26.8,120.8h-1.6c-0.8,0-1.4-0.6-1.4-1.4v0c0-0.8,0.6-1.4,1.4-1.4h1.6c0.8,0,1.4,0.6,1.4,1.4v0
				C28.2,120.2,27.6,120.8,26.8,120.8z M20.1,120.8h-1.6c-0.8,0-1.4-0.6-1.4-1.4v0c0-0.8,0.6-1.4,1.4-1.4h1.6c0.8,0,1.4,0.6,1.4,1.4
				v0C21.5,120.2,20.9,120.8,20.1,120.8z"/>
		</g>
		<g>
			<path class="st0" d="M26.3,128.5h-1.6c-0.8,0-1.4-0.6-1.4-1.4l0,0c0-0.8,0.6-1.4,1.4-1.4h1.6c0.8,0,1.4,0.6,1.4,1.4l0,0
				C27.7,127.9,27.1,128.5,26.3,128.5z M19.6,128.5H18c-0.8,0-1.4-0.6-1.4-1.4l0,0c0-0.8,0.6-1.4,1.4-1.4h1.6c0.8,0,1.4,0.6,1.4,1.4
				l0,0C21,127.9,20.4,128.5,19.6,128.5z"/>
		</g>
	</g>
	<path class="st1" d="M181.5,140.3L181.5,140.3l-1.7-3.1c-4.6-8.2-14.2-25.1-24.1-39.7c-3.5-5.1-6.9-9.8-10.1-14.2l-0.4-0.5
		c-8.6-11.7-11.6-16.4-11.7-19.4l0-0.1l0-0.1c0.4-12.3,0.1-42.6,0-46l0-3.2h6.7V8.7H62.3v5.4h8.8l0,3.2c-0.1,10.3-0.3,35.3,0,45.9
		l0,0l0,0.1c-0.1,3-3.1,7.6-11.6,19.3l-0.5,0.6c-3.2,4.4-6.7,9.1-10.1,14.2c-10.1,14.9-19.8,32-24.4,40.2l-1.4,2.5
		c-3.9,6.9-4,16.3-0.2,22.9c2.7,4.7,7,7.2,12.2,7.2h134.3c5.1,0,9.4-2.6,12.2-7.2C185.5,156.6,185.4,147.2,181.5,140.3z
		 M178.7,161.4L178.7,161.4c-2.1,3.6-5.3,5.5-9.3,5.5H35.2c-3.9,0-7.2-2-9.2-5.5c-3.2-5.4-3.1-13.7,0.2-19.5l1.6-2.9
		c4.6-8.1,14.1-25.1,24-39.6c3.2-4.8,6.5-9.3,9.5-13.3l0.6-0.8C70,74.1,74.7,67.5,74.6,63.1c-0.2-4.9-0.3-16.4-0.1-43.5l0-3.1h55.5
		l0,3.1c0.1,9.1,0.3,33.2,0,43.5c-0.2,4.4,4.5,11,12.7,22.2l0.6,0.8c2.9,4,6.2,8.5,9.5,13.3c9.9,14.5,19.4,31.4,24,39.6l0.5,0.9
		l1.2,2.1C181.8,147.6,181.8,156,178.7,161.4z"/>
	<g>
		<path class="st1" d="M10.9,65.2v78.7c0,1.5,0.7,5.2,3.1,8.5l2.7,3.6l0.3-4.5c0.1-1.1,0.2-2.3,0.4-3.4c0-0.1,0-0.2,0-0.3
			c-0.9,0-1.6-0.5-1.9-1.2c-0.2-0.2-0.4-0.4-0.5-0.6c-0.1-0.1-0.1-0.2-0.2-0.3c0,0,0,0,0,0c-0.1-0.1-0.1-0.2-0.1-0.3
			c0-0.1-0.1-0.2-0.1-0.3c0,0.1,0,0.2-0.1,0.3c-0.1-0.6-0.2-1.1-0.2-1.4v-1.5c0-0.1,0-0.2,0-0.4c0-0.2,0-0.5,0-0.7V68.6H38v31.7
			c-0.6,1-1.1,1.9-1.7,2.8c0,0,0,0,0,0c0,0,0,0,0,0c0.5-0.1,0.9,0,1.3,0.3c0.2,0.1,0.3,0.2,0.5,0.3c0.1,0,0.2,0.1,0.3,0.1
			c0.3,0.1,0.5,0.4,0.7,0.6c0,0,0.1,0.1,0.1,0.1c0.6-1,1.2-2,1.8-3l0.2-0.4v-36H10.9z"/>
	</g>
	<g>
		<path class="st1" d="M45.8,68.2H6.3c-3.5,0-6.4-2.9-6.4-6.4v-0.2c0-3.5,2.9-6.4,6.4-6.4h39.5c3.5,0,6.4,2.9,6.4,6.4v0.2
			C52.2,65.4,49.4,68.2,45.8,68.2z M6.3,58.6c-1.7,0-3,1.3-3,3v0.2c0,1.7,1.3,3,3,3h39.5c1.7,0,3-1.3,3-3v-0.2c0-1.7-1.3-3-3-3H6.3z
			"/>
	</g>
</g>
</svg>
