<?xml version="1.0" encoding="utf-8"?>
<!-- Generator: Adobe Illustrator 19.2.1, SVG Export Plug-In . SVG Version: 6.00 Build 0)  -->
<svg version="1.1" id="Layer_1" xmlns="http://www.w3.org/2000/svg" xmlns:xlink="http://www.w3.org/1999/xlink" x="0px" y="0px"
	 viewBox="0 0 512 512" style="enable-background:new 0 0 512 512;" xml:space="preserve">
<style type="text/css">
	.st0{fill:#FFE000;}
	.st1{fill:#1B004E;}
</style>
<g>
	<path class="st0" d="M60.6,384.2h150.9c2.5,0,4.6,2,4.6,4.6v6.5c0,2.5-2,4.6-4.6,4.6H60.6c-2.5,0-4.6-2-4.6-4.6v-6.5
		C56,386.2,58,384.2,60.6,384.2z"/>
	<path class="st0" d="M252.7,384h6.5c2.5,0,4.6,2,4.6,4.6v38.9c0,2.5-2,4.6-4.6,4.6h-6.5c-2.5,0-4.6-2-4.6-4.6v-38.9
		C248.2,386,250.2,384,252.7,384z"/>
	<path class="st0" d="M300.7,384h6.5c2.5,0,4.6,2,4.6,4.6v38.9c0,2.5-2,4.6-4.6,4.6h-6.5c-2.5,0-4.6-2-4.6-4.6v-38.9
		C296.2,386,298.2,384,300.7,384z"/>
	<path class="st0" d="M348.7,384h6.5c2.5,0,4.6,2,4.6,4.6v38.9c0,2.5-2,4.6-4.6,4.6h-6.5c-2.5,0-4.6-2-4.6-4.6v-38.9
		C344.2,386,346.2,384,348.7,384z"/>
	<path class="st0" d="M396.7,384h6.5c2.5,0,4.6,2,4.6,4.6v38.9c0,2.5-2,4.6-4.6,4.6h-6.5c-2.5,0-4.6-2-4.6-4.6v-38.9
		C392.2,386,394.2,384,396.7,384z"/>
	<path class="st0" d="M444.7,384h6.5c2.5,0,4.6,2,4.6,4.6v38.9c0,2.5-2,4.6-4.6,4.6h-6.5c-2.5,0-4.6-2-4.6-4.6v-38.9
		C440.2,386,442.2,384,444.7,384z"/>
	<path class="st1" d="M503.8,480.2V250.7c0-3.4-3.6-5.6-6.6-4.1l-99.9,49.9c-2.9,1.5-6.4-0.6-6.6-3.8L375.6,20.5
		c-0.1-2.4-2.1-4.3-4.6-4.3h-70.2c-2.4,0-4.4,1.9-4.6,4.3l-15.7,251.9c-0.1,1.6-1.1,3.1-2.5,3.8L237,296.7c-2.9,1.5-6.4-0.5-6.6-3.7
		L215.6,92.4c-0.2-2.4-2.2-4.2-4.6-4.2h-70c-2.4,0-4.3,1.8-4.5,4.2l-15.7,180.1c-0.1,1.6-1.1,3-2.5,3.7L10.7,329.9
		c-1.5,0.8-2.5,2.4-2.5,4.1v141.6c0,2.5-2,4.6-4.6,4.6h0c-2.1,0-3.9,1.4-4.4,3.5l-0.6,2.7C-2.2,489.2,0,492,3,492h502.6
		c2.1,0,3.9-1.4,4.4-3.5l0.6-2.7c0.7-2.9-1.5-5.6-4.4-5.6L503.8,480.2L503.8,480.2z M315.6,31.8h40.6c2.4,0,4.4,1.9,4.6,4.3l0.4,7.2
		c0.1,2.6-1.9,4.8-4.6,4.8h-41.5c-2.6,0-4.7-2.2-4.6-4.9l0.5-7.2C311.2,33.7,313.2,31.8,315.6,31.8z M313.6,63.8H358
		c2.4,0,4.4,1.9,4.6,4.3l0.4,7.2c0.1,2.6-1.9,4.8-4.6,4.8h-45.3c-2.6,0-4.7-2.2-4.6-4.9l0.5-7.2C309.2,65.7,311.2,63.8,313.6,63.8z
		 M311.6,95.8h48.2c2.4,0,4.4,1.9,4.6,4.3l11.3,204.2c0.1,1.8-0.9,3.5-2.5,4.3L350.4,320c-3,1.5-6.6-0.7-6.6-4.1v-65.2
		c0-3.4-3.6-5.6-6.6-4.1l-33.5,16.7c-3.1,1.6-6.8-0.9-6.6-4.4l9.9-158.9C307.2,97.7,309.2,95.8,311.6,95.8z M155.4,103.8h41.1
		c2.4,0,4.4,1.8,4.6,4.2l0.5,7.2c0.2,2.6-1.9,4.9-4.6,4.9h-42.3c-2.7,0-4.8-2.3-4.5-5l0.6-7.2C151,105.6,153,103.8,155.4,103.8z
		 M152.6,135.8h46.3c2.4,0,4.4,1.8,4.6,4.2l0.5,7.2c0.2,2.6-1.9,4.9-4.6,4.9H152c-2.7,0-4.8-2.3-4.5-5l0.6-7.2
		C148.2,137.6,150.2,135.8,152.6,135.8z M149.8,167.8h51.4c2.4,0,4.4,1.8,4.6,4.2l9.8,132.2c0.1,1.8-0.9,3.6-2.5,4.4L190.4,320
		c-3,1.5-6.6-0.7-6.6-4.1v-65.2c0-3.4-3.6-5.6-6.6-4.1l-32.9,16.5c-3.2,1.6-6.9-0.9-6.6-4.5l7.5-86.6
		C145.5,169.6,147.4,167.8,149.8,167.8z M56.2,480.2H28.4c-2.5,0-4.6-2-4.6-4.6v-7.2c0-2.5,2-4.6,4.6-4.6h23.2c2.5,0,4.6,2,4.6,4.6
		L56.2,480.2L56.2,480.2z M195.6,480.2H76.4c-2.5,0-4.6-2-4.6-4.6v-47.2c0-2.5,2-4.6,4.6-4.6h119.2c2.5,0,4.6,2,4.6,4.6v47.2
		C200.2,478.1,198.1,480.2,195.6,480.2z M483.6,480.2H220.4c-2.5,0-4.6-2-4.6-4.6v-7.2c0-2.5,2-4.6,4.6-4.6h263.2
		c2.5,0,4.6,2,4.6,4.6v7.2C488.2,478.1,486.1,480.2,483.6,480.2z M488.2,448.2H220.4c-2.5,0-4.6-2-4.6-4.6v-30.9
		c0-2.5-2-4.6-4.6-4.6H60.7c-2.5,0-4.6,2-4.6,4.6v30.9c0,2.5-2,4.6-4.6,4.6H28.4c-2.5,0-4.6-2-4.6-4.6v-99.9c0-1.7,1-3.3,2.5-4.1
		L161.6,272c3-1.5,6.6,0.7,6.6,4.1v65.2c0,3.4,3.6,5.6,6.6,4.1L321.6,272c3-1.5,6.6,0.7,6.6,4.1v65.2c0,3.4,3.6,5.6,6.6,4.1
		L481.6,272c3-1.5,6.6,0.7,6.6,4.1L488.2,448.2L488.2,448.2z"/>
</g>
</svg>
