<?xml version="1.0" encoding="utf-8"?>
<!-- Generator: Adobe Illustrator 19.2.1, SVG Export Plug-In . SVG Version: 6.00 Build 0)  -->
<svg version="1.1" id="Layer_1" xmlns="http://www.w3.org/2000/svg" xmlns:xlink="http://www.w3.org/1999/xlink" x="0px" y="0px"
	 viewBox="0 0 184.5 170.3" style="enable-background:new 0 0 184.5 170.3;" xml:space="preserve">
<style type="text/css">
	.st0{fill:#1D144E;}
	.st1{fill:#FDD301;}
</style>
<g>
	<path class="st0" d="M167.9,55.8V15.4c0-0.1,0-0.2,0-0.2v-0.1c0-0.9-0.2-1.7-0.6-2.4c-0.3-0.5-0.6-1-1-1.4
		c-0.9-0.9-2.1-1.4-3.4-1.4c-0.1-2.7-1.4-5.3-3.4-6.7c-3.6-3-8.8-2.6-12.1,1l-60,68.1v0.2L86.1,74l1.3,6.6l1.5,6.8h-1.7l-3.9-18.8
		l-0.1,0.2L77,39.5c-0.8-4-4-6.8-7.8-6.8H29.1c-4.3,0-7.9,3.8-7.9,8.5v46.2h-6.1v7.8h-0.5v34.4c-8.2,1.3-14.3,9-14.3,18.2
		c0,10.3,7.4,18.4,16.9,18.4h112.9c9.5,0,16.9-8.1,16.9-18.4c0-10.3-7.4-18.4-16.9-18.4H129l8.9-27.5c1.4-2.8,1.2-6.4-0.4-9.5l0,0
		c-1.9-3.2-4.6-4.9-8-4.9H98.6l59.1-67.1V56c-8.7,2.5-14.9,11.1-14.9,20.9c0,4.9,1.4,9.5,4,13c1.6,2.3,5,2.8,7.1,1.1
		c1-0.8,1.7-2.1,1.9-3.6s-0.1-3-0.9-4c-1.3-2-2-4.2-2-6.4c0-5.9,4.4-10.6,9.8-10.6c5.4,0,9.8,4.8,9.8,10.6c0,2.3-0.7,4.4-2,6.4
		c-1.6,2.3-1.1,6,1,7.7l0.3,0.2c0.7,0.4,1.6,0.9,2.7,0.9c1.7,0,3.1-0.8,4.1-2.2c2.6-3.5,4-8.1,4-13
		C182.7,66.9,176.5,58.3,167.9,55.8z M161.9,15.4c0-0.7,0.3-1,0.9-1c0.7,0,0.8,0.4,0.9,0.7c0,0.1,0,0.2,0,0.3v39.7
		c-0.6,0-1.2,0-1.8,0L161.9,15.4L161.9,15.4z M25.9,41.3c0-1.9,1.4-3.4,3.2-3.4h40.1c1.6,0,2.9,1.2,3.2,2.8l9.8,46.8H25.9V41.3z
		 M17.7,161.7c-0.2,0-0.3,0-0.5,0c0,0,0,0-0.1,0c-1.8,0-3.5-0.4-5.1-1.1c-1.5-0.7-2.8-1.6-3.9-2.8c-0.1-0.1-0.1-0.1-0.2-0.2
		c-0.1-0.1-0.2-0.2-0.3-0.4c-2.1-2.5-3.4-5.8-3.4-9.4c0-7.5,5.1-13.4,12-13.8l0,0c0.3,0,0.6,0,0.8,0c0.2,0,0.5,0,0.8,0
		c2.5,0.2,4.8,1.1,6.7,2.6C34.7,142.6,32.3,161.7,17.7,161.7z M28.4,161.6c0.6-0.6,1.2-1.2,1.7-1.9h1.7c-0.9-0.7-1.2-2-0.6-3.2
		c0.4-0.9,1-1.4,1.7-1.8c0.8-2.2,1.2-4.5,1.2-6.9c0-2.6-0.5-5.1-1.4-7.4h81.8c-0.9,2.3-1.4,4.8-1.4,7.4c0,2.6,0.5,5.1,1.4,7.4h-0.4
		c0.4,0.5,0.8,1,1.2,1.5c0.8,0.8,0.8,2.1,0.3,3.1h1.4c0.5,0.7,1.1,1.3,1.7,1.9H28.4V161.6z M130.4,133.8c9.6,0,13.9,8.3,12.9,15.7
		c-0.4,6.4-4.7,12.6-13,12.6c-9.6,0-13.9-8.2-12.9-15.6C117.7,140,122,133.8,130.4,133.8z M129.5,91.9c1.9,0,3.4,0.9,4.4,2.8
		c0.9,1.7,1,3.8,0.3,5.2l-0.1,0.2l-9.5,29.3h-2.2l0.3-0.8c-1.9,1.6-3.6,3.4-5.1,5.3h0.5c-0.6,0.6-1.1,1.2-1.6,1.9h-0.4
		c-0.1,0.2-0.2,0.3-0.4,0.5c0.1-0.1,0.1-0.3,0.1-0.5H30.2c-0.5-0.7-1.1-1.3-1.7-1.9h0.8c-1.5-0.7-2.8-1.9-4-3.1
		c-0.8-0.5-1.7-1-2.6-1.5c-0.3,0-0.7,0-1-0.1v0.1h-2.6V98.8h0.5c0-1.7,0-3.3,0-4.4h-0.2v-2.5H129.5z M157.1,13.9L93.3,86.4l-1.4-6.9
		L91,75.6v-0.1v-0.2l59.6-67.6c1.7-1.8,4.3-2,6.2-0.5l0.2,0.2c0.8,0.5,1.4,1.7,1.4,2.9C158.3,11.7,157.9,13,157.1,13.9z M175.4,87
		l-0.1,0.2c-0.1,0.1-0.2,0.3-0.6,0.3c-0.1,0-0.4-0.2-0.6-0.3c-0.2-0.3-0.3-1-0.1-1.3c1.8-2.8,2.8-5.8,2.8-9.1
		c0-7-4.4-13.1-10.7-14.7c-0.4-0.1-0.7-0.2-1.1-0.2c-1.5-0.3-3-0.3-4.5,0c-0.4,0.1-0.7,0.1-1.1,0.2c-6.3,1.7-10.7,7.7-10.7,14.7
		c0,3.2,0.9,6.3,2.8,9.1c0.2,0.3,0.1,1.1-0.2,1.3c-0.2,0.2-1,0.1-1.3-0.2l0,0c-2-2.7-3.1-6.3-3.1-10.2c0-8,5-14.8,12.2-16.7
		c0.3-0.1,0.5-0.1,0.8-0.2c0.3-0.1,0.5-0.1,0.8-0.1c1.4-0.2,2.5-0.2,3.9,0c0.3,0,0.5,0.1,0.8,0.1c0.3,0.1,0.5,0.1,0.8,0.2
		c7.2,1.8,12.2,8.7,12.2,16.7C178.6,80.6,177.4,84.2,175.4,87z"/>
	<path class="st1" d="M163.1,116.3h-13.4v11.2h7v5.5h-7.3v12h7v5.8H152c-1.2,0-2.2,1.1-2.2,2.4v6.4c0,1.3,1,2.4,2.2,2.4h10.8
		c0.5,0,0.9-0.2,1.3-0.4c0.4,0.3,0.8,0.4,1.3,0.4h10.8c1.2,0,2.2-1.1,2.2-2.4v-6.4c0-1.3-1-2.4-2.2-2.4h-3.8v-6.1h6.1v-11.2H172
		v-5.9h6.4v-11.2H165L163.1,116.3L163.1,116.3z M167.3,123.7v-3.5h7.3v3.5H167.3z M161,120.2v3.5h-7.3v-3.5H161z M174.4,158.2h-7.3
		v-3.5h7.3V158.2z M168.3,149.9h-8v-4.3h8V149.9z M160.7,132.5V129h7.3v3.5H160.7z M153.4,136.9h8v4.3h-8V136.9z M167.1,140.8v-3.5
		h7.3v3.5H167.1z M161,154.6v3.5h-7.3v-3.5H161z"/>
</g>
<g>
	<path class="st1" d="M57.8,47.3h-21c-1.2,0-2.3,1.1-2.3,2.5v14.7c0,1.4,1,2.5,2.3,2.5h25.1c1.5,0,2.6-1.6,2.2-3.2L60,49
		C59.7,48,58.8,47.3,57.8,47.3z M58.3,51.5l2.7,9.8c0.4,1.6-0.7,3.2-2.2,3.2H39.1c-1.2,0-2.3-1.1-2.3-2.5v-9.8c0-1.4,1-2.5,2.3-2.5
		h17C57.1,49.7,58,50.5,58.3,51.5z"/>
	<path class="st1" d="M61.9,67.7H36.8c-1.7,0-3-1.5-3-3.3V49.7c0-1.8,1.4-3.3,3-3.3h21c1.3,0,2.5,0.9,2.9,2.3l4.1,14.7
		c0.3,1,0.1,2.1-0.5,2.9C63.7,67.2,62.8,67.7,61.9,67.7z M36.8,48.1c-0.8,0-1.5,0.7-1.5,1.6v14.7c0,0.9,0.7,1.6,1.5,1.6h25.1
		c0.5,0,0.9-0.2,1.2-0.7c0.3-0.4,0.4-0.9,0.2-1.4l-4.1-14.7c-0.2-0.7-0.8-1.2-1.4-1.2H36.8z M58.8,65.3H39.1c-1.7,0-3-1.5-3-3.3
		v-9.8c0-1.8,1.4-3.3,3-3.3h17c1.3,0,2.5,0.9,2.9,2.3l2.7,9.8c0.3,1,0.1,2.1-0.5,2.9C60.7,64.8,59.8,65.3,58.8,65.3z M39.1,50.6
		c-0.8,0-1.5,0.7-1.5,1.6V62c0,0.9,0.7,1.6,1.5,1.6h19.7c0.5,0,0.9-0.2,1.2-0.7c0.3-0.4,0.4-0.9,0.2-1.4l-2.7-9.8
		c-0.2-0.7-0.8-1.2-1.4-1.2H39.1z"/>
</g>
<g>
	<g>
		<path class="st1" d="M75.3,104.5c0-2.7-1.7-4.5-4.2-4.5H20.2v1h50.8c1.9,0,3.2,1.4,3.2,3.5c0,2.1-1.3,3.5-3.2,3.5H20.2v1h50.8
			C73.5,109.1,75.3,107.2,75.3,104.5z"/>
		<path class="st1" d="M71.1,109.9H19.5v-2.7h51.6c1.5,0,2.5-1,2.5-2.7s-0.9-2.7-2.5-2.7H19.5v-2.7h51.6c2.9,0,4.9,2.3,4.9,5.4
			S73.9,109.9,71.1,109.9z"/>
	</g>
</g>
<g>
	<g>
		<path class="st1" d="M74.3,104.5c0-2.1-1.3-3.5-3.2-3.5H20.2v1h50.8c1.4,0,2.3,1,2.3,2.5s-0.9,2.5-2.3,2.5H20.2v1h50.8
			C73,108.1,74.3,106.7,74.3,104.5z"/>
		<path class="st1" d="M71.1,108.9H19.5v-2.7h51.6c1,0,1.5-0.6,1.5-1.7s-0.5-1.7-1.5-1.7H19.5v-2.7h51.6c2.4,0,4,1.8,4,4.3
			S73.4,108.9,71.1,108.9z"/>
	</g>
</g>
<g>
	<g>
		<path class="st1" d="M94.7,118.6c0-2.7-1.7-4.5-4.2-4.5H20.2v1h70.3c1.9,0,3.2,1.4,3.2,3.5c0,2.1-1.3,3.5-3.2,3.5H20.2v1h70.3
			C93,123.2,94.7,121.3,94.7,118.6z"/>
		<path class="st1" d="M90.5,124h-71v-2.7h71c1.5,0,2.5-1,2.5-2.7s-0.9-2.7-2.5-2.7h-71v-2.7h71c2.9,0,4.9,2.3,4.9,5.4
			C95.4,121.7,93.4,124,90.5,124z"/>
	</g>
</g>
<g>
	<g>
		<path class="st1" d="M93.7,118.6c0-2.1-1.3-3.5-3.2-3.5H20.2v1h70.3c1.4,0,2.3,1,2.3,2.5c0,1.5-0.9,2.5-2.3,2.5H20.2v1h70.3
			C92.4,122.1,93.7,120.7,93.7,118.6z"/>
		<path class="st1" d="M90.5,123h-71v-2.7h71c1,0,1.5-0.6,1.5-1.7c0-1.1-0.5-1.7-1.5-1.7h-71v-2.7h71c2.4,0,4,1.8,4,4.3
			S92.8,123,90.5,123z"/>
	</g>
</g>
<g>
	<g>
		<path class="st1" d="M41.9,145.7c-2.5,0-4.2,1.9-4.2,4.5c0,2.7,1.7,4.5,4.2,4.5c2.5,0,4.2-1.9,4.2-4.5
			C46.1,147.6,44.4,145.7,41.9,145.7z M41.9,153.8c-1.9,0-3.2-1.4-3.2-3.5s1.3-3.5,3.2-3.5c1.9,0,3.2,1.4,3.2,3.5
			S43.9,153.8,41.9,153.8z"/>
		<path class="st1" d="M41.9,155.6c-2.9,0-4.9-2.3-4.9-5.4s2.1-5.4,4.9-5.4c2.9,0,4.9,2.3,4.9,5.4S44.8,155.6,41.9,155.6z
			 M41.9,147.6c-1.5,0-2.5,1-2.5,2.7s0.9,2.7,2.5,2.7c1.5,0,2.5-1,2.5-2.7S43.5,147.6,41.9,147.6z"/>
	</g>
</g>
<g>
	<g>
		<path class="st1" d="M41.9,146.7c-1.9,0-3.2,1.4-3.2,3.5s1.3,3.5,3.2,3.5c1.9,0,3.2-1.4,3.2-3.5S43.9,146.7,41.9,146.7z
			 M41.9,152.7c-1.4,0-2.3-1-2.3-2.5s0.9-2.5,2.3-2.5c1.4,0,2.3,1,2.3,2.5S43.4,152.7,41.9,152.7z"/>
		<path class="st1" d="M41.9,154.6c-2.4,0-4-1.8-4-4.3s1.6-4.3,4-4.3c2.4,0,4,1.8,4,4.3S44.3,154.6,41.9,154.6z M41.9,148.6
			c-1,0-1.5,0.6-1.5,1.7s0.5,1.7,1.5,1.7c1,0,1.5-0.6,1.5-1.7S42.9,148.6,41.9,148.6z"/>
	</g>
</g>
<g>
	<g>
		<path class="st1" d="M58.1,145.7c-2.5,0-4.2,1.9-4.2,4.5c0,2.7,1.7,4.5,4.2,4.5s4.2-1.9,4.2-4.5C62.3,147.6,60.6,145.7,58.1,145.7
			z M58.1,153.8c-1.9,0-3.2-1.4-3.2-3.5s1.3-3.5,3.2-3.5c1.9,0,3.2,1.4,3.2,3.5S60.1,153.8,58.1,153.8z"/>
		<path class="st1" d="M58.1,155.6c-2.9,0-4.9-2.3-4.9-5.4s2.1-5.4,4.9-5.4s4.9,2.3,4.9,5.4S61,155.6,58.1,155.6z M58.1,147.6
			c-1.5,0-2.5,1-2.5,2.7s0.9,2.7,2.5,2.7c1.5,0,2.5-1,2.5-2.7S59.7,147.6,58.1,147.6z"/>
	</g>
</g>
<g>
	<g>
		<path class="st1" d="M58.1,146.7c-1.9,0-3.2,1.4-3.2,3.5s1.3,3.5,3.2,3.5c1.9,0,3.2-1.4,3.2-3.5S60.1,146.7,58.1,146.7z
			 M58.1,152.7c-1.4,0-2.3-1-2.3-2.5s0.9-2.5,2.3-2.5c1.4,0,2.3,1,2.3,2.5S59.5,152.7,58.1,152.7z"/>
		<path class="st1" d="M58.1,154.6c-2.4,0-4-1.8-4-4.3s1.6-4.3,4-4.3s4,1.8,4,4.3S60.5,154.6,58.1,154.6z M58.1,148.6
			c-1,0-1.5,0.6-1.5,1.7s0.5,1.7,1.5,1.7c1,0,1.5-0.6,1.5-1.7S59.1,148.6,58.1,148.6z"/>
	</g>
</g>
<g>
	<g>
		<path class="st1" d="M74.3,145.7c-2.5,0-4.2,1.9-4.2,4.5c0,2.7,1.7,4.5,4.2,4.5c2.5,0,4.2-1.9,4.2-4.5
			C78.5,147.6,76.8,145.7,74.3,145.7z M74.3,153.8c-1.9,0-3.2-1.4-3.2-3.5s1.3-3.5,3.2-3.5c1.9,0,3.2,1.4,3.2,3.5
			S76.3,153.8,74.3,153.8z"/>
		<path class="st1" d="M74.3,155.6c-2.9,0-4.9-2.3-4.9-5.4s2.1-5.4,4.9-5.4c2.9,0,4.9,2.3,4.9,5.4S77.2,155.6,74.3,155.6z
			 M74.3,147.6c-1.5,0-2.5,1-2.5,2.7s0.9,2.7,2.5,2.7c1.5,0,2.5-1,2.5-2.7S75.8,147.6,74.3,147.6z"/>
	</g>
</g>
<g>
	<g>
		<path class="st1" d="M74.3,146.7c-1.9,0-3.2,1.4-3.2,3.5s1.3,3.5,3.2,3.5c1.9,0,3.2-1.4,3.2-3.5S76.3,146.7,74.3,146.7z
			 M74.3,152.7c-1.4,0-2.3-1-2.3-2.5s0.9-2.5,2.3-2.5c1.4,0,2.3,1,2.3,2.5S75.7,152.7,74.3,152.7z"/>
		<path class="st1" d="M74.3,154.6c-2.4,0-4-1.8-4-4.3s1.6-4.3,4-4.3c2.4,0,4,1.8,4,4.3S76.7,154.6,74.3,154.6z M74.3,148.6
			c-1,0-1.5,0.6-1.5,1.7s0.5,1.7,1.5,1.7s1.5-0.6,1.5-1.7S75.3,148.6,74.3,148.6z"/>
	</g>
</g>
<g>
	<g>
		<path class="st1" d="M90.5,145.7c-2.5,0-4.2,1.9-4.2,4.5c0,2.7,1.7,4.5,4.2,4.5c2.5,0,4.2-1.9,4.2-4.5
			C94.7,147.6,93,145.7,90.5,145.7z M90.5,153.8c-1.9,0-3.2-1.4-3.2-3.5s1.3-3.5,3.2-3.5c1.9,0,3.2,1.4,3.2,3.5
			S92.4,153.8,90.5,153.8z"/>
		<path class="st1" d="M90.5,155.6c-2.9,0-4.9-2.3-4.9-5.4s2.1-5.4,4.9-5.4c2.9,0,4.9,2.3,4.9,5.4S93.4,155.6,90.5,155.6z
			 M90.5,147.6c-1.5,0-2.5,1-2.5,2.7s0.9,2.7,2.5,2.7c1.5,0,2.5-1,2.5-2.7S92,147.6,90.5,147.6z"/>
	</g>
</g>
<g>
	<g>
		<path class="st1" d="M90.5,146.7c-1.9,0-3.2,1.4-3.2,3.5s1.3,3.5,3.2,3.5c1.9,0,3.2-1.4,3.2-3.5S92.4,146.7,90.5,146.7z
			 M90.5,152.7c-1.4,0-2.3-1-2.3-2.5s0.9-2.5,2.3-2.5c1.4,0,2.3,1,2.3,2.5S91.9,152.7,90.5,152.7z"/>
		<path class="st1" d="M90.5,154.6c-2.4,0-4-1.8-4-4.3s1.6-4.3,4-4.3c2.4,0,4,1.8,4,4.3S92.8,154.6,90.5,154.6z M90.5,148.6
			c-1,0-1.5,0.6-1.5,1.7s0.5,1.7,1.5,1.7c1,0,1.5-0.6,1.5-1.7S91.5,148.6,90.5,148.6z"/>
	</g>
</g>
<g>
	<g>
		<path class="st1" d="M106.7,145.7c-2.5,0-4.2,1.9-4.2,4.5c0,2.7,1.7,4.5,4.2,4.5c2.5,0,4.2-1.9,4.2-4.5
			C110.9,147.6,109.1,145.7,106.7,145.7z M106.7,153.8c-1.9,0-3.2-1.4-3.2-3.5s1.3-3.5,3.2-3.5s3.2,1.4,3.2,3.5
			S108.6,153.8,106.7,153.8z"/>
		<path class="st1" d="M106.7,155.6c-2.9,0-4.9-2.3-4.9-5.4s2.1-5.4,4.9-5.4c2.9,0,4.9,2.3,4.9,5.4S109.5,155.6,106.7,155.6z
			 M106.7,147.6c-1.5,0-2.5,1-2.5,2.7s0.9,2.7,2.5,2.7c1.5,0,2.5-1,2.5-2.7S108.2,147.6,106.7,147.6z"/>
	</g>
</g>
<g>
	<g>
		<path class="st1" d="M106.7,146.7c-1.9,0-3.2,1.4-3.2,3.5s1.3,3.5,3.2,3.5s3.2-1.4,3.2-3.5S108.6,146.7,106.7,146.7z M106.7,152.7
			c-1.4,0-2.3-1-2.3-2.5s0.9-2.5,2.3-2.5c1.4,0,2.3,1,2.3,2.5S108.1,152.7,106.7,152.7z"/>
		<path class="st1" d="M106.7,154.6c-2.4,0-4-1.8-4-4.3s1.6-4.3,4-4.3c2.4,0,4,1.8,4,4.3S109,154.6,106.7,154.6z M106.7,148.6
			c-1,0-1.5,0.6-1.5,1.7s0.5,1.7,1.5,1.7c1,0,1.5-0.6,1.5-1.7S107.7,148.6,106.7,148.6z"/>
	</g>
</g>
</svg>
