<?xml version="1.0" encoding="utf-8"?>
<!-- Generator: Adobe Illustrator 19.2.1, SVG Export Plug-In . SVG Version: 6.00 Build 0)  -->
<svg version="1.1" id="Layer_1" xmlns="http://www.w3.org/2000/svg" xmlns:xlink="http://www.w3.org/1999/xlink" x="0px" y="0px"
	 viewBox="0 0 184.5 170.3" style="enable-background:new 0 0 184.5 170.3;" xml:space="preserve">
<style type="text/css">
	.st0{fill:none;stroke:#000000;stroke-width:5;stroke-miterlimit:10;}
	.st1{fill:#FDD301;}
	.st2{fill:#1D144E;}
	.st3{clip-path:url(#SVGID_2_);fill:#1D144E;}
</style>
<g>
	<rect x="130" y="15.1" class="st2" width="7.2" height="7.2"/>
	<rect x="112.1" y="15.1" class="st2" width="7.2" height="7.2"/>
	<rect x="94.1" y="15.1" class="st2" width="7.2" height="7.2"/>
	<path class="st1" d="M46.8,69.6l24.7,11.1V76l-19.7-8.2l19.7-8.2v-4.7L46.8,65.3V69.6z M46.8,69.6"/>
	<path class="st1" d="M85.2,47.7L74.4,86.4H78l10.8-38.7H85.2z M85.2,47.7"/>
	<path class="st1" d="M116.4,64.9L91.6,54.5v4.7l19.8,8.3l-19.8,8.2v4.7l24.7-10.8V64.9z M116.4,64.9"/>
	<g>
		<defs>
			<rect id="SVGID_1_" x="4.5" width="167.9" height="169.3"/>
		</defs>
		<clipPath id="SVGID_2_">
			<use xlink:href="#SVGID_1_"  style="overflow:visible;"/>
		</clipPath>
		<path class="st3" d="M130,106.2c-10.8,0-19.7,9-19.7,19.7c0,10.8,9,19.7,19.7,19.7s19.7-9,19.7-19.7
			C149.7,115.1,140.8,106.2,130,106.2L130,106.2z M130,138.4c-6.8,0-12.5-5.7-12.5-12.5c0-6.8,5.7-12.5,12.5-12.5
			c6.8,0,12.5,5.7,12.5,12.5C142.6,132.7,136.8,138.4,130,138.4L130,138.4z M130,138.4"/>
		<path class="st3" d="M167.9,115.9h-6.7c-0.6-1.7-1.2-3.2-2-4.8l4.8-4.8c1.8-1.8,1.8-4.8,0-6.6l-5.2-5.2V0.4H4.5V151
			c0,2.1,1.4,3.6,3.6,3.6h89.6l5.7,5.7c1.8,1.8,4.8,1.8,6.6,0l4.8-4.8c1.5,0.8,3.1,1.4,4.8,2v6.7c0,2.6,2.1,4.7,4.7,4.7h11.1
			c2.6,0,4.7-2.1,4.7-4.7v-6.7c1.7-0.6,3.2-1.2,4.8-2l4.8,4.8c1.8,1.8,4.8,1.8,6.6,0l7.9-7.9c1.8-1.8,1.8-4.8,0-6.6l-4.8-4.8
			c0.8-1.5,1.4-3.1,2-4.8h6.7c2.6,0,4.7-2.1,4.7-4.7v-11.1C172.6,118,170.5,115.9,167.9,115.9L167.9,115.9z M11.7,7.5h139.8v22.6
			H11.7V7.5z M95.6,145.8c-0.4,0.4-0.8,1-1,1.5H11.3V37.3h139.8v53.5c-0.6,0.2-1.2,0.6-1.7,1.1l-4.8,4.8c-1.5-0.8-3.1-1.4-4.8-2V88
			c0-2.6-2.1-4.7-4.7-4.7h-11.1c-2.6,0-4.7,2.1-4.7,4.7v6.7c-1.7,0.6-3.2,1.2-4.8,2l-4.8-4.8c-1.8-1.8-4.8-1.8-6.6,0l-7.9,7.9
			c-1.8,1.8-1.8,4.8,0,6.6l4.8,4.8c-0.8,1.5-1.4,3.1-2,4.8h-6.7c-2.6,0-4.7,2.1-4.7,4.7v11.1c0,2.6,2.1,4.7,4.7,4.7h6.7
			c0.6,1.7,1.2,3.2,2,4.8L95.6,145.8z M165.3,129.1h-8.5c-0.6,5.3-2.7,10.1-5.8,14.1l6,6l-4.2,4.2l-6-6c-3.9,3.2-8.8,5.2-14.1,5.8
			v8.5h-6v-8.5c-5.3-0.6-10.1-2.7-14.1-5.8l-6,6l-4.2-4.2l6-6c-3.2-3.9-5.2-8.8-5.8-14.1h-8.5v-6h8.5c0.6-5.3,2.7-10.1,5.8-14.1
			l-6-6l4.2-4.2l6,6c3.9-3.2,8.8-5.2,14.1-5.8v-8.5h6V99c5.3,0.6,10.1,2.7,14.1,5.8l6-6l4.2,4.2l-6,6c3.2,3.9,5.2,8.8,5.8,14.1h8.5
			V129.1z M165.3,129.1"/>
	</g>
</g>
</svg>
