<svg id="Layer_1" data-name="Layer 1" xmlns="http://www.w3.org/2000/svg" viewBox="0 0 289.11 289.11"><defs><style>.cls-1{fill:#ffe000;}.cls-2{fill:#1b004e;}</style></defs><title>economics</title><path class="cls-1" d="M120.5,86a18.75,18.75,0,1,1,18.75-18.75A18.77,18.77,0,0,1,120.5,86Z"/><path class="cls-1" d="M172.06,67.21a18.75,18.75,0,1,1,18.75-18.75A18.77,18.77,0,0,1,172.06,67.21Z"/><rect class="cls-2" x="106.44" y="20.34" width="9.37" height="23.44" rx="4.69" ry="4.69"/><rect class="cls-2" x="125.19" y="15.65" width="9.37" height="28.12" rx="4.69" ry="4.69"/><rect class="cls-2" x="158" y="6.27" width="9.38" height="18.75" rx="4.69" ry="4.69"/><rect class="cls-2" x="176.75" y="1.59" width="9.38" height="23.44" rx="4.69" ry="4.69"/><path class="cls-2" d="M283.54,67.21H261.13v9.38h9.54l-29.2,40.15-22.88-18.3L195.32,121.7a14,14,0,0,0-13.88-12.3h-1.3l14.13-24.73a5.4,5.4,0,0,0-4.69-8.08H103a5.4,5.4,0,0,0-4.61,8.21l12.69,20.87L95.37,118.77H3.31v9.38H98.76L122,108.82a10.66,10.66,0,0,1,9.76-2.06l18.53,5.29a16.44,16.44,0,0,1,8.32,5.53l6.59,8.23a7.65,7.65,0,0,1-1.39,10.91,7.69,7.69,0,0,1-10-.71l-3.83-3.83a8.9,8.9,0,0,0-11.85-.66L121,145.18a4.39,4.39,0,0,0-.69,6.18c-0.89,11.86-6.24,23.41-15.41,32.83l-0.19.21h-1.87l-9.37-4.69H3.31v9.38h88l6.89,3.45a60.12,60.12,0,0,0-10.11,27.79L68.94,201.21,0,270.15l6.63,6.63,62.31-62.31,19.17,19.17c3.49,29,28.36,52.64,58,53.84,0.85,0,1.7.05,2.54,0.05A60.84,60.84,0,0,0,194,186a13.72,13.72,0,0,0-2.11-15.65,13.85,13.85,0,0,0,0-18.75,13.74,13.74,0,0,0,2.24-15.4l25.2-25.2,24,19.2,34.48-47.41,2.26,9,9.1-2.28Zm-102.1,51.56a4.69,4.69,0,1,1,0,9.38h-5.5a16.86,16.86,0,0,0-3.48-8.18l-1-1.19h9.94ZM164,109.4h0a16.44,16.44,0,0,0-8.32-5.54l-26.17-7.48a10.66,10.66,0,0,0-9.76,2.06l-1.38,1.15-5.77-9.48A2.73,2.73,0,0,1,114.95,86H178A2.73,2.73,0,0,1,180.41,90L169.35,109.4H164Zm5.37,34.83a16.84,16.84,0,0,0,5.26-6.7h6.8a4.69,4.69,0,0,1,0,9.38H164A16.89,16.89,0,0,0,169.37,144.23Zm-6.68,12h18.75a4.69,4.69,0,0,1,0,9.38H162.69A4.69,4.69,0,1,1,162.69,156.27Zm0,18.75h18.75a4.69,4.69,0,0,1,0,9.38H162.69A4.69,4.69,0,1,1,162.69,175Zm37.5,51.56a51.57,51.57,0,0,1-53.7,51.52c-26.76-1.08-48.93-23.77-49.42-50.57a51.13,51.13,0,0,1,14.56-36.81c11.18-11.5,17.52-25.82,18.13-40.54l13.83-11.07,3.52,3.52a16.38,16.38,0,0,0,1.69,1.41,14,14,0,0,0,3.47,7.53,13.85,13.85,0,0,0,0,18.75,13.85,13.85,0,0,0,0,18.75h-8.34v9.38h-2.34a16.41,16.41,0,0,0,0,32.81h14.06a7,7,0,0,1,0,14.07H141.59a7,7,0,0,1-7-7V236h-9.37v2.34a16.42,16.42,0,0,0,16.41,16.41h2.34v9.37h9.38v-9.37h2.34a16.41,16.41,0,0,0,0-32.81H141.59a7,7,0,0,1,0-14.06h14.06a7,7,0,0,1,7,7v2.34h9.38v-2.34a16.42,16.42,0,0,0-16.41-16.41h-2.34v-8.34a14,14,0,0,0,9.38,3.66h18.75a14,14,0,0,0,5.78-1.27A51.07,51.07,0,0,1,200.19,226.59Z"/></svg>