<svg id="Layer_1" data-name="Layer 1" xmlns="http://www.w3.org/2000/svg" viewBox="0 0 455.88 455.88"><defs><style>.cls-1{fill:#1b004e;}.cls-2{fill:#ffe000;}</style></defs><title>electrical</title><path class="cls-1" d="M321.22,257.55a117,117,0,1,0-186.41.19c25.72,33.78,39.89,75.15,39.89,116.5v45.24a36.44,36.44,0,0,0,36.4,36.4h33.85a36.44,36.44,0,0,0,36.4-36.4V374.24C281.34,332.44,295,292.09,321.22,257.55Zm-174.48-8.9A101,101,0,0,1,125.95,186c0.5-54.93,45.59-100.26,100.51-101a102,102,0,0,1,82.8,163.54c-27.59,36.39-42.45,78.83-43.06,122.93H189.67C189,327.75,173.85,284.26,146.74,248.65Zm43,165.75v-6.07l76.65,8.78v2.37a21.42,21.42,0,0,1-.34,3.66Zm0-21.17v-6.81h76.65V402Zm21.4,47.65a21.41,21.41,0,0,1-18.73-11.08l64.57,7.4a21.27,21.27,0,0,1-12,3.68H211.09Z"/><path class="cls-2" d="M153.78,198.21a76.76,76.76,0,0,1-.83-12,7.5,7.5,0,0,0-15-.14,91.79,91.79,0,0,0,1,14.33,7.5,7.5,0,1,0,14.84-2.21h0Z"/><path class="cls-2" d="M197.91,312.14a7.5,7.5,0,0,0,7.13-9.84,238,238,0,0,0-36.82-70,75.77,75.77,0,0,1-7-11.08,7.5,7.5,0,1,0-13.32,6.89,90.89,90.89,0,0,0,8.41,13.28A223,223,0,0,1,190.79,307a7.5,7.5,0,0,0,7.12,5.16h0Z"/><path class="cls-2" d="M306.75,212.61a7.5,7.5,0,0,0-9.86,3.92,75,75,0,0,1-9.14,15.64,7.5,7.5,0,1,0,12,9.06,90.13,90.13,0,0,0,11-18.77,7.5,7.5,0,0,0-3.92-9.85h0Z"/><path class="cls-2" d="M227.94,111.94a75.08,75.08,0,0,1,75,75c0,2.35-.11,4.72-0.32,7a7.5,7.5,0,0,0,6.78,8.15q0.35,0,.69,0a7.5,7.5,0,0,0,7.46-6.82c0.25-2.77.38-5.6,0.38-8.41a90.1,90.1,0,0,0-90-90,7.5,7.5,0,0,0,0,15h0Z"/><path class="cls-2" d="M227.94,57a7.5,7.5,0,0,0,7.5-7.5V7.5a7.5,7.5,0,0,0-15,0v42A7.5,7.5,0,0,0,227.94,57Z"/><path class="cls-2" d="M152.07,71.82a7.5,7.5,0,1,0,13-7.5L144.07,28a7.5,7.5,0,0,0-13,7.5Z"/><path class="cls-2" d="M388.22,272.11l-36.36-21a7.5,7.5,0,0,0-7.5,13l36.36,21a7.5,7.5,0,1,0,7.5-13h0Z"/><path class="cls-2" d="M67.66,104.37l36.36,21a7.5,7.5,0,0,0,7.5-13l-36.36-21A7.5,7.5,0,0,0,67.66,104.37Z"/><path class="cls-2" d="M408.68,180.74h-42a7.5,7.5,0,0,0,0,15h42A7.5,7.5,0,0,0,408.68,180.74Z"/><path class="cls-2" d="M96.7,188.24a7.5,7.5,0,0,0-7.5-7.5h-42a7.5,7.5,0,0,0,0,15h42A7.5,7.5,0,0,0,96.7,188.24Z"/><path class="cls-2" d="M348.12,126.36a7.47,7.47,0,0,0,3.74-1l36.36-21a7.5,7.5,0,0,0-7.5-13l-36.36,21a7.5,7.5,0,0,0,3.76,14h0Z"/><path class="cls-2" d="M104,251.13l-36.36,21a7.5,7.5,0,1,0,7.5,13l36.36-21A7.5,7.5,0,1,0,104,251.13Z"/><path class="cls-2" d="M293.57,74.57a7.5,7.5,0,0,0,10.25-2.75l21-36.36a7.5,7.5,0,0,0-13-7.5l-21,36.36a7.5,7.5,0,0,0,2.75,10.25h0Z"/></svg>