<?xml version="1.0" encoding="utf-8"?>
<!-- Generator: Adobe Illustrator 19.2.1, SVG Export Plug-In . SVG Version: 6.00 Build 0)  -->
<svg version="1.1" id="Capa_1" xmlns="http://www.w3.org/2000/svg" xmlns:xlink="http://www.w3.org/1999/xlink" x="0px" y="0px"
	 viewBox="0 0 33 33" style="enable-background:new 0 0 33 33;" xml:space="preserve">
<style type="text/css">
	.st0{fill:#1B004E;}
	.st1{fill:#FFFFFF;}
	.st2{fill:#FFE000;}
</style>
<g>
	<path class="st0" d="M10,33c-0.1,0-0.2,0-0.3-0.1c-0.2-0.1-0.3-0.4-0.2-0.6l5.1-14.1c0.1-0.1,0-0.3-0.2-0.3l-6.1-1.7
		c-0.2,0-0.3-0.2-0.3-0.3c0-0.2,0-0.3,0.1-0.5L21,0.2c0.2-0.2,0.4-0.2,0.6-0.1c0.2,0.1,0.3,0.4,0.2,0.6l-3.6,12.6
		c0,0.1,0,0.3,0.2,0.3l6.1,1.7c0.2,0,0.3,0.2,0.3,0.3c0,0.2,0,0.3-0.1,0.5L10.4,32.8C10.3,33,10.2,33,10,33z M9.7,15.1
		c-0.1,0.1-0.1,0.4,0.1,0.4l5.7,1.6c0.1,0,0.2,0.1,0.3,0.3c0.1,0.1,0.1,0.3,0,0.4l-4,11c-0.1,0.3,0.2,0.5,0.4,0.3l10.9-12.7
		c0.1-0.1,0.1-0.4-0.1-0.4l-5.7-1.6c-0.1,0-0.2-0.1-0.3-0.2s-0.1-0.3,0-0.4L20,3.8c0.1-0.3-0.3-0.4-0.4-0.2L9.7,15.1z"/>
</g>
<g>
	<line x1="12.9" y1="13.1" x2="16.1" y2="9.1"/>
	<rect x="12" y="10.6" transform="matrix(0.623 -0.7822 0.7822 0.623 -3.1752 15.5366)" width="5.1" height="1"/>
</g>
<g>
	<path class="st1" d="M16.5,22.6"/>
	<rect x="15.9" y="19.8" transform="matrix(0.6268 -0.7792 0.7792 0.6268 -8.9059 22.0674)" class="st2" width="5.4" height="1"/>
</g>
<rect x="12" y="10.6" transform="matrix(0.6232 -0.7821 0.7821 0.6232 -3.1762 15.5326)" class="st2" width="5.1" height="1"/>
</svg>
