<?xml version="1.0" encoding="utf-8"?>
<!-- Generator: Adobe Illustrator 18.0.0, SVG Export Plug-In . SVG Version: 6.00 Build 0)  -->
<!DOCTYPE svg PUBLIC "-//W3C//DTD SVG 1.1//EN" "http://www.w3.org/Graphics/SVG/1.1/DTD/svg11.dtd">
<svg version="1.1" id="Layer_1" xmlns="http://www.w3.org/2000/svg" xmlns:xlink="http://www.w3.org/1999/xlink" x="0px" y="0px"
	 viewBox="0 0 612 610.3" enable-background="new 0 0 612 610.3" xml:space="preserve">
<g>
	<g id="XMLID_1_">
		<g>
			<path fill="#1D144E" d="M557.6,436.1c1.8,6.9-1.8,12.3-8.5,14c-16.1,4.3-32.3,8.4-48.7,11.7c-8.5,1.7-13.1-4.1-15-11.8
				c-3.2-13.3-6.3-26.6-9.3-39.9c-1.9-8.5-2-17.4,8.5-19.6c10.2-2.1,14.1,5.3,15.7,14.3c0.5,2.9,1.8,5.6,3.6,11.4
				c19.5-36.9,28-73.6,25.8-112.3c-5.9-103.2-71.4-182.5-171.9-206c-64-15-123.8-2.1-177.7,36c-3.3,2.3-6.5,4.9-9.7,7.3
				c-6.9,5.3-14.6,6.9-20-0.7c-5.4-7.6-1.3-14,5.6-19.4c32-25.3,67.8-42.5,108.1-49.4c130.8-22.2,248.5,52.6,282.8,180.1
				c16.5,61.3,8.2,120.1-20.8,176.3c5.8,1.4,11-0.3,16.5-1.6C550.2,424.9,555.7,428.8,557.6,436.1z"/>
			<path fill="#1D144E" d="M471.9,481.2c6.6,7.7,2.2,13.9-4.2,19.4c-28.4,23.9-60.3,40.9-96.3,50c-164.8,42-320.2-89.1-306.9-259.2
				c1.3-17.1,4.9-34,10.1-50.6c5-15.9,11.8-31.1,19.7-46.9c-6.4-1.1-10.6,0.5-15,1.5c-7.5,1.8-13.2-1.3-15.1-8.9
				c-1.8-7.4,1.2-13,9.1-14.9c15.7-3.8,31.4-7.9,47.2-11.2c8.7-1.8,13.3,3.9,15.2,11.5c3.6,14.2,7,28.5,10.1,42.8
				c1.6,7.7,0.1,14.7-8.7,16.7c-8.3,1.8-13.3-2.4-15.2-10.6c-1.1-4.9-2.6-9.7-4.4-16.6C95.1,243.8,85.3,284.8,88.9,328
				c8.4,99.3,74.1,176.6,170.6,199.6c65.7,15.6,126.7,2.4,181.5-37.6c3.7-2.7,7.2-5.6,10.8-8.5C458.5,476.1,465.6,473.9,471.9,481.2
				z"/>
			<path fill="#1D144E" d="M398.8,289c13.8,57.2-8.5,101.4-63.6,125.8c-15.1,6.7-19.4,14.5-17.8,29.1c0.9,8.5,0.1,17.3,0.1,25.9
				c0,5.8-2.1,10.4-8.4,10.1c-5.4-0.2-7.6-4.3-7.5-9.5c0-7.1,0-14.2,0-21.3c0,0,0,0-0.1,0c0-5.6-0.5-11.2,0.1-16.8
				c0.8-7.4-2.2-11.1-9.1-13.1c-5.3-1.6-10.2-4.4-15.2-7c-50.7-26.6-71.1-70.5-56.6-125.7c13.8-52.8,44.7-96,80.4-136.1
				c5.5-6.2,10.8-6.9,16.5-0.4C354,190.9,385.8,234.8,398.8,289z M318.7,403.2c54.1-18.6,76.6-59.2,62.8-114
				c-9.9-39.1-31.7-71.9-55.7-103.4c-1.8-2.4-2.9-6.8-8-5.5c0,27.9,0,55.7,0,86.1c3.4-2.7,4.9-3.9,6.3-5.2c1.8-1.7,3.5-3.6,5.4-5.4
				c3.6-3.3,7.5-5.4,12-1.3c4.9,4.5,3.3,8.7-0.3,13.2c-7.5,9.4-21.5,14.9-23.1,27.2c-2.2,17.6-0.6,35.7-0.6,53.6
				c1.3,0.6,2.7,1.2,4,1.9c8.5-9.3,17-18.7,25.6-28c3.9-4.2,8.7-6,13.3-1.6c4.8,4.5,2.6,9.2-1.4,13.2c-8.6,8.6-16.5,18.1-26,25.6
				C318.3,371.4,314.2,385.6,318.7,403.2z M301.5,333.1c-0.9-30.4,8.3-62.4-24.1-81.9c-0.4-0.3-0.7-0.7-1-1.2
				c-2.5-3.8-2.8-7.6,0.7-11c3.5-3.4,7-3,10.9-0.4c4.4,2.9,6.4,9.3,12.3,9.6c0-23.1,0-45.8,0-71.2c-27.5,33.9-49.8,67.6-61.5,107
				c-16.7,56.2,5.6,99.2,60.8,119c9-30.5-1.8-53.4-25.9-71.4c-4-3-7.3-7.1-10.8-10.7c-4.2-4.3-10.4-8.9-4.7-15.2
				c6.2-6.9,11.5-1.3,16.6,3.3C283.3,317,289.9,327.2,301.5,333.1z"/>
			<path fill="#FEFEFE" d="M381.5,289.2c13.8,54.8-8.7,95.4-62.8,114c-4.5-17.6-0.5-31.8,14.3-43.5c9.5-7.5,17.4-17,26-25.6
				c4-4,6.2-8.7,1.4-13.2c-4.6-4.3-9.4-2.5-13.3,1.6c-8.6,9.3-17,18.6-25.6,28c-1.3-0.6-2.7-1.2-4-1.9c0-17.9-1.7-36,0.6-53.6
				c1.6-12.3,15.5-17.9,23.1-27.2c3.6-4.5,5.2-8.7,0.3-13.2c-4.5-4.1-8.3-2-12,1.3c-1.9,1.7-3.6,3.6-5.4,5.4c-1.4,1.3-3,2.4-6.3,5.2
				c0-30.4,0-58.2,0-86.1c5-1.3,6.2,3.2,8,5.5C349.8,217.3,371.7,250.1,381.5,289.2z"/>
			<path fill="#FEFEFE" d="M277.4,251.2c32.4,19.5,23.2,51.4,24.1,81.9c-11.6-5.9-18.1-16.2-26.7-24c-5.1-4.6-10.4-10.2-16.6-3.3
				c-5.7,6.3,0.5,10.9,4.7,15.2c3.6,3.6,6.8,7.7,10.8,10.7c24.1,18,34.9,40.9,25.9,71.4c-55.2-19.9-77.6-62.8-60.8-119
				c11.7-39.4,34-73.1,61.5-107c0,25.4,0,48.1,0,71.2c-5.9-0.4-7.9-6.7-12.3-9.6c-3.9-2.6-7.4-3-10.9,0.4c-3.5,3.4-3.2,7.1-0.7,11
				C276.7,250.5,277,251,277.4,251.2z"/>
		</g>
	</g>
</g>
<g display="none">
	<g id="XMLID_2_" display="inline">
		<g>
			<path fill="#FFFFFF" d="M516.8,221.9c-4.7-7.3-9.4-14.6-14.5-21.8c-13.1-18.4-27.2-36-41.8-53.2c1.1,0.7,2.2,1.4,3.3,2.1
				c0.2,0.1,0.3,0.2,0.5,0.3c5.4,5.2,11,10.3,16.5,15.4c1.9,2.3,3.6,4.7,5.3,7.1c10.1,14.8,17.4,32,30.2,44.7
				c0.1,1.4,0.3,2.9,0.5,4.3C516.7,221.3,516.8,221.6,516.8,221.9z"/>
			<path fill="#FED402" d="M409.7,289.2c13.8,57.2-8.5,101.4-63.6,125.8c-15.1,6.7-19.4,14.5-17.8,29.1c0.9,8.5,0.1,17.3,0.1,25.9
				c0,5.8-2.1,10.4-8.4,10.1c-5.4-0.2-7.6-4.3-7.5-9.5c0-7.1,0-14.2,0-21.3c0,0-0.1,0-0.1,0c0-5.6-0.5-11.2,0.1-16.8
				c0.8-7.4-2.2-11.1-9.1-13.1c-5.3-1.6-10.2-4.4-15.2-7c-50.7-26.6-71.1-70.5-56.6-125.7c13.8-52.8,44.7-96,80.4-136.1
				c5.5-6.2,10.8-6.9,16.5-0.4C364.9,191.2,396.7,235.1,409.7,289.2z M329.6,403.4c54.1-18.6,76.6-59.2,62.8-114
				c-9.9-39.1-31.7-71.9-55.7-103.4c-1.8-2.4-2.9-6.8-8-5.5c0,27.9,0,55.7,0,86.1c3.4-2.7,4.9-3.9,6.3-5.2c1.9-1.7,3.5-3.6,5.4-5.4
				c3.6-3.3,7.5-5.4,12-1.3c4.9,4.5,3.3,8.7-0.3,13.2c-7.5,9.4-21.5,14.9-23.1,27.2c-2.2,17.6-0.6,35.7-0.6,53.6
				c1.3,0.6,2.7,1.2,4,1.9c8.5-9.3,17-18.7,25.6-28c3.9-4.2,8.7-6,13.3-1.6c4.8,4.5,2.6,9.2-1.4,13.2c-8.6,8.6-16.5,18.1-26,25.6
				C329.2,371.6,325.1,385.8,329.6,403.4z M312.4,333.4c-0.9-30.4,8.3-62.4-24.1-81.9c-0.4-0.3-0.7-0.7-1-1.2
				c-2.5-3.8-2.8-7.6,0.7-11c3.5-3.4,7-3,10.9-0.4c4.4,2.9,6.3,9.3,12.3,9.6c0-23.1,0-45.8,0-71.2c-27.5,33.9-49.8,67.6-61.5,107
				c-16.7,56.2,5.6,99.2,60.8,119c9-30.5-1.8-53.4-25.9-71.4c-4-3-7.3-7.1-10.8-10.7c-4.2-4.3-10.4-8.9-4.7-15.2
				c6.2-6.9,11.5-1.3,16.6,3.3C294.2,317.2,300.8,327.5,312.4,333.4z"/>
			<path fill="#FFFFFF" d="M177.8,166.6c-8.2,1.1-16.4,1.8-24.6,2.7c-0.1-0.3-0.1-0.5-0.2-0.8C161.2,167.4,169.5,166.7,177.8,166.6z
				"/>
			<path fill="#FFFFFF" d="M174.5,146.1c-0.2,0.4-0.3,0.8-0.5,1.1c-0.2-0.2-0.4-0.5-0.6-0.7C173.7,146.3,174.1,146.2,174.5,146.1z"
				/>
			<path fill="#FFFFFF" d="M500.3,475.5c1.1,6.3,2.3,12.6,3.5,18.9c-6.3-0.8-12.6-0.6-18.8,0.2c0-0.4,0-0.8,0-1.3
				c2.7-4.1,4.1-8.5,2.7-13c3-2.8,6.1-5.5,9.6-7.6C498,474,499,475,500.3,475.5z"/>
			<path fill="#1D144E" d="M507.4,394.6c0.1,0.2,0.3,0.4,0.4,0.6c-0.4,0-0.8,0.1-1.2,0.2c-0.4-0.9-0.7-1.8-1.1-2.8
				C506.2,393.2,506.8,393.8,507.4,394.6z"/>
			<path fill="#FFFFFF" d="M263.8,106.2c1.6,0.6,3.2,1.2,4.7,1.9c-3.1-0.4-6.2-0.8-9.3-1.2c-0.2-0.8-0.5-1.6-1-2.3
				c0.3,0,0.5-0.1,0.8-0.1c0.8,0.3,1.5,0.6,2.3,0.9C262.1,105.5,262.9,105.9,263.8,106.2z"/>
			<path fill="#FFFFFF" d="M507.4,394.6c-0.5-0.7-1.2-1.4-1.9-2c-0.1-0.3-0.3-0.7-0.4-1C505.9,392.6,506.7,393.6,507.4,394.6z"/>
			<path fill="#FFFFFF" d="M118,255.2c0.4,0.7,0.7,1.4,0.9,2.2c-0.8-1.1-1.6-2.3-2.4-3.4c0.1-0.2,0.2-0.4,0.3-0.7
				C117.2,254,117.6,254.6,118,255.2z"/>
			<path fill="#FFFFFF" d="M133.3,415.5c0.8,1.1,1.6,2.1,2.3,3.2c-1-0.8-2-1.7-3-2.5c-0.1-0.4-0.2-0.8-0.4-1.2
				c-0.6-1.2-1.2-2.4-1.8-3.6C131.4,412.7,132.3,414.1,133.3,415.5z"/>
			<path fill="#FEFEFE" d="M392.4,289.4c13.8,54.8-8.7,95.4-62.8,114c-4.5-17.6-0.5-31.8,14.4-43.5c9.5-7.5,17.4-17,26-25.6
				c4-4,6.2-8.7,1.4-13.2c-4.6-4.3-9.4-2.5-13.3,1.6c-8.6,9.3-17,18.6-25.6,28c-1.3-0.6-2.7-1.2-4-1.9c0-17.9-1.7-36,0.6-53.6
				c1.6-12.3,15.5-17.9,23.1-27.2c3.6-4.5,5.2-8.7,0.3-13.2c-4.5-4.1-8.3-2-12,1.3c-1.9,1.7-3.5,3.6-5.4,5.4
				c-1.4,1.3-2.9,2.4-6.3,5.2c0-30.4,0-58.2,0-86.1c5-1.3,6.2,3.2,8,5.5C360.7,217.5,382.6,250.3,392.4,289.4z"/>
			<path fill="#FFFFFF" d="M536.1,163.4c-9.2-2.4-18.1-6.9-26.4-12.1c-2.7-3.2-5.5-6.4-8.3-9.4C513.6,148.1,525.3,155.1,536.1,163.4
				z"/>
			<path fill="#FFFFFF" d="M547.2,508.7c-4.4-8.2-7.3-17.8-10.3-26c-2.4-6.6-4.8-13.3-7-19.9c0.8-1.1,1.6-2.3,2.3-3.6
				c0.1,0.2,0.2,0.4,0.2,0.6c0.3,0.8,0.7,1.6,1,2.4c3.4,13,6.7,26.1,13.6,37.5c0,0.4,0.1,0.8,0.1,1.1
				C547.1,503.5,547.1,506.1,547.2,508.7z"/>
			<path fill="#FFFFFF" d="M165.3,152.4c1.3,1.5,2.6,3.1,3.9,4.6c-3.1,0.2-6.2,0.4-9.2,0.7l-0.1-1.2c1-0.1,2-0.6,2.9-1.5
				C163.6,154.1,164.5,153.3,165.3,152.4z"/>
			<path fill="#1D144E" d="M320.3,92.1c-0.1,0-0.2,0-0.4,0c0-0.1,0-0.1,0-0.2C320.1,92,320.2,92,320.3,92.1z"/>
			<path fill="#FFFFFF" d="M102.7,145.7c0.9,3.3,1.5,6.6,1.9,10c-1.5,0.4-2.9,1.4-4.2,3.3C100.9,154.5,101.6,150,102.7,145.7z"/>
			<path fill="#FFFFFF" d="M130.4,226.5c0.8,0.4,1.7,0.8,2.5,1.2c-1,1.5-2,3-3.1,4.4c-0.8-1.7-1.6-3.3-2.6-4.8
				C128.3,227.1,129.3,226.9,130.4,226.5z"/>
			<path fill="#FFFFFF" d="M537.4,306.9c-2.2-1.1-4.8,0-6.2,1.9c-0.4-0.5-0.7-1-1.1-1.5c-3.3-4.1-9.5,0.4-8.4,4.9
				c2,8.1,4.5,16,7.3,23.8c-0.9-1.5-1.9-2.9-2.8-4.3c-3.3-4.8-10.1-1.5-9.2,3.5c-3-0.5-6.5,2.7-6,6.4c0.7,5.1,1.9,10.3,3.2,15.4
				c-2.8-3.1-8.9-1.4-8.7,3.3c0.2,6.6,2,12.9,3.5,19.3c0.2,1,0.5,2,0.7,3c-2.3-2-4.9-3.7-7.8-4.5c-0.9-7.3-2-14.6-3.3-21.9
				c-0.9-4.9-7.6-4.4-9.4-0.6c-1.4-2.9-2.9-5.7-4.4-8.6c-2.7-5-10.9-1.6-9.1,3.9c3.7,11.4,5.2,23.5,7.6,35.3
				c0.2,1.2,0.5,2.3,0.7,3.5c-1.1,3.8-1.6,8-1.8,11.6c-0.5,10.5-1.7,20.3,1,30.6c2,7.5,6.2,14.4,12.6,18.8c0.7,3.6,1.3,7.3,2,10.9
				c-0.4,0.1-0.7,0.2-1.1,0.4c-6,2.6-11.1,6.7-15.8,11.1c-5.5-1.9-12.8,0-17.4,2.8c-4.3,2.6-8,6.2-11.7,9.5
				c-5.2,4.8-11.1,8.9-16.9,12.9c-22.5,15.6-48.5,27.4-76.3,27.6c-0.6,0-1.1,0.1-1.6,0.3c-9.7-3.6-19.2-8.5-29.7-7.6
				c-5.2,0.4-6.5,6.3-2.5,9.3c2.2,1.7,4.5,3.2,7,4.5c-15.7-1.7-31.3-3.9-46.6-8c-12.9-6.2-26-11.6-40.5-7.7c-1,0.3-1.9,1-2.6,1.8
				c-0.1,0-0.2-0.1-0.3-0.1c3.1-2.2,1.9-8.6-3.1-9.2c-5.9-0.8-12.1-3.5-18.2-6.2c-0.5-1.3-1.5-2.4-3.1-2.9
				c-14-4.4-24.8-14.8-37.1-22.3c-1.2-5.5-4.5-10.2-11.2-11.8c-0.9-0.2-1.8-0.3-2.6-0.4c-0.8-1.5-2.2-2.7-3.9-2.9
				c-0.2-0.4-0.6-0.8-1-1.3c-2.1-2-4.2-4.1-6.3-6.1c2.8-1.2,4.4-4.8,1.6-7.9c-3.1-3.5-6.2-7.1-9.2-10.8c3.4,0.4,5.8-3.3,5.2-6.4
				c-1.3-6-4.7-11.2-8.2-16.2c-3.8-5.3-7.3-10.8-11-16.1c-5.1-7.3-10.4-14.4-15.3-21.7c2.3-0.9,4-3.4,3.2-6
				c-2.1-7.3-4.9-14.4-7.8-21.5c2.1-0.9,3.6-3.1,3.1-5.9c-1.8-11.6-6.2-22.8-11-33.8c3.8,3.4,9.4,0,8.3-4.9
				c-1.3-6.4-3.3-12.6-5.4-18.7c2.5-0.7,4.4-3,3.4-6c-1.8-5.1-4.2-10-6.7-14.7c1.2,0.6,2.5,1.2,3.8,1.7c7.7,2.9,19.6,1.3,19.8-9
				c0.1-3-1.1-5.8-2.8-8.5c0.1-0.1,0.2-0.1,0.2-0.1c4.6-3.2,8.4-7,11.7-11.3c2.7,2.8,8.8,1.6,8.8-2.8c1-0.6,1.7-1.6,1.9-2.8
				c2.9,1.3,7.3-0.5,7.4-4.5c0-0.1,0-0.3,0-0.4c0.9-0.2,1.8-0.6,2.5-1.4c3.4-3.8,5.6-8.1,7.3-12.9c1-2.9-1.7-6.6-4.8-6.3
				c-1.2,0.1-2.4,0.3-3.5,0.6c-0.4-1.3-0.9-2.6-1.4-3.9c-0.4-8.3-1.5-16.4-4.5-23.6c2.7-0.4,5.4-0.7,8.2-1c16.3-1.6,33-3,48.3-9.2
				c4.2-1.7,5.3-8.4,0-9.6c-9.4-2.1-18.9-3-28.4-3c2.1-3.2,3.7-6.6,5.4-10.1c0.8-1.6,1.6-3.4,2.6-4.9c3.7-1.4,7.2-3.3,10.4-6
				c0.5-0.5,0.9-1,1.1-1.6c3.3-0.7,6.6-1.2,9.9-1.6c7.1,0,14.1-0.4,20.6-3.3c2.8-1.2,3.2-5.5,1.3-7.7c2.5,0.1,5,0,7.5-0.1
				c3.8-0.2,7.9-0.5,11.5-1.9c1.3,0.2,2.6,0.4,3.8,0.6c3.6,0.8,7.1,1.5,10.7,2.2c3.3,0.7,5.5-1.5,6.1-4c8.2,0.9,16.3,1.7,24.6,2.2
				c5.2,0.3,6.5-6.8,2.5-9.3c-2.9-1.8-6-3.5-9.1-5.1c0.6-1.6,0.3-3.4-1.3-4.8c-1.4-1.3-3-2.5-4.6-3.5c10.7-1.3,21.5-2.1,32.4-1.9
				c2.6,0.1,4.2-1.7,4.7-3.8c0.1,0,0.2,0,0.4,0c28.9,15.6,62.4,25,94.9,27.1c1.6,0.1,2.7-0.4,3.5-1.3c4.4,1.7,8.9,3.4,13.4,4.9
				c0,0,0,0,0,0c0.6,0.3,1.2,0.7,1.8,1c-1.7,1.8-2.3,4.9-0.3,7.2c20.1,23.1,39.9,46.5,57.9,71.3c9.1,12.6,17.7,25.5,25.7,38.8
				c2.6,4.4,5.6,8.7,8.3,13.2c1.6,7.1,3.6,14,6,20.8c-0.6,1.1-0.9,2.4-0.5,3.7C533.7,288,535.3,297.5,537.4,306.9z M471.9,305.2
				c6.5,0,6.5-10,0-10C465.5,295.2,465.5,305.2,471.9,305.2z M346.1,415.1c55.2-24.5,77.4-68.7,63.6-125.8
				c-13-54.2-44.9-98.1-81.2-139c-5.8-6.5-11-5.8-16.5,0.4c-35.7,40.2-66.5,83.3-80.4,136.1c-14.4,55.1,5.9,99,56.6,125.7
				c4.9,2.6,9.9,5.4,15.2,7c6.9,2.1,9.9,5.8,9.1,13.1c-0.6,5.5-0.1,11.2-0.1,16.8c0,0,0.1,0,0.1,0c0,7.1,0,14.2,0,21.3
				c0,5.3,2.1,9.3,7.5,9.5c6.4,0.2,8.5-4.3,8.4-10.1c0-8.6,0.8-17.4-0.1-25.9C326.7,429.5,331,421.7,346.1,415.1z"/>
			<path fill="#FFFFFF" d="M515.2,409.5c-0.2,0.2-0.3,0.4-0.5,0.7c-0.5-1.5-0.9-3-1.3-4.5c0-0.2-0.1-0.4-0.1-0.6
				C514,406.6,514.7,408,515.2,409.5z"/>
			<path fill="#FEFEFE" d="M288.3,251.5c32.3,19.5,23.2,51.4,24.1,81.9c-11.6-5.9-18.1-16.2-26.7-24c-5.1-4.6-10.4-10.2-16.6-3.3
				c-5.7,6.3,0.5,10.9,4.7,15.2c3.6,3.6,6.8,7.7,10.8,10.7c24.1,18,34.9,40.9,25.9,71.4c-55.2-19.9-77.6-62.8-60.8-119
				c11.7-39.4,34-73.1,61.5-107c0,25.4,0,48.1,0,71.2c-6-0.4-7.9-6.7-12.3-9.6c-3.9-2.6-7.4-3-10.9,0.4c-3.5,3.4-3.2,7.1-0.7,11
				C287.6,250.7,287.9,251.2,288.3,251.5z"/>
			<path fill="#FFFFFF" d="M160,157.7c-3.6,0.3-7.2,0.8-10.7,1.2c-0.1-0.2-0.3-0.4-0.4-0.7c-2.2-3.7-6.8-2.7-8.6,0.1
				c-0.4-1.2-0.7-2.4-1.1-3.7c-5.5-18.4-11.1-36.9-14.4-55.9c-1.1-6.4-10.6-3.6-9.6,2.7c2.3,15,4.9,30,7.6,44.9
				c-0.1-0.3-0.3-0.5-0.4-0.8c-2.3-4.3-7.6-2.5-9,1.3c-1.3-6.1-3.3-12.1-6.3-17.9c-1.7-3.2-7-3.3-8.6,0c-5.3,11-7.3,23.3-8.2,35.6
				c-1.5,0.6-2.9,1.2-4.4,1.8c-1.7-1.4-3.4-2.7-5.3-3.9c-4.5-3-8.8,2.7-6.8,6.8c0.3,0.5,0.5,1.1,0.7,1.6c-1,0.4-2,0.7-3,1.1
				c-1.6,0.5-2.6,1.5-3.1,2.8c-2.9,0.7-5.1,3.9-3.2,7.2c4.2,7.6,9.2,13.2,15.4,17.5c1.5,1.9,2.9,3.9,4.3,5.8c0.2,0.7,0.3,1.3,0.5,2
				c-0.8,1.8-1.5,3.7-2.1,5.5c-0.7,2.2,0.4,4.3,2.1,5.4c-2.9,0.8-5,3.9-2.9,7.1c1.5,2.3,3.1,4.5,4.7,6.8c-1.3,0.8-2.2,2.2-2.1,4
				c0.1,0.7,0.1,1.5,0.2,2.2c-0.8,0.5-1.5,1.2-2,2.1c-2.3,0.4-4.6,2.4-4.8,5c-0.3,3.5-0.3,6.9-0.1,10.2c-1.7,0.9-3,2.6-3.2,4.5
				c-0.2,1.9-0.3,3.7-0.3,5.6c-1.5,0.2-2.9,1.2-3.9,2.5c-0.8-1.8-1.7-3.5-2.5-5.2c-2.5-5.2-10.5-1.5-9.1,3.9
				c3.4,13.2,7.3,26.1,11.8,38.9c-1.3,0.6-2.2,1.6-2.5,3.1c-0.4,2.1-0.5,4.2-0.5,6.3c-3.6-3.2-9.3,0.3-8.2,5
				c2.5,10.3,6,20.8,10.3,30.9c-1-0.6-2-1.3-3-1.9c-3.7-2.1-8.7,1.4-7.3,5.7c3.4,10.5,9.4,20.2,16,28.9c-2.1-2.1-4.2-4.3-6.4-6.5
				c-3.9-4-11.3,1.4-7.8,6.1c4.3,5.7,8.8,11.3,13.5,16.7c0.1,0.4,0.3,0.9,0.5,1.3c8.1,12.4,18.1,23.4,29.2,33.3
				c0.1,0.4,0.2,0.7,0.3,1.1c-3.5,0.4-6.5,5.1-3.3,8.6c6.7,7.6,13.8,14.8,21.1,21.8c0.1,0.6,0.3,1.3,0.8,1.9c1,1.3,2.1,2.6,3.2,3.9
				c-1.4,0.3-2.8,0.5-4.2,0.8c-5.5,1.1-4.3,10.5,1.3,9.8c4-0.5,7.9-1.1,11.9-1.7c5.7,5,11.8,9.5,17.9,14.1c0.5,0.5,1.1,1,1.6,1.4
				c-2.6,1.8-3.1,6.7,0.1,8.8c2.9,1.9,5.8,3.7,8.8,5.3c-3.2,1.9-3.4,7.4,1.1,9.2c10.4,4,21.1,7.6,32.1,9.1c1.8,0.6,3.5,1.2,5.3,1.8
				c11.2,5.8,22.8,10.8,34.3,16c9.2,4.8,18.5,9.4,28.1,13.5c-0.1,2.3,1.3,4.7,3.6,5.6c7,2.5,14.8,3.2,22.1,3.9
				c5.4,1.3,10.9,2,16.5,1.6c0.8-0.1,1.5-0.3,2.1-0.6c3.2,0,6.3,0,9.5,0c6.4-0.1,12.9-0.4,19.4-1c1.2,0.5,2.5,0.9,3.7,1.4
				c2.4,0.9,4.5-0.4,5.6-2.4c7.8-0.9,15.5-2.1,23.1-3.6c0.9-0.2,1.6-0.5,2.1-1c1.8,0.2,3.5,0.1,5.2-0.3c1.5-0.4,2.8-1.6,3.4-3.1
				c1.9-0.7,3.9-1.6,5.8-2.7c2.8-1.5,3.1-5.3,1.3-7.6c1.4,0.1,2.8,0.2,4.2,0.3c0.5,0,1,0,1.4-0.1c0.6,0.1,1.3,0.1,2-0.1
				c20.8-4.5,41.6-9.6,61.6-16.9c9.6-3.5,19.1-7.6,28.1-12.4c7.8-4.1,16.4-9.1,21.6-16.5c3,1.5,7.7-0.3,7.6-4.4
				c-0.2-9.3-2.1-18.3-3.6-27.4c3.5-0.9,7-1.6,10.3-3.1c2.4,7,4.9,14,7.5,21c4.7,12.6,9.3,27,19.3,36.5c3.3,3.1,8.3,0.8,8.5-3.5
				c0.3-5.7,0.3-11.4,0.2-17c1.5-0.7,2.5-2.1,2.5-4.3c-0.1-2.9-0.2-5.7-0.3-8.5c2.5,0.5,5.5-0.9,6.3-3.3c0.5,0.8,0.9,1.6,1.4,2.4
				c3.1,5,10.3,1.6,9.1-3.9c-2.5-12.4-5.7-24.6-9.2-36.7c2.6-0.7,5.1-1.7,7.6-3c1.9-0.9,2.6-2.5,2.5-4c0.8-1.4,1-3.2-0.1-4.8
				c-1.4-2.3-3-4.5-4.8-6.7c-1.4-4.3-3.3-8.5-5.2-12.7c0.5-1.4,0.8-3,0.9-4.6c1.8-1.1,3-3.2,2.2-5.5c-1.1-2.8-2.2-5.6-3.3-8.4
				c-0.5-2.3-1.5-4.8-2.9-7.1c-0.1-0.2-0.2-0.4-0.2-0.6c1.3-0.6,2.5-1.8,3-3.2c0.3-0.7,0.5-1.4,0.8-2c3.8,1.4,8.1-2.5,6.1-7.1
				c-1.4-3.1-2.8-6.2-4.3-9.2c-0.3-4.5-1.2-8.9-2.4-13.3c1.5-1.4,2.6-3.1,3.3-4.6c1.7-3.9,1.8-8,1.3-12.1c1.6-3.7,1.9-7.7,1.4-11.9
				c0.3-1,0.4-2,0.5-3c1.8-6.3,0.4-13.9-0.5-20.1c-0.6-3.9-1.3-7.7-2.2-11.5c2-7-0.1-15.2-1.7-22c-1.6-6.6-3.6-13-6.2-19.2
				c0-0.2,0-0.3,0-0.5c-0.9-13.2-2.9-27.2-8.4-39.2c2.5-1.4,3.8-4.9,1.2-7.8c-3-3.4-6.3-6.5-9.7-9.4c-0.8-0.8-1.6-1.7-2.5-2.5
				c-1.6-5.3-3.4-10.5-5.4-15.7c-0.9-2.3-1.9-4.7-3.1-6.9c5.6,1.4,11.4,2.1,17.2,1.8c4.1-0.2,6.9-5.4,3.5-8.5
				c-17.3-15.9-37.2-27.9-58.3-37.9c-0.2-0.5-0.6-1-1-1.5c-12.8-11.9-28.5-19.8-44.3-27.5c-0.2-0.7-0.6-1.3-1.1-1.9
				c-20.8-22.6-53.9-32.9-83.4-36.7c-5.6-0.7-11.3-1.4-17.1-1.9c-10.1-3.9-20.2-7.7-30.4-11.4c-5.4-1.9-8.8,6.5-3.9,9.1
				c0.8,0.4,1.6,0.8,2.4,1.2c-13.8,0.5-27.5,2.3-40.5,6.3c-2.3,0.7-3.4,2.4-3.5,4.2c-1,0.1-2.1,0.3-3.1,0.5c-2.1,0.3-3.3,2-3.5,3.8
				c-5.2-0.5-10.9-0.8-16.1,0.1c-10.5-0.8-21.1-1.2-31.6-1.4c-6.5-2.2-13-4.4-19.5-6.6c-2.4-0.8-4.4,0.5-5.5,2.3
				c-1.8-0.4-3.6-0.7-5.3-1c-0.9-0.5-1.8-1-2.6-1.5c-2.3-1.3-4.4-0.8-5.8,0.6c-2.5-0.1-5-0.1-7.4,0c-4.9,0.3-6.9,6.6-2.5,9.3
				c3.1,1.9,6.3,3.8,9.5,5.6c-0.1,0-0.2-0.1-0.3-0.1c-4-1.5-6.5,2.2-5.9,5.6c-3.1-0.6-6.2-1.1-9.4-1.6c-6.2-0.9-9,7.6-2.7,9.6
				c1,0.3,2,0.6,2.9,0.9c-1.6-0.1-3.3-0.1-5-0.1c-5.4,0-6.9,8.5-1.7,9.7c-0.2,1.7,0.5,3.4,2.5,4.3c3.3,1.4,6.6,2.5,10.1,3.6
				c-9.1,0.4-18.2,1.6-26.9,4c-5.4,1.5-4.4,10,1.3,9.8c1.2,0,2.4-0.1,3.7-0.2c-1.4,0.3-2.9,0.7-4.3,1c-5.5,1.4-4.3,9.9,1.3,9.8
				c1.9,0,3.8-0.1,5.7-0.2c0.6,0.7,1.2,1.4,1.9,2.1c-0.9,2.7,0.4,6,3.1,6.7c-0.8,1-1.6,2.1-2.2,3.2c-2.2,3.8,1.4,7.9,5,7.6
				L160,157.7z M627.5,607.7c0,9.6-2.6,10.7-11.2,10.7c-98.7-0.3-197.3-0.2-296-0.2c-98.2,0-196.3-0.1-294.5,0.1
				c-8.3,0-12.4-0.1-12.4-11c0.4-197.3,0.4-394.7,0-592c0-9.6,2.6-10.7,11.2-10.7c197.3,0.3,394.7,0.3,592-0.1
				c9.6,0,10.7,2.6,10.7,11.2C627.1,213,627.1,410.3,627.5,607.7z"/>
			<path fill="#FFFFFF" d="M494.6,503.7c-5,4.3-11.4,7.4-16.8,10.2c-3.2,1.7-6.5,3.2-9.9,4.7c2.1-1.5,4.1-3.2,6-5
				c2.5-2.4,5.1-5.3,7.2-8.5C485.5,504.2,490.1,503.7,494.6,503.7z"/>
			<path fill="#1D144E" d="M434.3,123.5c-0.1,0.1-0.2,0.2-0.3,0.3c-0.6-0.3-1.2-0.7-1.8-1C432.9,123.1,433.6,123.3,434.3,123.5z"/>
		</g>
		<g>
			<path fill="none" stroke="#2E3192" stroke-width="0.25" stroke-miterlimit="10" d="M320.3,618.2c-98.2,0-196.3-0.1-294.5,0.1
				c-8.3,0-12.4-0.1-12.4-11c0.4-197.3,0.4-394.7,0-592c0-9.6,2.6-10.7,11.2-10.7c197.3,0.3,394.7,0.3,592-0.1
				c9.6,0,10.7,2.6,10.7,11.2c-0.3,197.3-0.3,394.7,0.1,592c0,9.6-2.6,10.7-11.2,10.7C517.7,618,419,618.2,320.3,618.2z"/>
			<path fill="none" stroke="#2E3192" stroke-width="0.25" stroke-miterlimit="10" d="M320.3,92.1c-0.1,0-0.2,0-0.4,0"/>
			<path fill="none" stroke="#2E3192" stroke-width="0.25" stroke-miterlimit="10" d="M434,123.8c-0.6-0.3-1.2-0.7-1.8-1"/>
			<path fill="none" stroke="#2E3192" stroke-width="0.25" stroke-miterlimit="10" d="M505.5,392.6c0.7,0.6,1.3,1.2,1.9,2"/>
			<path fill="none" stroke="#2E3192" stroke-width="0.25" stroke-miterlimit="10" d="M312.4,449.3c0-5.6-0.5-11.2,0.1-16.8
				c0.8-7.4-2.2-11.1-9.1-13.1c-5.3-1.6-10.2-4.4-15.2-7c-50.7-26.6-71.1-70.5-56.6-125.7c13.8-52.8,44.7-96,80.4-136.1
				c5.5-6.2,10.8-6.9,16.5-0.4c36.3,40.9,68.2,84.8,81.2,139c13.8,57.2-8.5,101.4-63.6,125.8c-15.1,6.7-19.4,14.5-17.8,29.1
				c0.9,8.5,0.1,17.3,0.1,25.9c0,5.8-2.1,10.4-8.4,10.1c-5.4-0.2-7.6-4.3-7.5-9.5C312.5,463.6,312.5,456.4,312.4,449.3
				C312.5,449.3,312.4,449.3,312.4,449.3z"/>
			<path fill="none" stroke="#2E3192" stroke-width="0.25" stroke-miterlimit="10" d="M310.5,403.4c-55.2-19.9-77.6-62.8-60.8-119
				c11.7-39.4,34-73.1,61.5-107c0,25.4,0,48.1,0,71.2c-6-0.4-7.9-6.7-12.3-9.6c-3.9-2.6-7.4-3-10.9,0.4c-3.5,3.4-3.2,7.1-0.7,11
				c0.3,0.4,0.6,0.9,1,1.2c32.3,19.5,23.2,51.4,24.1,81.9c-11.6-5.9-18.1-16.2-26.7-24c-5.1-4.6-10.4-10.2-16.6-3.3
				c-5.7,6.3,0.5,10.9,4.7,15.2c3.6,3.6,6.8,7.7,10.8,10.7C308.7,350,319.5,372.9,310.5,403.4z"/>
			<path fill="none" stroke="#2E3192" stroke-width="0.25" stroke-miterlimit="10" d="M328.8,266.6c0-30.4,0-58.2,0-86.1
				c5-1.3,6.2,3.2,8,5.5c24,31.5,45.8,64.3,55.7,103.4c13.8,54.8-8.7,95.4-62.8,114c-4.5-17.6-0.5-31.8,14.4-43.5
				c9.5-7.5,17.4-17,26-25.6c4-4,6.2-8.7,1.4-13.2c-4.6-4.3-9.4-2.5-13.3,1.6c-8.6,9.3-17,18.6-25.6,28c-1.3-0.6-2.7-1.2-4-1.9
				c0-17.9-1.7-36,0.6-53.6c1.6-12.3,15.5-17.9,23.1-27.2c3.6-4.5,5.2-8.7,0.3-13.2c-4.5-4.1-8.3-2-12,1.3c-1.9,1.7-3.5,3.6-5.4,5.4
				C333.7,262.8,332.1,263.9,328.8,266.6z"/>
			<path fill="none" stroke="#2E3192" stroke-width="0.25" stroke-miterlimit="10" d="M132.9,227.7c-1,1.5-2,3-3.1,4.4"/>
			<path fill="none" stroke="#2E3192" stroke-width="0.25" stroke-miterlimit="10" d="M126.2,249c0.1-0.1,0.2-0.1,0.2-0.1
				c4.6-3.2,8.4-7,11.7-11.3"/>
			<path fill="none" stroke="#2E3192" stroke-width="0.25" stroke-miterlimit="10" d="M153,168.4c8.2-1.1,16.5-1.8,24.8-1.9
				c-8.2,1.1-16.4,1.8-24.6,2.7"/>
			<path fill="none" stroke="#2E3192" stroke-width="0.25" stroke-miterlimit="10" d="M169.2,157c-3.1,0.2-6.2,0.4-9.2,0.7
				c-3.6,0.3-7.2,0.8-10.7,1.2"/>
			<path fill="none" stroke="#2E3192" stroke-width="0.25" stroke-miterlimit="10" d="M151.8,179.5c2.7-0.4,5.4-0.7,8.2-1
				c16.3-1.6,33-3,48.3-9.2c4.2-1.7,5.3-8.4,0-9.6c-9.4-2.1-18.9-3-28.4-3"/>
			<path fill="none" stroke="#2E3192" stroke-width="0.25" stroke-miterlimit="10" d="M130.4,226.5c0.8,0.4,1.7,0.8,2.5,1.2"/>
			<path fill="none" stroke="#2E3192" stroke-width="0.25" stroke-miterlimit="10" d="M129.8,232c-0.8-1.7-1.6-3.3-2.6-4.8"/>
			<path fill="none" stroke="#2E3192" stroke-width="0.25" stroke-miterlimit="10" d="M116.5,254c0.1-0.2,0.2-0.4,0.3-0.7"/>
			<path fill="none" stroke="#2E3192" stroke-width="0.25" stroke-miterlimit="10" d="M140.3,158.4c-0.4-1.2-0.7-2.4-1.1-3.7
				c-5.5-18.4-11.1-36.9-14.4-55.9c-1.1-6.4-10.6-3.6-9.6,2.7c2.3,15,4.9,30,7.6,44.9c-0.1-0.3-0.3-0.5-0.4-0.8
				c-2.3-4.3-7.6-2.5-9,1.3c-1.3-6.1-3.3-12.1-6.3-17.9c-1.7-3.2-7-3.3-8.6,0c-5.3,11-7.3,23.3-8.2,35.6c-1.5,0.6-2.9,1.2-4.4,1.8
				c-1.7-1.4-3.4-2.7-5.3-3.9c-4.5-3-8.8,2.7-6.8,6.8c0.3,0.5,0.5,1.1,0.7,1.6c-1,0.4-2,0.7-3,1.1c-1.6,0.5-2.6,1.5-3.1,2.8
				c-2.9,0.7-5.1,3.9-3.2,7.2c4.2,7.6,9.2,13.2,15.4,17.5c1.5,1.9,2.9,3.9,4.3,5.8c0.2,0.7,0.3,1.3,0.5,2"/>
			<path fill="none" stroke="#2E3192" stroke-width="0.25" stroke-miterlimit="10" d="M138.2,237.5c2.7,2.8,8.8,1.6,8.8-2.8
				c1-0.6,1.7-1.6,1.9-2.8c2.9,1.3,7.3-0.5,7.4-4.5c0-0.1,0-0.3,0-0.4c0.9-0.2,1.8-0.6,2.5-1.4c3.4-3.8,5.6-8.1,7.3-12.9
				c1-2.9-1.7-6.6-4.8-6.3c-1.2,0.1-2.4,0.3-3.5,0.6c-0.4-1.3-0.9-2.6-1.4-3.9c-0.4-8.3-1.5-16.4-4.5-23.6"/>
			<path fill="none" stroke="#2E3192" stroke-width="0.25" stroke-miterlimit="10" d="M104.6,155.7c-1.5,0.4-2.9,1.4-4.2,3.3
				c0.5-4.5,1.2-9,2.3-13.3C103.6,149,104.2,152.3,104.6,155.7z"/>
			<path fill="none" stroke="#2E3192" stroke-width="0.25" stroke-miterlimit="10" d="M162.4,462.6c-0.2-0.4-0.6-0.8-1-1.3
				c-2.1-2-4.2-4.1-6.3-6.1c2.8-1.2,4.4-4.8,1.6-7.9c-3.1-3.5-6.2-7.1-9.2-10.8c3.4,0.4,5.8-3.3,5.2-6.4c-1.3-6-4.7-11.2-8.2-16.2
				c-3.8-5.3-7.3-10.8-11-16.1c-5.1-7.3-10.4-14.4-15.3-21.7c2.3-0.9,4-3.4,3.2-6c-2.1-7.3-4.9-14.4-7.8-21.5
				c2.1-0.9,3.6-3.1,3.1-5.9c-1.8-11.6-6.2-22.8-11-33.8c3.8,3.4,9.4,0,8.3-4.9c-1.3-6.4-3.3-12.6-5.4-18.7c2.5-0.7,4.4-3,3.4-6
				c-1.8-5.1-4.2-10-6.7-14.7c1.2,0.6,2.5,1.2,3.8,1.7c7.7,2.9,19.6,1.3,19.8-9c0.1-3-1.1-5.8-2.8-8.5"/>
			<path fill="none" stroke="#2E3192" stroke-width="0.25" stroke-miterlimit="10" d="M85.2,218.3c-2.9,0.8-5,3.9-2.9,7.1
				c1.5,2.3,3.1,4.5,4.7,6.8c-1.3,0.8-2.2,2.2-2.1,4c0.1,0.7,0.1,1.5,0.2,2.2c-0.8,0.5-1.5,1.2-2,2.1c-2.3,0.4-4.6,2.4-4.8,5
				c-0.3,3.5-0.3,6.9-0.1,10.2c-1.7,0.9-3,2.6-3.2,4.5c-0.2,1.9-0.3,3.7-0.3,5.6c-1.5,0.2-2.9,1.2-3.9,2.5c-0.8-1.8-1.7-3.5-2.5-5.2
				c-2.5-5.2-10.5-1.5-9.1,3.9c3.4,13.2,7.3,26.1,11.8,38.9c-1.3,0.6-2.2,1.6-2.5,3.1c-0.4,2.1-0.5,4.2-0.5,6.3
				c-3.6-3.2-9.3,0.3-8.2,5c2.5,10.3,6,20.8,10.3,30.9c-1-0.6-2-1.3-3-1.9c-3.7-2.1-8.7,1.4-7.3,5.7c3.4,10.5,9.4,20.2,16,28.9
				c-2.1-2.1-4.2-4.3-6.4-6.5c-3.9-4-11.3,1.4-7.8,6.1c4.3,5.7,8.8,11.3,13.5,16.7c0.1,0.4,0.3,0.9,0.5,1.3
				c8.1,12.4,18.1,23.4,29.2,33.3"/>
			<path fill="none" stroke="#2E3192" stroke-width="0.25" stroke-miterlimit="10" d="M135.6,418.7c-1-0.8-2-1.7-3-2.5
				c-0.1-0.4-0.2-0.8-0.4-1.2c-0.6-1.2-1.2-2.4-1.8-3.6c0.9,1.4,1.9,2.8,2.9,4.1C134,416.5,134.8,417.6,135.6,418.7z"/>
			<path fill="none" stroke="#2E3192" stroke-width="0.25" stroke-miterlimit="10" d="M116.8,253.3L116.8,253.3
				c0.4,0.6,0.8,1.3,1.2,1.9c0.4,0.7,0.7,1.4,0.9,2.2c-0.8-1.1-1.6-2.3-2.4-3.4"/>
			<path fill="none" stroke="#2E3192" stroke-width="0.25" stroke-miterlimit="10" d="M285.1,524.3c-12.9-6.2-26-11.6-40.5-7.7
				c-1,0.3-1.9,1-2.6,1.8c-0.1,0-0.2-0.1-0.3-0.1c3.1-2.2,1.9-8.6-3.1-9.2c-5.9-0.8-12.1-3.5-18.2-6.2c-0.5-1.3-1.5-2.4-3.1-2.9
				c-14-4.4-24.8-14.8-37.1-22.3c-1.2-5.5-4.5-10.2-11.2-11.8c-0.9-0.2-1.8-0.3-2.6-0.4c-0.8-1.5-2.2-2.7-3.9-2.9"/>
			<path fill="none" stroke="#2E3192" stroke-width="0.25" stroke-miterlimit="10" d="M237,546.6c9.2,4.8,18.5,9.4,28.1,13.5
				c-0.1,2.3,1.3,4.7,3.6,5.6c7,2.5,14.8,3.2,22.1,3.9c5.4,1.3,10.9,2,16.5,1.6c0.8-0.1,1.5-0.3,2.1-0.6c3.2,0,6.3,0,9.5,0
				c6.4-0.1,12.9-0.4,19.4-1c1.2,0.5,2.5,0.9,3.7,1.4c2.4,0.9,4.5-0.4,5.6-2.4c7.8-0.9,15.5-2.1,23.1-3.6c0.9-0.2,1.6-0.5,2.1-1"/>
			<path fill="none" stroke="#2E3192" stroke-width="0.25" stroke-miterlimit="10" d="M105.1,435.7c-3.5,0.4-6.5,5.1-3.3,8.6
				c6.7,7.6,13.8,14.8,21.1,21.8c0.1,0.6,0.3,1.3,0.8,1.9c1,1.3,2.1,2.6,3.2,3.9c-1.4,0.3-2.8,0.5-4.2,0.8
				c-5.5,1.1-4.3,10.5,1.3,9.8c4-0.5,7.9-1.1,11.9-1.7c5.7,5,11.8,9.5,17.9,14.1c0.5,0.5,1.1,1,1.6,1.4c-2.6,1.8-3.1,6.7,0.1,8.8
				c2.9,1.9,5.8,3.7,8.8,5.3c-3.2,1.9-3.4,7.4,1.1,9.2c10.4,4,21.1,7.6,32.1,9.1c1.8,0.6,3.5,1.2,5.3,1.8"/>
			<path fill="none" stroke="#2E3192" stroke-width="0.25" stroke-miterlimit="10" d="M331.7,532.4c-15.7-1.7-31.3-3.9-46.6-8"/>
			<path fill="none" stroke="#2E3192" stroke-width="0.25" stroke-miterlimit="10" d="M381.3,560.5c1.9-0.7,3.9-1.6,5.8-2.7
				c2.8-1.5,3.1-5.3,1.3-7.6c1.4,0.1,2.8,0.2,4.2,0.3c0.5,0,1,0,1.4-0.1"/>
			<path fill="none" stroke="#2E3192" stroke-width="0.25" stroke-miterlimit="10" d="M497.8,461.5c-0.4,0.1-0.7,0.2-1.1,0.4
				c-6,2.6-11.1,6.7-15.8,11.1c-5.5-1.9-12.8,0-17.4,2.8c-4.3,2.6-8,6.2-11.7,9.5c-5.2,4.8-11.1,8.9-16.9,12.9
				c-22.5,15.6-48.5,27.4-76.3,27.6c-0.6,0-1.1,0.1-1.6,0.3c-9.7-3.6-19.2-8.5-29.7-7.6c-5.2,0.4-6.5,6.3-2.5,9.3
				c2.2,1.7,4.5,3.2,7,4.5"/>
			<path fill="none" stroke="#2E3192" stroke-width="0.25" stroke-miterlimit="10" d="M503.8,494.4c-6.3-0.8-12.6-0.6-18.8,0.2
				c0-0.4,0-0.8,0-1.3c2.7-4.1,4.1-8.5,2.7-13c3-2.8,6.1-5.5,9.6-7.6"/>
			<path fill="none" stroke="#2E3192" stroke-width="0.25" stroke-miterlimit="10" d="M393.9,550.4c0.6,0.1,1.3,0.1,2-0.1
				c20.8-4.5,41.6-9.6,61.6-16.9c9.6-3.5,19.1-7.6,28.1-12.4c7.8-4.1,16.4-9.1,21.6-16.5"/>
			<path fill="none" stroke="#2E3192" stroke-width="0.25" stroke-miterlimit="10" d="M477.8,513.9c-3.2,1.7-6.5,3.2-9.9,4.7
				c2.1-1.5,4.1-3.2,6-5c2.5-2.4,5.1-5.3,7.2-8.5c4.5-0.9,9-1.4,13.5-1.4C489.6,508,483.2,511.1,477.8,513.9z"/>
			<path fill="none" stroke="#2E3192" stroke-width="0.25" stroke-miterlimit="10" d="M220,71.9c-6.5-2.2-13-4.4-19.5-6.6
				c-2.4-0.8-4.4,0.5-5.5,2.3c-1.8-0.4-3.6-0.7-5.3-1c-0.9-0.5-1.8-1-2.6-1.5c-2.3-1.3-4.4-0.8-5.8,0.6c-2.5-0.1-5-0.1-7.4,0
				c-4.9,0.3-6.9,6.6-2.5,9.3c3.1,1.9,6.3,3.8,9.5,5.6c-0.1,0-0.2-0.1-0.3-0.1c-4-1.5-6.5,2.2-5.9,5.6c-3.1-0.6-6.2-1.1-9.4-1.6
				c-6.2-0.9-9,7.6-2.7,9.6c1,0.3,2,0.6,2.9,0.9c-1.6-0.1-3.3-0.1-5-0.1c-5.4,0-6.9,8.5-1.7,9.7c-0.2,1.7,0.5,3.4,2.5,4.3
				c3.3,1.4,6.6,2.5,10.1,3.6c-9.1,0.4-18.2,1.6-26.9,4c-5.4,1.5-4.4,10,1.3,9.8c1.2,0,2.4-0.1,3.7-0.2c-1.4,0.3-2.9,0.7-4.3,1
				c-5.5,1.4-4.3,9.9,1.3,9.8c1.9,0,3.8-0.1,5.7-0.2c0.6,0.7,1.2,1.4,1.9,2.1c-0.9,2.7,0.4,6,3.1,6.7c-0.8,1-1.6,2.1-2.2,3.2
				c-2.2,3.8,1.4,7.9,5,7.6c1-0.1,2-0.6,2.9-1.5c0.8-0.9,1.7-1.8,2.5-2.6c1.3,1.5,2.6,3.1,3.9,4.6"/>
			<path fill="none" stroke="#2E3192" stroke-width="0.25" stroke-miterlimit="10" d="M179.8,156.7c2.1-3.2,3.7-6.6,5.4-10.1
				c0.8-1.6,1.6-3.4,2.6-4.9c3.7-1.4,7.2-3.3,10.4-6c0.5-0.5,0.9-1,1.1-1.6c3.3-0.7,6.6-1.2,9.9-1.6c7.1,0,14.1-0.4,20.6-3.3
				c2.8-1.2,3.2-5.5,1.3-7.7c2.5,0.1,5,0,7.5-0.1c3.8-0.2,7.9-0.5,11.5-1.9c1.3,0.2,2.6,0.4,3.8,0.6c3.6,0.8,7.1,1.5,10.7,2.2
				c3.3,0.7,5.5-1.5,6.1-4c8.2,0.9,16.3,1.7,24.6,2.2c5.2,0.3,6.5-6.8,2.5-9.3c-2.9-1.8-6-3.5-9.1-5.1c0.6-1.6,0.3-3.4-1.3-4.8
				c-1.4-1.3-3-2.5-4.6-3.5"/>
			<path fill="none" stroke="#2E3192" stroke-width="0.25" stroke-miterlimit="10" d="M174.5,146.1c-0.2,0.4-0.3,0.8-0.5,1.1
				c-0.2-0.2-0.4-0.5-0.6-0.7C173.7,146.3,174.1,146.2,174.5,146.1z"/>
			<path fill="none" stroke="#2E3192" stroke-width="0.25" stroke-miterlimit="10" d="M259.2,106.8c-0.2-0.8-0.5-1.6-1-2.3
				c0.3,0,0.5-0.1,0.8-0.1c0.8,0.3,1.5,0.6,2.3,0.9c0.8,0.3,1.7,0.6,2.5,0.9c1.6,0.6,3.2,1.2,4.7,1.9
				C265.4,107.7,262.3,107.2,259.2,106.8z"/>
			<path fill="none" stroke="#2E3192" stroke-width="0.25" stroke-miterlimit="10" d="M318.4,58.3c-13.8,0.5-27.5,2.3-40.5,6.3
				c-2.3,0.7-3.4,2.4-3.5,4.2c-1,0.1-2.1,0.3-3.1,0.5c-2.1,0.3-3.3,2-3.5,3.8c-5.2-0.5-10.9-0.8-16.1,0.1
				c-10.5-0.8-21.1-1.2-31.6-1.4"/>
			<path fill="none" stroke="#2E3192" stroke-width="0.25" stroke-miterlimit="10" d="M563.9,395.3c-0.1-0.2-0.2-0.4-0.2-0.6
				c1.3-0.6,2.5-1.8,3-3.2c0.3-0.7,0.5-1.4,0.8-2c3.8,1.4,8.1-2.5,6.1-7.1c-1.4-3.1-2.8-6.2-4.3-9.2c-0.3-4.5-1.2-8.9-2.4-13.3
				c1.5-1.4,2.6-3.1,3.3-4.6c1.7-3.9,1.8-8,1.3-12.1c1.6-3.7,1.9-7.7,1.4-11.9c0.3-1,0.4-2,0.5-3c1.8-6.3,0.4-13.9-0.5-20.1
				c-0.6-3.9-1.3-7.7-2.2-11.5c2-7-0.1-15.2-1.7-22c-1.6-6.6-3.6-13-6.2-19.2c0-0.2,0-0.3,0-0.5c-0.9-13.2-2.9-27.2-8.4-39.2
				c2.5-1.4,3.8-4.9,1.2-7.8c-3-3.4-6.3-6.5-9.7-9.4c-0.8-0.8-1.6-1.7-2.5-2.5c-1.6-5.3-3.4-10.5-5.4-15.7c-0.9-2.3-1.9-4.7-3.1-6.9
				c5.6,1.4,11.4,2.1,17.2,1.8c4.1-0.2,6.9-5.4,3.5-8.5c-17.3-15.9-37.2-27.9-58.3-37.9c-0.2-0.5-0.6-1-1-1.5
				c-12.8-11.9-28.5-19.8-44.3-27.5c-0.2-0.7-0.6-1.3-1.1-1.9c-20.8-22.6-53.9-32.9-83.4-36.7c-5.6-0.7-11.3-1.4-17.1-1.9"/>
			<path fill="none" stroke="#2E3192" stroke-width="0.25" stroke-miterlimit="10" d="M567.9,416.3c1.8-1.1,3-3.2,2.2-5.5
				c-1.1-2.8-2.2-5.6-3.3-8.4"/>
			<path fill="none" stroke="#2E3192" stroke-width="0.25" stroke-miterlimit="10" d="M572.1,433.6c-1.4-4.3-3.3-8.5-5.2-12.7"/>
			<path fill="none" stroke="#2E3192" stroke-width="0.25" stroke-miterlimit="10" d="M282.9,97.8c10.7-1.3,21.5-2.1,32.4-1.9
				c2.6,0.1,4.2-1.7,4.7-3.8c0-0.1,0-0.1,0-0.2c0.1,0.1,0.2,0.1,0.3,0.2c28.9,15.6,62.4,25,94.9,27.1c1.6,0.1,2.7-0.4,3.5-1.3
				c4.4,1.7,8.9,3.4,13.4,4.9c0,0,0,0,0,0c0.7,0.3,1.4,0.5,2.1,0.7c-0.1,0.1-0.2,0.2-0.3,0.3c-1.7,1.8-2.3,4.9-0.3,7.2
				c20.1,23.1,39.9,46.5,57.9,71.3c9.1,12.6,17.7,25.5,25.7,38.8c2.6,4.4,5.6,8.7,8.3,13.2c1.6,7.1,3.6,14,6,20.8
				c-0.6,1.1-0.9,2.4-0.5,3.7c2.7,9.2,4.2,18.7,6.3,28c-2.2-1.1-4.8,0-6.2,1.9c-0.4-0.5-0.7-1-1.1-1.5c-3.3-4.1-9.5,0.4-8.4,4.9
				c2,8.1,4.5,16,7.3,23.8c-0.9-1.5-1.9-2.9-2.8-4.3c-3.3-4.8-10.1-1.5-9.2,3.5"/>
			<path fill="none" stroke="#2E3192" stroke-width="0.25" stroke-miterlimit="10" d="M501.4,141.9c12.2,6.2,23.9,13.3,34.7,21.6
				c-9.2-2.4-18.1-6.9-26.4-12.1"/>
			<path fill="none" stroke="#2E3192" stroke-width="0.25" stroke-miterlimit="10" d="M516.8,221.9c-4.7-7.3-9.4-14.6-14.5-21.8
				c-13.1-18.4-27.2-36-41.8-53.2c1.1,0.7,2.2,1.4,3.3,2.1c0.2,0.1,0.3,0.2,0.5,0.3c5.4,5.2,11,10.3,16.5,15.4
				c1.9,2.3,3.6,4.7,5.3,7.1c10.1,14.8,17.4,32,30.2,44.7"/>
			<path fill="none" stroke="#2E3192" stroke-width="0.25" stroke-miterlimit="10" d="M497.4,472.8c0.6,1.2,1.6,2.2,2.9,2.7
				c1.1,6.3,2.3,12.6,3.5,18.9"/>
			<path fill="none" stroke="#2E3192" stroke-width="0.25" stroke-miterlimit="10" d="M517.1,335.1c-3-0.5-6.5,2.7-6,6.4
				c0.7,5.1,1.9,10.3,3.2,15.4c-2.8-3.1-8.9-1.4-8.7,3.3c0.2,6.6,2,12.9,3.5,19.3c0.2,1,0.5,2,0.7,3c-2.3-2-4.9-3.7-7.8-4.5
				c-0.9-7.3-2-14.6-3.3-21.9c-0.9-4.9-7.6-4.4-9.4-0.6c-1.4-2.9-2.9-5.7-4.4-8.6c-2.7-5-10.9-1.6-9.1,3.9
				c3.7,11.4,5.2,23.5,7.6,35.3c0.2,1.2,0.5,2.3,0.7,3.5c-1.1,3.8-1.6,8-1.8,11.6c-0.5,10.5-1.7,20.3,1,30.6
				c2,7.5,6.2,14.4,12.6,18.8c0.7,3.6,1.3,7.3,2,10.9"/>
			<path fill="none" stroke="#2E3192" stroke-width="0.25" stroke-miterlimit="10" d="M566.8,402.4c-0.5-2.3-1.5-4.8-2.9-7.1"/>
			<path fill="none" stroke="#2E3192" stroke-width="0.25" stroke-miterlimit="10" d="M567,420.9c0.5-1.4,0.8-3,0.9-4.6"/>
			<path fill="none" stroke="#2E3192" stroke-width="0.25" stroke-miterlimit="10" d="M507.3,504.6c3,1.5,7.7-0.3,7.6-4.4
				c-0.2-9.3-2.1-18.3-3.6-27.4c3.5-0.9,7-1.6,10.3-3.1c2.4,7,4.9,14,7.5,21c4.7,12.6,9.3,27,19.3,36.5c3.3,3.1,8.3,0.8,8.5-3.5
				c0.3-5.7,0.3-11.4,0.2-17c1.5-0.7,2.5-2.1,2.5-4.3c-0.1-2.9-0.2-5.7-0.3-8.5c2.5,0.5,5.5-0.9,6.3-3.3c0.5,0.8,0.9,1.6,1.4,2.4
				c3.1,5,10.3,1.6,9.1-3.9c-2.5-12.4-5.7-24.6-9.2-36.7c2.6-0.7,5.1-1.7,7.6-3c1.9-0.9,2.6-2.5,2.5-4c0.8-1.4,1-3.2-0.1-4.8
				c-1.4-2.3-3-4.5-4.8-6.7"/>
			<path fill="none" stroke="#2E3192" stroke-width="0.25" stroke-miterlimit="10" d="M514.7,410.2c-0.5-1.5-0.9-3-1.3-4.5
				c0-0.2-0.1-0.4-0.1-0.6c0.7,1.5,1.3,2.9,1.9,4.4"/>
			<path fill="none" stroke="#2E3192" stroke-width="0.25" stroke-miterlimit="10" d="M507.4,394.6c0.1,0.2,0.3,0.4,0.4,0.6
				c-0.4,0-0.8,0.1-1.2,0.2c-0.4-0.9-0.7-1.8-1.1-2.8c-0.1-0.3-0.3-0.7-0.4-1C505.9,392.6,506.7,393.6,507.4,394.6z"/>
			<path fill="none" stroke="#2E3192" stroke-width="0.25" stroke-miterlimit="10" d="M529.8,462.8c0.8-1.1,1.6-2.3,2.3-3.6
				c0.1,0.2,0.2,0.4,0.2,0.6c0.3,0.8,0.7,1.6,1,2.4c3.4,13,6.7,26.1,13.6,37.5c0,0.4,0.1,0.8,0.1,1.1c0.1,2.6,0.2,5.2,0.2,7.8
				c-4.4-8.2-7.3-17.8-10.3-26C534.4,476.2,532.1,469.5,529.8,462.8z"/>
			<path fill="none" stroke="#2E3192" stroke-width="0.25" stroke-miterlimit="10" d="M372.7,564c1.8,0.2,3.5,0.1,5.2-0.3
				c1.5-0.4,2.8-1.6,3.4-3.1"/>
			<path fill="none" stroke="#2E3192" stroke-width="0.25" stroke-miterlimit="10" d="M202.7,530.6c11.2,5.8,22.8,10.8,34.3,16"/>
			<path fill="none" stroke="#2E3192" stroke-width="0.25" stroke-miterlimit="10" d="M104.7,434.6c0.1,0.4,0.2,0.7,0.3,1.1"/>
			<path fill="none" stroke="#2E3192" stroke-width="0.25" stroke-miterlimit="10" d="M127.2,227.2c1.1-0.1,2.1-0.4,3.2-0.7"/>
			<path fill="none" stroke="#2E3192" stroke-width="0.25" stroke-miterlimit="10" d="M85.2,207.3c-0.8,1.8-1.5,3.7-2.1,5.5
				c-0.7,2.2,0.4,4.3,2.1,5.4"/>
			<path fill="none" stroke="#2E3192" stroke-width="0.25" stroke-miterlimit="10" d="M149.3,159c-0.1-0.2-0.3-0.4-0.4-0.7
				c-2.2-3.7-6.8-2.7-8.6,0.1"/>
			<path fill="none" stroke="#2E3192" stroke-width="0.25" stroke-miterlimit="10" d="M153.2,169.2c-0.1-0.3-0.1-0.5-0.2-0.8"/>
			<path fill="none" stroke="#2E3192" stroke-width="0.25" stroke-miterlimit="10" d="M350.3,59.4c-10.1-3.9-20.2-7.7-30.4-11.4
				c-5.4-1.9-8.8,6.5-3.9,9.1c0.8,0.4,1.6,0.8,2.4,1.2"/>
			<path fill="none" stroke="#2E3192" stroke-width="0.25" stroke-miterlimit="10" d="M516.2,216.6c0.1,1.4,0.3,2.9,0.5,4.3
				c0,0.3,0.1,0.7,0.1,1"/>
			<path fill="none" stroke="#2E3192" stroke-width="0.25" stroke-miterlimit="10" d="M509.8,151.3c-2.7-3.2-5.5-6.4-8.3-9.4"/>
			<path fill="none" stroke="#2E3192" stroke-width="0.25" stroke-miterlimit="10" d="M515.2,409.5c-0.2,0.2-0.3,0.4-0.5,0.7"/>
		</g>
	</g>
</g>
<path fill="none" stroke="#FFF200" stroke-width="7.6564" stroke-miterlimit="10" d="M413.2,308.2C413,342,406,382,376.4,403"/>
<ellipse fill="#FFF200" stroke="#FFF200" stroke-width="1.0299" stroke-miterlimit="10" cx="413.2" cy="308.6" rx="3.3" ry="3.1"/>
<circle fill="#FFF200" stroke="#FFF200" stroke-width="1.244" stroke-miterlimit="10" cx="375.8" cy="403.3" r="3.2"/>
<line fill="none" stroke="#FFF200" stroke-width="7.656" stroke-miterlimit="10" x1="75" y1="158.2" x2="111" y2="149"/>
<path fill="none" stroke="#FFF200" stroke-width="7.3722" stroke-miterlimit="10" d="M236.3,509.3c8,2.8,16.1,5.2,24.4,7"/>
<path fill="none" stroke="#FFF200" stroke-width="7.656" stroke-miterlimit="10" d="M100,316.2c0,41.7,12.9,83,36.8,117.2
	c21.9,31.3,52.5,56.2,87.7,71.2"/>
<circle fill="#FFF200" stroke="#FFF200" stroke-width="1.244" stroke-miterlimit="10" cx="100" cy="316.2" r="3.2"/>
<circle fill="#FFF200" stroke="#FFF200" stroke-width="1.244" stroke-miterlimit="10" cx="224.5" cy="504.7" r="3.2"/>
<circle fill="#FFF200" stroke="#FFF200" stroke-width="1.244" stroke-miterlimit="10" cx="236.3" cy="509.3" r="3.2"/>
<circle fill="#FFF200" stroke="#FFF200" stroke-width="1.244" stroke-miterlimit="10" cx="260.7" cy="516.2" r="3.2"/>
<circle fill="#FFF200" stroke="#FFF200" stroke-width="1.244" stroke-miterlimit="10" cx="111" cy="149" r="3.2"/>
<circle fill="#FFF200" stroke="#FFF200" stroke-width="1.244" stroke-miterlimit="10" cx="75" cy="158.2" r="3.2"/>
<path fill="none" stroke="#FFF200" stroke-width="7.656" stroke-miterlimit="10" d="M563.5,289.9c-5.2-42.2-20.4-82.9-44.2-118.1
	c-22.7-33.6-53-61.9-88.1-82.1c-20.1-11.6-41.7-20.5-64.2-26.4"/>
<circle fill="#FFF200" stroke="#FFF200" stroke-width="1.244" stroke-miterlimit="10" cx="367" cy="63.3" r="3.2"/>
<circle fill="#FFF200" stroke="#FFF200" stroke-width="1.244" stroke-miterlimit="10" cx="563.5" cy="289.9" r="3.2"/>
</svg>
