<?xml version="1.0" encoding="utf-8"?>
<!-- Generator: Adobe Illustrator 19.2.1, SVG Export Plug-In . SVG Version: 6.00 Build 0)  -->
<svg version="1.1" id="Layer_1" xmlns="http://www.w3.org/2000/svg" xmlns:xlink="http://www.w3.org/1999/xlink" x="0px" y="0px"
	 viewBox="0 0 184.5 170.3" style="enable-background:new 0 0 184.5 170.3;" xml:space="preserve">
<style type="text/css">
	.st0{fill:#FDD301;}
	.st1{fill:#1D144E;}
</style>
<g>
	<path class="st0" d="M97.3,65.9c-11.1,0-20.2,9.1-20.2,20.2c0,11.1,9.1,20.2,20.2,20.2c11.1,0,20.2-9.1,20.2-20.2
		C117.6,75,108.5,65.9,97.3,65.9L97.3,65.9z M97.3,100.8c-8.1,0-14.7-6.6-14.7-14.7c0-8.1,6.6-14.7,14.7-14.7
		c8.1,0,14.7,6.6,14.7,14.7C112.1,94.2,105.5,100.8,97.3,100.8L97.3,100.8z M97.3,100.8"/>
	<path class="st0" d="M97.3,77.5c-1.5,0-2.7,1.2-2.7,2.7c0,1.5,1.2,2.7,2.7,2.7c1.7,0,3.1,1.4,3.1,3.1c0,1.5,1.2,2.7,2.7,2.7
		s2.7-1.2,2.7-2.7C105.9,81.4,102.1,77.5,97.3,77.5L97.3,77.5z M97.3,77.5"/>
	<path class="st1" d="M181.6,86.1c0-9-9.1-17.2-25.7-23.2c-0.5-0.2-1-0.3-1.4-0.5c0.2-0.5,0.4-0.9,0.7-1.4
		c7.5-15.9,8.2-28.2,1.8-34.5c-6.4-6.4-18.6-5.7-34.5,1.8c-0.5,0.2-0.9,0.4-1.4,0.7c-0.2-0.5-0.3-1-0.5-1.4
		C114.6,11,106.4,1.8,97.3,1.8c-9,0-17.2,9.1-23.2,25.7c-0.2,0.5-0.3,1-0.5,1.4c-0.5-0.2-0.9-0.4-1.4-0.7
		c-15.9-7.5-28.2-8.2-34.5-1.8c-6.4,6.4-5.7,18.6,1.8,34.5c0.2,0.5,0.4,0.9,0.7,1.4c-0.5,0.2-1,0.3-1.4,0.5
		c-16.6,5.9-25.7,14.1-25.7,23.2c0,9,9.1,17.2,25.7,23.2c0.5,0.2,1,0.3,1.4,0.5c-0.2,0.5-0.4,0.9-0.7,1.4
		c-7.5,15.9-8.2,28.2-1.8,34.5c2.9,2.9,7,4.4,12.2,4.4c6.1,0,13.7-2.1,22.3-6.1c0.5-0.2,0.9-0.4,1.4-0.7c0.2,0.5,0.3,1,0.5,1.4
		c5.9,16.6,14.1,25.7,23.2,25.7c9,0,17.2-9.1,23.2-25.7c0.2-0.5,0.3-1,0.5-1.4c0.5,0.2,0.9,0.4,1.4,0.7c8.6,4.1,16.2,6.2,22.3,6.1
		c5.1,0,9.3-1.4,12.2-4.4c6.4-6.4,5.7-18.6-1.8-34.5c-0.2-0.5-0.4-0.9-0.7-1.4c0.5-0.2,1-0.3,1.4-0.5
		C172.5,103.3,181.6,95.1,181.6,86.1L181.6,86.1z M124.7,33.2c7.9-3.8,14.8-5.7,20-5.7c3.6,0,6.5,0.9,8.4,2.8
		c4.6,4.6,3.5,14.9-2.9,28.3c-0.3,0.7-0.7,1.4-1,2.1c-6.7-1.9-14.1-3.5-22-4.5c-1.1-7.9-2.6-15.3-4.5-22
		C123.4,33.9,124,33.6,124.7,33.2L124.7,33.2z M123.7,86.1c0,3.7-0.1,7.3-0.3,10.8c-2.4,2.6-4.9,5.3-7.5,7.8
		c-2.6,2.6-5.2,5.1-7.8,7.5c-3.6,0.2-7.2,0.3-10.8,0.3c-3.7,0-7.3-0.1-10.8-0.3c-2.6-2.4-5.3-4.9-7.8-7.5c-2.6-2.6-5.1-5.2-7.5-7.8
		c-0.2-3.6-0.3-7.2-0.3-10.8c0-3.7,0.1-7.3,0.3-10.8c2.4-2.6,4.9-5.3,7.5-7.8c2.6-2.6,5.2-5.1,7.8-7.5c3.6-0.2,7.2-0.3,10.8-0.3
		c3.7,0,7.3,0.1,10.8,0.3c2.6,2.4,5.3,4.9,7.8,7.5c2.6,2.6,5.1,5.2,7.5,7.8C123.6,78.8,123.7,82.4,123.7,86.1L123.7,86.1z
		 M119.9,63.6c-1-1-2.1-2-3.1-3c1.9,0.2,3.7,0.4,5.6,0.6c0.2,1.8,0.4,3.7,0.6,5.6C121.9,65.6,120.9,64.6,119.9,63.6L119.9,63.6z
		 M110.4,54.6c-2.8-2.5-5.7-5-8.6-7.3c5.4-4,10.7-7.5,15.9-10.5c1.6,5.7,2.9,12,3.9,18.7C117.9,55.1,114.2,54.8,110.4,54.6
		L110.4,54.6z M101.7,54.3c-1.4,0-2.9,0-4.3,0c-1.4,0-2.9,0-4.3,0c1.4-1.2,2.9-2.4,4.3-3.5C98.8,51.9,100.2,53.1,101.7,54.3
		L101.7,54.3z M84.3,54.6c-3.8,0.2-7.6,0.5-11.2,0.9c1-6.7,2.3-12.9,3.9-18.7c5.2,2.9,10.5,6.4,15.9,10.5
		C90,49.6,87.2,52.1,84.3,54.6L84.3,54.6z M77.9,60.5c-1,1-2.1,2-3.1,3c-1,1-2,2.1-3,3.1c0.2-1.9,0.4-3.7,0.6-5.6
		C74.2,60.9,76,60.7,77.9,60.5L77.9,60.5z M65.9,73c-2.5,2.8-5,5.7-7.3,8.6c-4-5.4-7.5-10.7-10.5-15.9c5.7-1.6,12-2.9,18.7-3.9
		C66.4,65.5,66.1,69.2,65.9,73L65.9,73z M65.5,81.8c0,1.4,0,2.9,0,4.3c0,1.4,0,2.9,0,4.3c-1.2-1.4-2.4-2.9-3.5-4.3
		C63.2,84.6,64.3,83.2,65.5,81.8L65.5,81.8z M65.9,99.1c0.2,3.8,0.5,7.6,0.9,11.2c-6.7-1-12.9-2.3-18.7-3.9
		c2.9-5.2,6.4-10.5,10.5-15.9C60.9,93.4,63.3,96.3,65.9,99.1L65.9,99.1z M71.8,105.5c1,1,2,2.1,3,3.1c1,1,2.1,2,3.1,3
		c-1.9-0.2-3.7-0.4-5.6-0.6C72.2,109.2,72,107.4,71.8,105.5L71.8,105.5z M84.3,117.6c2.8,2.5,5.7,5,8.6,7.3
		c-5.4,4-10.7,7.5-15.9,10.5c-1.6-5.7-2.9-12-3.9-18.7C76.8,117,80.5,117.4,84.3,117.6L84.3,117.6z M93,117.9c1.4,0,2.9,0,4.3,0
		c1.4,0,2.9,0,4.3,0c-1.4,1.2-2.9,2.4-4.3,3.5C95.9,120.3,94.5,119.1,93,117.9L93,117.9z M110.4,117.6c3.8-0.2,7.6-0.5,11.2-0.9
		c-1,6.6-2.3,12.9-3.9,18.7c-5.2-2.9-10.5-6.4-15.9-10.5C104.7,122.5,107.5,120.1,110.4,117.6L110.4,117.6z M116.8,111.6
		c1-1,2.1-2,3.1-3c1-1,2-2.1,3-3.1c-0.2,1.9-0.4,3.7-0.6,5.6C120.5,111.3,118.7,111.5,116.8,111.6L116.8,111.6z M128.8,99.1
		c2.5-2.8,5-5.7,7.3-8.6c4,5.4,7.5,10.7,10.5,15.9c-5.7,1.6-12,2.9-18.7,3.9C128.3,106.7,128.6,102.9,128.8,99.1L128.8,99.1z
		 M129.2,90.4c0-1.4,0-2.9,0-4.3c0-1.4,0-2.9,0-4.3c1.2,1.4,2.4,2.9,3.5,4.3C131.5,87.5,130.4,89,129.2,90.4L129.2,90.4z M128.8,73
		c-0.2-3.8-0.5-7.6-0.9-11.2c6.6,1,12.9,2.3,18.7,3.9c-2.9,5.2-6.4,10.5-10.5,15.9C133.8,78.8,131.4,75.9,128.8,73L128.8,73z
		 M79.3,29.4c5-14,11.6-22.1,18-22.1c6.4,0,13,8,18,22.1c0.3,0.7,0.5,1.4,0.7,2.2c-6.1,3.4-12.4,7.5-18.8,12.3
		c-6.3-4.8-12.7-9-18.8-12.3C78.8,30.8,79.1,30.1,79.3,29.4L79.3,29.4z M44.5,58.7c-6.4-13.5-7.4-23.8-2.9-28.3
		c1.9-1.9,4.7-2.8,8.4-2.8c5.2,0,12.1,1.9,20,5.7c0.7,0.3,1.4,0.7,2.1,1c-1.9,6.7-3.5,14.1-4.5,22c-7.9,1.1-15.3,2.6-22,4.5
		C45.2,60.1,44.8,59.4,44.5,58.7L44.5,58.7z M40.6,104.1c-14-5-22.1-11.6-22.1-18s8-13,22.1-18c0.7-0.3,1.4-0.5,2.2-0.7
		c3.4,6.1,7.5,12.4,12.3,18.8c-4.8,6.3-9,12.7-12.3,18.8C42.1,104.6,41.3,104.4,40.6,104.1L40.6,104.1z M70,138.9
		c-13.5,6.4-23.8,7.4-28.3,2.9c-4.6-4.6-3.5-14.9,2.9-28.3c0.3-0.7,0.7-1.4,1-2.1c6.7,1.9,14.1,3.5,22,4.5c1.1,7.9,2.6,15.3,4.5,22
		C71.3,138.3,70.7,138.6,70,138.9L70,138.9z M115.4,142.8c-5,14-11.6,22.1-18,22.1c-6.4,0-13-8-18-22.1c-0.3-0.7-0.5-1.4-0.7-2.2
		c6.1-3.4,12.4-7.5,18.8-12.3c6.3,4.8,12.7,9,18.8,12.3C115.9,141.4,115.6,142.1,115.4,142.8L115.4,142.8z M150.2,113.5
		c6.4,13.5,7.4,23.8,2.9,28.3c-4.6,4.6-14.9,3.5-28.3-2.9c-0.7-0.3-1.4-0.7-2.1-1c1.9-6.7,3.5-14.1,4.5-22c7.9-1.1,15.3-2.6,22-4.5
		C149.5,112.1,149.9,112.8,150.2,113.5L150.2,113.5z M139.6,86.1c4.8-6.3,9-12.7,12.3-18.8c0.7,0.2,1.5,0.5,2.2,0.7
		c14,5,22.1,11.6,22.1,18s-8,13-22.1,18c-0.7,0.3-1.4,0.5-2.2,0.7C148.5,98.8,144.4,92.4,139.6,86.1L139.6,86.1z M139.6,86.1"/>
</g>
</svg>
