<?xml version="1.0" encoding="utf-8"?>
<!-- Generator: Adobe Illustrator 18.0.0, SVG Export Plug-In . SVG Version: 6.00 Build 0)  -->
<!DOCTYPE svg PUBLIC "-//W3C//DTD SVG 1.1//EN" "http://www.w3.org/Graphics/SVG/1.1/DTD/svg11.dtd">
<svg version="1.1" id="Layer_1" xmlns="http://www.w3.org/2000/svg" xmlns:xlink="http://www.w3.org/1999/xlink" x="0px" y="0px"
	 viewBox="0 0 1000 1000" enable-background="new 0 0 1000 1000" xml:space="preserve">
<g>
	<g>
		<g id="XMLID_1_">
			<g>
				<path fill="#FFFFFF" d="M201.9,365.5L201.9,365.5c-2.7-2.2-5.6-4.2-8-6.7c-2.9-2.9-5.5-6.1-8.2-9.3c-1.5-1.8-2.8-3.9-4.5-5.5
					c-2.7-2.5-5.7-4.6-8.6-6.9c-0.9-0.7-2-1.3-2.8-2.2c-6.3-6.9-12.1-14.5-19.1-20.6c-5.8-5.1-10.6-11.2-16.4-16.2
					c-2.2-1.9-2-7-0.1-9c3.2-3.3,6.4-6.5,9.7-9.7c4.4-4.3,8.9-8.5,13.3-12.7c2.1-2,4.9-3.7,5.8-6.2c0.9-2.4,1.9-2.8,3.9-2.9
					c0.7,0,1.4-0.9,2.5-1.6c-1.4-0.4-1.9-0.6-2.2-0.7c2.4-2,4.9-4,7.3-6c-0.3-0.1-0.7-0.4-0.9-0.5c4-3.3,8.3-6.3,12-10
					c2.3-2.3,3.9-5,6.8-7c3.1-2.2,5.2-2.8,7.9-0.2c2.8,2.7,5.6,5.4,8.4,8c4,3.8,8.1,7.5,12,11.4c4.4,4.4,8.6,9,12.9,13.6
					c3.8,4,7.7,8.1,11.5,12.1c4,4.2,8.1,8.4,12.2,12.5c4.2,4.2,8.6,8.3,12.8,12.5c1.6,1.6,2.8,3.8,4.3,5.4s3.5,2.7,5,4.3
					c3.8,4.1,8.9,6.9,14.8,1.9c1.7-1.4,3.1-3.1,4.9-4.4c4.5-3.3,7.3-8.2,11.9-11.5c4.5-3.3,7.9-8.2,11.8-12.4
					c1.6-1.7,3.6-3.1,5.3-4.8c1.6-1.7,3-3.8,4.6-5.6c0.9-0.9,11.6-11.8,12.5-13.2c0.4-0.5,1-0.8,1.5-1.3c1.7-1.7,3.3-3.5,5.1-5.2
					c2.9-2.8,5.7-5.7,8.7-8.4c2.9-2.6,7.1-4.5,8.5-7.7c1.6-3.6,4.7-4.9,6.8-7.7c1.8-2.4,8.5-1.7,10.5,0.6c2.2,2.7,4.9,4.8,7,7.8
					c1.4,2,4,4,6.1,6.1c1.5,1.5,3.2,2.7,4.7,4.1c3.1,3.1,6.2,6.4,9.3,9.5c2.5,2.5,5,4.9,7.6,7.3c0.1,0.1,0.2,0.2,0.3,0.3
					c4.9,4.9,9.7,9.8,14.5,14.8c0.7,0.7,1.1,2.1,1.7,2.2c3.8,0.5,4.5,3.8,6,6.3c0.6,1.1,1.2,3,0.6,3.9c-1.4,2.2-3.3,4-5.1,5.9
					c-4.1,4.3-8.1,8.6-12.4,12.8c-2.7,2.6-5.8,4.8-8.4,7.5c-2.7,2.9-4.8,6.4-7.6,9.1c-2.9,2.9-6.7,4.9-9.6,7.8
					c-4,4-7.5,8.5-11.3,12.6c-2,2.2-4.1,4.2-6.1,6.3c-1.5,1.5-2.7,4.1-4.4,4.4c-3.1,0.6-3.4,3.7-5.7,4.9c-1.9,1-2.8,3.9-4.4,5.5
					c-2.9,2.9-6.5,5.1-9.1,8.2c-1.4,1.7-1.7,4.6-1.8,7c-0.3,5.8,4.9,8.2,8.1,11.8c2,2.3,4.3,4.4,6.4,6.6c1.8,2,3.4,4.3,5.3,6.2
					c2.7,2.6,5.7,4.7,8.4,7.3c3.6,3.5,6.9,7.2,10.5,10.7c6.5,6.4,13.2,12.6,19.7,19c4.1,4.1,7.6,8.8,12.1,12.4s6.1,10,12.2,11.9
					c0.5,0.1,0.6,1.1,1.1,1.5c2.1,2.1,4,5.4,6.5,5.9c5.8,1.1,11.9,1.1,17.9,1.2c7,0.1,12.6-5.8,12.6-12.7c0-26.3,0.4-52.6-0.1-78.8
					c-0.5-26.1,0.9-52.1-1.1-78.2c-1.7-21.9-0.4-44-0.3-66c0-3,1-5.9,1-8.9c-0.1-5.6-0.9-11.2-0.9-16.9c0-2.7,1.4-5.4,1.4-8.1
					c0.1-37.7,0.1-75.5,0-113.2c0-1.6-0.6-3.3-1-4.9c0,0,0.5-0.1,0.6-0.2c-1.5-1.4-2.9-2.8-4.3-4.1c0.2-0.3,0.5-0.5,0.7-0.8
					c-3.7-0.6-7.5-1.6-11.2-1.6C343.2,86,222.6,86,102.1,86c-0.7,0-1.3,0-2,0c-9.3,0.2-14,4.9-14,13.9c0.2,30.1,0.7,60.2,0.8,90.3
					c0.1,83.4,0,166.7,0,250.1c0,10.8,0,21.6,0,32.4c0,1-0.2,2.5,0.4,3c3.5,3,7.4,5,12.3,4.9c7.2-0.1,14.4,0.1,21.6-0.1
					c3.4-0.1,6.9-0.4,9.8-2.8c0.9-0.8,2.4-0.9,3.6-1.4c-0.3-0.2-0.6-0.4-0.9-0.6c0.8-0.7,1.6-1.5,2.5-2.2c0.4-0.3,1-0.3,1.6-0.4
					c-1.3-2.8,1.5-3.1,2.7-4.3c1.3-1.2,2.7-2.2,4-3.4c0.9-0.9,1.8-1.9,2.6-2.9c0.9-0.6,1.1-2,1.8-2.7c3.3-3.4,7-6.4,10.2-10.1
					c4.8-5.5,10.3-10.5,15.6-15.6c2.3-2.3,5.1-4.1,7.3-6.5c5.3-5.6,10.3-11.5,15.5-17.2c1.3-1.4,3.3-2.2,4.7-3.6
					c4.3-4.2,8.3-8.8,12.9-12.7c1.4-1.1,1.9-2.1,2.3-3.5c0.3-1.1,0.8-2.2,0.9-3.4c0.2-1.6,0.2-3.2,0.1-4.8c-0.1-6.5-8.4-5.7-10-11.5
					c-0.6-2.3-4.7-3.7-7.5-5.7C201.4,365.7,201.8,365.5,201.9,365.5z M956.3,42.9c0,319.1,0,638.1,0,957.1c-318.3,0-636.5,0-954.7,0
					c0-319.1,0-638.1,0-957.1C319.9,42.9,638.1,42.9,956.3,42.9z M915.7,466c8.1-0.8,10-3.7,6.9-10.8c-3.2-7.2-7.4-13.9-11.1-20.9
					c-3.9-7.4-7.9-14.7-11.7-22.2c-3.3-6.5-6.4-13.1-9.7-19.6c-3.8-7.4-7.6-14.7-11.5-22c-4.3-8.1-9.1-15.9-13-24.2
					c-3.5-7.6-9.1-8.5-16.5-8.4c-67.9,0.2-135.8,0.1-203.6,0.1c-12,0-24-0.1-36,0c-4.8,0-8.8,1.5-10.8,6.4c-0.9,2.1-2.2,4-3.3,6
					c-3.7,6.7-7.5,13.3-11.1,20.1c-3.8,7.3-7.3,14.7-11.1,22.1c-3,5.8-6.1,11.5-9.1,17.3c-4.7,8.7-9.4,17.4-14,26.2
					c-3.5,6.7-7,13.5-10.1,20.4c-2.1,4.6-0.4,8,4.5,8.5c6.7,0.8,13.5,0.8,20.3,0.8c115.8,0,231.5,0,347.3,0
					C913.3,466,914.6,466.1,915.7,466z M911.7,620.4c0-14.1-0.7-28.2-0.7-42.3c0-7.2-2.4-10.3-10.8-10.3
					c-38.5-0.2-77.1-0.1-115.6-0.1c-6.1,0-9.7,3.6-9.7,9.5c0,4,0,8,0,12c0,11.9,0,23.7,0,35.6c0,3.1-0.7,6-4.6,6.1
					c-14.6,0.4-29.3,0.9-43.9,1c-5.2,0.1-10.5-0.8-15.7-1c-5.1-0.2-5.5-0.4-5.5-5.5c0-16.3,0-32.5-0.1-48.8c0-1.9-0.4-4.8-1.6-5.5
					c-2.8-1.7-6.3-3.3-9.5-3.3c-39.7-0.2-79.5-0.1-119.2-0.1c-6.9,0-11.3,4-11.1,10.6c1,35.2-0.4,70.5,1.1,105.8
					c1.8,44.2,0.5,88.5,0.4,132.8c0,3-1.4,5.9-1.4,8.9c0,3.2,1.3,6.5,1.4,9.7c0.1,23.9,0.1,47.7,0,71.6c0,2.6,0.7,4.6,3,5.6
					c3.6,1.5,7,3.7,11.3,3.1c4.1-0.5,8.2-0.9,12.2-0.8c11.6,0.1,23.1,0.7,34.7,0.7c10.1,0,20.2-0.6,30.3-0.7
					c5.5,0,11.1,0.7,16.7,0.7c4.1,0,8.2-1,12.2-0.6c3.9,0.3,7.5,0.5,11.4-0.8c4.8-1.6,8.3-4.9,8.3-9.9c0-54.5,0-109.1,0-163.6
					c0-1-0.4-2-0.4-2.9c-0.1-3-0.5-6.1,0.2-9c0.3-1,3.3-1.5,5.2-1.9c1.3-0.3,2.7-0.1,4-0.1c18.7,0,37.3,0,56,0
					c3.1,0,5.1,0.6,4.8,4.4c-0.3,3.1,0,6.2,0,9.3c0,27.2,0,54.4,0,81.6c0,27.5,0,54.9,0.1,82.4c0,1.8,0.5,3.9,1.4,5.5
					c2.7,5,8.2,4.8,12.7,5.5c4.4,0.8,9.1,0.3,13.7,0.2c7.4-0.2,14.8-0.8,22.3-0.7c12.5,0.1,25,0.5,37.5,0.7c8.8,0.1,17.6,0.2,26.4,0
					c4.8-0.1,9.7-0.5,14.4-1.7c6.4-1.6,7.7-2.3,7.7-9.8C911.3,809.7,911.5,715,911.7,620.4z M789.1,219.8c5,0,8.1-2.4,6-8.6
					c-2.2-6.3-5.9-12-9-18c-4.7-9.2-9.3-18.3-14-27.5c-4.7-9.1-9.5-18.2-14.2-27.3c-6.9-13.4-13.8-26.8-20.7-40.3
					c-1.3-2.5-3.5-3.7-5.9-2.5c-2.2,1.1-4.7,2.8-5.8,4.9c-5.6,10.4-10.8,21-16.2,31.5c-5.5,10.7-11,21.4-16.5,32
					c-4.3,8.4-8.6,16.8-13.1,25.2c-3.3,6-6.8,11.9-10.3,17.8c-1.9,3.1-2.7,6.5-1.2,9.9c1.3,3,4.5,2.8,7.3,2.8c9.3,0,18.7,0,28,0
					s18.7,0,28,0c5.2,0,10.3,0,15.5,0c5.7,0,11.4,0,17.1,0C772.4,219.7,780.7,219.8,789.1,219.8z M467.1,682.6c-0.2,0-0.4,0-0.6,0
					c-0.4,0.7-0.8,1.4-1.6,2.9c-1-5.4-4-8-8.6-8c-7.3-0.1-14.5,0-21.8,0c-26.4,0-52.8,0-79.2,0c-6.8,0-8.6-1.7-8.5-8.6
					c0-2.9,0.7-5.7,0.7-8.6c0.1-29.2,0.2-58.4,0.1-87.6c0-3.3-0.7-6.5-1.1-9.7c-0.1-0.8-0.6-2.1-1.2-2.3c-2.6-0.8-5.3-1.8-7.9-1.8
					c-35.6-0.1-71.2-0.1-106.8,0c-2.1,0-5.2,0.8-6,2.3c-1.6,2.7-2.5,6.1-2.5,9.2c0.1,30.5,0.4,60.9,0.7,91.4c0,2.6,0.3,5.3,0.6,7.9
					c0.5,5-2,7.8-7,7.8c-24.3,0-48.6,0-72.8,0c-9.6,0-19.3,0-28.9,0c-5.1,0-9.8,2.3-10.4,5.3c-1,4.8-2.2,9.7-2.2,14.5
					c-0.2,31.6-0.1,63.2-0.1,94.8c0,0.9-0.2,2.2,0.4,2.7c2.4,2.2,1.3,5.7,4,8.2c0.3,0,1.4-0.1,2.5-0.2c0.2,0.7,0.4,1.5,0.6,2.4
					c0.5-0.2,0.8-0.4,1-0.4c35.6,0,71.2-0.1,106.8,0c1.5,0,3.7,0.9,4.2,2.1c1,1.9,1.2,4.3,1.2,6.6c0.1,12,0.1,24,0.1,36
					c0,20.7-0.5,41.4,0.2,62c0.3,10.2,2.2,13.1,12.2,12.6c2-0.1,4-0.1,6-0.1c31.3,0,62.7,0,94-0.1c2.6,0,5.3-0.4,7.7-1.4
					c4.1-1.8,3.9-5.8,3.9-9.4c0-27.2-0.2-54.4,0.1-81.6c0.1-8.2-2.4-16.9,2.8-24.6c0.3,0.4,0.6,0.8,0.9,1.1c0.3-0.9,0.6-1.8,1.1-3.3
					c0.5,0,2,0,3.5,0c34.5,0,69.1,0,103.6,0c0.9,0,2.1,0.3,2.8-0.1c1.9-1.1,3.6-2.5,5.6-3.9c-1-0.6-1.6-1-2.2-1.3c0.4,0,0.8,0,1.2,0
					c0.2-1.4,0.7-2.8,0.7-4.1c0-35.5,0-71,0-106.4C466.8,686.7,467,684.6,467.1,682.6z M300.5,481.1c4.5-0.4,8.3-3.8,6.9-7.7
					c-0.8-2.3-2.8-4.3-4.6-6.1c-2.7-2.8-5.9-5.1-8.5-8.1c-2.5-2.8-9.7-4.1-12.1-1.7c-3.8,3.8-7.6,7.8-11.3,11.7
					c-1,1-2.4,2.1-2.6,3.4c-0.7,6.2,2.2,8.1,7.5,8.5c4,0.3,8,0.1,12,0.1C292,481.2,296.3,481.5,300.5,481.1z"/>
				<path fill="#1D144E" d="M922.6,455.2c3.1,7.1,1.2,10-6.9,10.8c-1.2,0.1-2.4,0-3.6,0c-115.8,0-231.5,0-347.3,0
					c-6.8,0-13.6-0.1-20.3-0.8c-4.9-0.5-6.5-3.9-4.5-8.5c3.1-6.9,6.6-13.7,10.1-20.4c4.6-8.8,9.4-17.5,14-26.2
					c3.1-5.8,6.2-11.5,9.1-17.3c3.7-7.3,7.2-14.8,11.1-22.1c3.5-6.8,7.4-13.4,11.1-20.1c1.1-2,2.4-3.9,3.3-6c2-4.9,6-6.4,10.8-6.4
					c12-0.1,24,0,36,0c67.9,0,135.8,0.1,203.6-0.1c7.4,0,13,0.9,16.5,8.4c3.8,8.3,8.6,16.1,13,24.2c3.9,7.3,7.8,14.6,11.5,22
					c3.3,6.5,6.3,13.1,9.7,19.6c3.8,7.4,7.8,14.8,11.7,22.2C915.2,441.2,919.4,448,922.6,455.2z"/>
				<path fill="#1D144E" d="M911.1,578.2c-0.1,14.1,0.7,28.2,0.7,42.3c-0.2,94.6-0.5,189.3-0.8,283.9c0,7.4-1.3,8.2-7.7,9.8
					c-4.7,1.1-9.6,1.5-14.4,1.7c-8.8,0.3-17.6,0.2-26.4,0c-12.5-0.2-25-0.7-37.5-0.7c-7.4,0-14.8,0.5-22.3,0.7
					c-4.5,0.1-9.2,0.6-13.7-0.2s-10-0.5-12.7-5.5c-0.9-1.6-1.4-3.7-1.4-5.5c-0.1-27.5-0.1-55-0.1-82.4c0-27.2,0-54.4,0-81.6
					c0-3.1-0.2-6.2,0-9.3c0.4-3.8-1.7-4.4-4.8-4.4c-18.7,0-37.3,0-56,0c-1.3,0-2.7-0.2-4,0.1c-1.9,0.4-5,0.9-5.2,1.9
					c-0.7,2.8-0.3,6-0.2,9c0,1,0.4,2,0.4,2.9c0,54.5,0,109.1,0,163.6c0,5.1-3.5,8.4-8.3,9.9c-3.9,1.3-7.5,1.1-11.4,0.8
					c-4-0.3-8.2,0.6-12.2,0.6c-5.6,0-11.1-0.7-16.7-0.7c-10.1,0.1-20.2,0.7-30.3,0.7c-11.5,0-23.1-0.6-34.7-0.7
					c-4.1,0-8.2,0.3-12.2,0.8c-4.3,0.6-7.6-1.6-11.3-3.1c-2.4-1-3-3-3-5.6c0.1-23.9,0.1-47.8,0-71.6c0-3.2-1.4-6.5-1.4-9.7
					c0-3,1.4-5.9,1.4-8.9c0.1-44.3,1.5-88.6-0.4-132.8c-1.5-35.3-0.2-70.5-1.1-105.8c-0.2-6.6,4.2-10.6,11.1-10.6
					c39.8,0,79.5-0.1,119.2,0.1c3.2,0,6.7,1.6,9.5,3.3c1.2,0.7,1.6,3.6,1.6,5.5c0.1,16.3,0.1,32.5,0.1,48.8c0,5.1,0.4,5.3,5.5,5.5
					c5.2,0.2,10.5,1,15.7,1c14.6-0.2,29.3-0.6,43.9-1c3.9-0.1,4.6-3,4.6-6.1c0-11.9,0-23.7,0-35.6c0-4,0-8,0-12
					c0-5.9,3.6-9.5,9.7-9.5c38.5,0,77.1-0.1,115.6,0.1C908.6,567.8,911.1,570.9,911.1,578.2z M875.7,854.7c0.7-3.8,0.6-7.8,0-11.6
					c-0.7-3.9-2.2-7.7-4-11.3c-2.7-5.4-6.9-9.8-11.9-13.1c-2.7-1.8-5.1-4.7-9-3.7c-0.3,0.1-0.8-0.2-1.1-0.3c-3.5-1-7-2.5-10.6-2.8
					c-4.5-0.4-8.8,1-13.3,2.5c-3.9,1.2-7.7,2.4-10.9,4.7c-6,4.3-9.5,10.7-12.3,17.3c-1.8,4.3-2.8,8.9-4.1,13.4
					c0.4,0.1,0.8,0.2,1.2,0.3c-1.5,9.4,3.9,16.3,8.7,23.2c1.9,2.8,3.3,6.2,7.2,7.5c4,1.4,7.8,3.5,11.4,5.6c6.8,4,14.4,3.1,20.8,0.9
					c6.6-2.3,12.9-5.9,18.1-11.7C871.8,869.3,874.4,862.4,875.7,854.7z M680.3,862.1c1.8-3.7,1.5-8.5,2.3-13.5
					c-0.8-3.7-0.7-8.7-2.9-12.2c-3.1-4.9-5.3-10.4-10.1-14.7c-5.2-4.6-10.9-7-17-9c-9.1-3-17.9,0.4-26.5,2.8c-0.7,0.2-1.4,0.7-2,1.2
					c-3.9,3.8-8,7.5-11.5,11.6c-2,2.3-3.7,5.3-4.6,8.2c-1.3,4.1-1.8,8.4-2.5,12.7c-0.2,1.1,0.3,2.2,0.6,3.3s1,2.1,0.9,3.2
					c-0.6,7.3,3.1,13,7,18.3c5.4,7.3,13.5,11.1,21.9,13.7c12.2,3.8,22.6-1.6,32.4-8C674.5,875.6,677.1,868.5,680.3,862.1z"/>
				<path fill="#FFF200" d="M875.7,843.1c0.7,3.8,0.7,7.8,0,11.6c-1.3,7.7-3.9,14.6-9.6,20.8c-5.3,5.8-11.5,9.4-18.1,11.7
					c-6.4,2.3-14,3.1-20.8-0.9c-3.7-2.1-7.5-4.3-11.4-5.6s-5.3-4.8-7.2-7.5c-4.8-7-10.2-13.8-8.7-23.2c-0.4-0.1-0.8-0.2-1.2-0.3
					c1.3-4.5,2.3-9.1,4.1-13.4c2.8-6.6,6.3-13,12.3-17.3c3.2-2.3,7-3.5,10.9-4.7c4.5-1.4,8.7-2.9,13.3-2.5c3.6,0.3,7,1.8,10.6,2.8
					c0.4,0.1,0.8,0.3,1.1,0.3c3.9-1,6.3,1.9,9,3.7c5,3.4,9.2,7.7,11.9,13.1C873.5,835.4,875,839.2,875.7,843.1z"/>
				<path fill="#FED402" d="M795,211.2c2.1,6.2-1,8.6-6,8.6c-8.3-0.1-16.7-0.1-25-0.1c-5.7,0-11.4,0-17.1,0c-5.2,0-10.3,0-15.5,0
					c-9.3,0-18.7,0-28,0s-18.7,0-28,0c-2.8,0-6,0.2-7.3-2.8c-1.5-3.3-0.6-6.7,1.2-9.9c3.5-5.9,7.1-11.7,10.3-17.8
					c4.5-8.3,8.7-16.8,13.1-25.2c5.5-10.7,11-21.3,16.5-32c5.4-10.5,10.6-21.1,16.2-31.5c1.1-2.1,3.6-3.8,5.8-4.9
					c2.4-1.2,4.7,0,5.9,2.5c6.9,13.4,13.8,26.8,20.7,40.3c4.7,9.1,9.5,18.2,14.2,27.3s9.3,18.3,14,27.5
					C789.1,199.2,792.9,204.9,795,211.2z"/>
				<path d="M789.1,219.8c-8.3,0-16.7-0.1-25-0.1C772.4,219.7,780.7,219.7,789.1,219.8z"/>
				<path d="M747,219.7c-5.2,0-10.3,0-15.5,0c-9.3,0-18.7,0-28,0c9.3,0,18.7,0,28,0C736.6,219.8,741.8,219.7,747,219.7z"/>
				<path fill="#FED402" d="M682.5,848.6c-0.8,5-0.5,9.8-2.3,13.5c-3.1,6.4-5.8,13.5-12.2,17.6c-9.8,6.3-20.2,11.8-32.4,8
					c-8.4-2.6-16.5-6.4-21.9-13.7c-3.9-5.3-7.7-11-7-18.3c0.1-1-0.6-2.1-0.9-3.2c-0.3-1.1-0.8-2.3-0.6-3.3c0.7-4.3,1.2-8.6,2.5-12.7
					c0.9-3,2.6-5.9,4.6-8.2c3.6-4.1,7.6-7.8,11.5-11.6c0.5-0.5,1.3-1,2-1.2c8.7-2.4,17.4-5.8,26.5-2.8c6.1,2,11.9,4.4,17,9
					c4.7,4.3,7,9.7,10.1,14.7C681.8,839.9,681.7,844.9,682.5,848.6z"/>
				<path fill="#1D144E" d="M478.7,389.6c0.5,26.3,0.1,52.6,0.1,78.8c0,7-5.6,12.8-12.6,12.7c-6-0.1-12.1-0.1-17.9-1.2
					c-2.5-0.5-4.4-3.8-6.5-5.9c-0.5-0.4-0.6-1.4-1.1-1.5c-6.1-1.9-7.6-8.4-12.2-11.9c-4.5-3.5-8-8.3-12.1-12.4
					c-6.5-6.4-13.1-12.6-19.7-19c-3.6-3.5-6.9-7.3-10.5-10.7c-2.7-2.6-5.7-4.7-8.4-7.3c-2-1.9-3.5-4.2-5.3-6.2
					c-2.1-2.3-4.3-4.3-6.4-6.6c-3.2-3.6-8.3-6-8.1-11.8c0.1-2.4,0.4-5.3,1.8-7c2.6-3.1,6.1-5.4,9.1-8.2c1.7-1.7,2.5-4.5,4.4-5.5
					c2.3-1.3,2.6-4.3,5.7-4.9c1.7-0.3,2.9-2.9,4.4-4.4c2-2.1,4.2-4.1,6.1-6.3c3.8-4.2,7.3-8.7,11.3-12.6c2.9-2.9,6.7-4.9,9.6-7.8
					c2.8-2.8,4.9-6.3,7.6-9.1c2.6-2.7,5.7-4.9,8.4-7.5c4.2-4.2,8.3-8.5,12.4-12.8c1.8-1.9,3.8-3.7,5.1-5.9c0.5-0.9,0-2.8-0.6-3.9
					c-1.5-2.5-2.3-5.8-6-6.3c-0.7-0.1-1.1-1.5-1.7-2.2c-4.8-5-9.7-9.9-14.5-14.8c-0.1-0.1-0.2-0.2-0.3-0.3c-2.5-2.4-5.1-4.8-7.6-7.3
					c-3.1-3.1-6.2-6.4-9.3-9.5c-1.5-1.5-3.2-2.6-4.7-4.1c-2-2.1-4.7-4.1-6.1-6.1c-2.1-3-4.8-5.1-7-7.8c-2-2.4-8.7-3-10.5-0.6
					c-2,2.7-5.2,4.1-6.8,7.7c-1.4,3.2-5.7,5.1-8.5,7.7c-3,2.7-5.8,5.6-8.7,8.4c-1.7,1.7-3.4,3.5-5.1,5.2c-0.4,0.5-1.1,0.7-1.5,1.3
					c-0.9,1.3-11.5,12.2-12.5,13.2c-1.7,1.7-3,3.8-4.6,5.6c-1.6,1.7-3.6,3.1-5.3,4.8c-4,4.1-7.3,9.1-11.8,12.4
					c-4.6,3.3-7.4,8.2-11.9,11.5c-1.7,1.3-3.2,3-4.9,4.4c-5.9,5-11,2.2-14.8-1.9c-1.5-1.6-3.5-2.7-5-4.3c-1.6-1.7-2.7-3.8-4.3-5.4
					c-4.2-4.2-8.5-8.3-12.8-12.5c-4.1-4.1-8.2-8.3-12.2-12.5c-3.9-4-7.7-8.1-11.5-12.1c-4.3-4.5-8.5-9.1-12.9-13.6
					c-3.9-3.9-8-7.6-12-11.4c-2.8-2.7-5.6-5.4-8.4-8c-2.7-2.5-4.8-1.9-7.9,0.2c-2.9,2-4.5,4.7-6.8,7c-3.7,3.7-8,6.7-12,10
					c0.2,0.1,0.7,0.4,0.9,0.5c-2.4,2-4.8,4-7.3,6c0.3,0.1,0.8,0.3,2.2,0.7c-1.1,0.7-1.8,1.6-2.5,1.6c-2.1,0.1-3,0.4-3.9,2.9
					c-0.9,2.4-3.7,4.2-5.8,6.2c-4.4,4.3-8.9,8.5-13.3,12.7c-3.3,3.2-6.5,6.4-9.7,9.7c-1.9,2-2.1,7.1,0.1,9
					c5.8,5,10.6,11.1,16.4,16.2c7,6.2,12.8,13.7,19.1,20.6c0.8,0.9,1.9,1.4,2.8,2.2c2.9,2.3,5.9,4.4,8.6,6.9
					c1.7,1.6,2.9,3.7,4.5,5.5c2.7,3.1,5.3,6.4,8.2,9.3c2.4,2.4,5.3,4.5,8,6.7l0,0c-0.1,0.1-0.6,0.3-1.3,0.6c2.8,2,6.8,3.4,7.5,5.7
					c1.6,5.8,9.9,5.1,10,11.5c0,1.6,0.1,3.2-0.1,4.8c-0.1,1.1-0.6,2.2-0.9,3.4c-0.4,1.4-0.9,2.4-2.3,3.5c-4.6,3.9-8.5,8.5-12.9,12.7
					c-1.4,1.4-3.4,2.1-4.7,3.6c-5.2,5.7-10.2,11.5-15.5,17.2c-2.2,2.4-4.9,4.2-7.3,6.5c-5.3,5.1-10.8,10-15.6,15.6
					c-3.2,3.6-6.9,6.6-10.2,10.1c-0.8,0.8-0.9,2.1-1.8,2.7c-0.9,1-1.7,2-2.6,2.9c-1.3,1.2-2.8,2.2-4,3.4c-1.2,1.2-4,1.5-2.7,4.3
					c-0.5,0.1-1.1,0.1-1.6,0.4c-0.9,0.6-1.7,1.4-2.5,2.2c0.3,0.2,0.6,0.4,0.9,0.6c-1.2,0.4-2.6,0.6-3.6,1.4
					c-2.9,2.4-6.3,2.7-9.8,2.8c-7.2,0.1-14.4-0.1-21.6,0.1c-4.9,0.1-8.8-1.9-12.3-4.9c-0.6-0.5-0.4-2-0.4-3c0-10.8,0-21.6,0-32.4
					c0-83.4,0.1-166.7,0-250.1c0-30.1-0.5-60.2-0.8-90.3c-0.1-9,4.7-13.6,14-13.9c0.7,0,1.3,0,2,0c120.6,0,241.2,0,361.7,0.1
					c3.7,0,7.4,1.1,11.2,1.6c-0.2,0.3-0.5,0.5-0.7,0.8c1.4,1.4,2.8,2.7,4.3,4.1c-0.1,0-0.6,0.1-0.6,0.2c0.3,1.7,1,3.3,1,4.9
					c0.1,37.7,0.1,75.5,0,113.2c0,2.7-1.5,5.4-1.4,8.1c0,5.6,0.8,11.2,0.9,16.9c0.1,2.9-1,5.9-1,8.9c-0.1,22-1.4,44.1,0.3,66
					C479.6,337.6,478.2,363.6,478.7,389.6z"/>
				<path fill="#1D144E" d="M466.5,682.5c0.2,0,0.4,0,0.6,0c-0.1,2.1-0.3,4.1-0.3,6.2c0,35.5,0,71,0,106.4c0,1.4-0.4,2.8-0.7,4.1
					c-0.4,0-0.8,0-1.2,0c0.6,0.4,1.2,0.7,2.2,1.3c-2,1.4-3.7,2.8-5.6,3.9c-0.7,0.4-1.8,0.1-2.8,0.1c-34.5,0-69.1,0-103.6,0
					c-1.5,0-2.9,0-3.5,0c-0.5,1.5-0.8,2.4-1.1,3.3c-0.3-0.4-0.6-0.8-0.9-1.1c-5.2,7.6-2.7,16.3-2.8,24.6
					c-0.3,27.2-0.1,54.4-0.1,81.6c0,3.6,0.2,7.7-3.9,9.4c-2.3,1-5.1,1.4-7.7,1.4c-31.3,0.1-62.7,0.1-94,0.1c-2,0-4,0-6,0.1
					c-10,0.5-11.9-2.5-12.2-12.6c-0.7-20.7-0.2-41.3-0.2-62c0-12,0.1-24-0.1-36c0-2.2-0.3-4.6-1.2-6.6c-0.6-1.1-2.8-2.1-4.2-2.1
					c-35.6-0.1-71.2,0-106.8,0c-0.2,0-0.5,0.2-1,0.4c-0.2-0.9-0.4-1.7-0.6-2.4c-1.1,0.1-2.3,0.2-2.5,0.2c-2.7-2.5-1.6-6-4-8.2
					c-0.5-0.5-0.4-1.8-0.4-2.7c0-31.6-0.1-63.2,0.1-94.8c0-4.8,1.2-9.7,2.2-14.5c0.6-3,5.3-5.3,10.4-5.3c9.6,0,19.3,0,28.9,0
					c24.3,0,48.6,0,72.8,0c5,0,7.5-2.8,7-7.8c-0.3-2.6-0.5-5.3-0.6-7.9c-0.3-30.5-0.6-60.9-0.7-91.4c0-3.1,0.9-6.6,2.5-9.2
					c0.9-1.5,3.9-2.2,6-2.3c35.6-0.1,71.2-0.1,106.8,0c2.6,0,5.3,1,7.9,1.8c0.6,0.2,1.1,1.5,1.2,2.3c0.5,3.2,1.1,6.5,1.1,9.7
					c0,29.2,0,58.4-0.1,87.6c0,2.9-0.7,5.7-0.7,8.6c-0.1,6.9,1.7,8.6,8.5,8.6c26.4,0,52.8,0,79.2,0c7.3,0,14.5,0,21.8,0
					c4.6,0,7.6,2.6,8.6,8C465.8,683.9,466.1,683.2,466.5,682.5z"/>
				<path fill="#FFF200" d="M307.4,473.4c1.4,3.9-2.4,7.3-6.9,7.7c-4.2,0.4-8.5,0.1-12.8,0.1c-4,0-8,0.3-12-0.1
					c-5.4-0.5-8.3-2.4-7.5-8.5c0.2-1.2,1.6-2.3,2.6-3.4c3.7-3.9,7.5-7.8,11.3-11.7c2.4-2.4,9.6-1,12.1,1.7c2.6,2.9,5.8,5.3,8.5,8.1
					C304.5,469.2,306.5,471.2,307.4,473.4z"/>
			</g>
		</g>
	</g>
	<rect x="83.6" y="78" fill="#262262" stroke="#262262" stroke-width="11" stroke-miterlimit="10" width="408" height="408"/>
	<path fill="none" stroke="#262262" stroke-width="11" stroke-miterlimit="10" d="M974.7,984.6H30.6c-6.6,0-12-5.4-12-12V28.5
		c0-6.6,5.4-12,12-12h944.1c6.6,0,12,5.4,12,12v944.1C986.7,979.2,981.3,984.6,974.7,984.6z"/>
	
		<rect x="101" y="341.3" transform="matrix(0.6894 0.7243 -0.7243 0.6894 379.8724 -92.2051)" fill="#FFFFFF" stroke="#FFFFFF" stroke-width="11" stroke-miterlimit="10" width="392.9" height="111.3"/>
	
		<rect x="85.9" y="346.4" transform="matrix(-0.7065 0.7077 -0.7077 -0.7065 766.4278 486.2587)" fill="#FFFFFF" stroke="#FFFFFF" stroke-width="11" stroke-miterlimit="10" width="392.9" height="111.3"/>
	<polygon fill="#1F144E" points="933.7,467.5 525.3,467.5 599.8,335.3 859.3,335.3 	"/>
	<polygon fill="#FED402" points="808.5,220.9 657.2,221.4 732.4,86.7 732.5,86.7 	"/>
	<rect x="218.1" y="558.7" fill="#FED402" width="132" height="365.3"/>
	<g id="XMLID_2_">
		<g>
			<rect x="101.9" y="675" fill="#262262" width="365.3" height="136.6"/>
		</g>
		<g>
			<rect x="101.9" y="675" fill="none" stroke="#262262" stroke-width="11" stroke-miterlimit="10" width="365.3" height="136.6"/>
		</g>
	</g>
	<polygon fill="#FED402" points="341.6,491.7 238.3,492 289.8,445.3 289.8,445.3 	"/>
	<rect x="563.7" y="567.7" fill="#1D144E" width="143.4" height="348.4"/>
	<rect x="775.6" y="567.2" fill="#1D144E" width="143.4" height="348.4"/>
	
		<rect x="689.6" y="510.5" transform="matrix(-2.235611e-004 1 -1 -2.235611e-004 1420.7206 -61.4824)" fill="#1D144E" width="102.9" height="337.9"/>
	<circle fill="#FED402" cx="632.8" cy="840.7" r="44.2"/>
	<circle fill="#FED402" cx="847.3" cy="850.3" r="44.2"/>
</g>
<line fill="none" stroke="#FFF200" stroke-width="13" stroke-miterlimit="10" x1="37" y1="663" x2="37" y2="960"/>
<line fill="none" stroke="#FFF200" stroke-width="13" stroke-miterlimit="10" x1="38" y1="961" x2="215" y2="961"/>
<circle fill="none" stroke="#FFF200" stroke-width="8.8834" stroke-miterlimit="10" cx="214.9" cy="961" r="2.1"/>
<circle fill="none" stroke="#FFF200" stroke-width="8.8834" stroke-miterlimit="10" cx="37" cy="663" r="2.1"/>
<circle fill="none" stroke="#FFF200" stroke-width="8.8834" stroke-miterlimit="10" cx="37" cy="961" r="2.1"/>
<line fill="none" stroke="#FFF200" stroke-width="13" stroke-miterlimit="10" x1="202.2" y1="195.1" x2="293.1" y2="286"/>
<line fill="none" stroke="#FFF200" stroke-width="13" stroke-miterlimit="10" x1="380.1" y1="196.1" x2="292.5" y2="287.6"/>
<circle fill="none" stroke="#FFF200" stroke-width="8.8834" stroke-miterlimit="10" cx="294.1" cy="286" r="2.1"/>
<line fill="none" stroke="#FFF200" stroke-width="13" stroke-miterlimit="10" x1="199.9" y1="197.1" x2="121.1" y2="270.2"/>
<line fill="none" stroke="#FFF200" stroke-width="13" stroke-miterlimit="10" x1="379.1" y1="192.9" x2="465.2" y2="278.9"/>
<circle fill="none" stroke="#FFF200" stroke-width="8.8834" stroke-miterlimit="10" cx="121.7" cy="270.2" r="2.1"/>
<circle fill="none" stroke="#FFF200" stroke-width="8.8834" stroke-miterlimit="10" cx="202" cy="196.1" r="2.1"/>
<circle fill="none" stroke="#FFF200" stroke-width="8.8834" stroke-miterlimit="10" cx="381.1" cy="195" r="2.1"/>
<circle fill="none" stroke="#FFF200" stroke-width="8.8834" stroke-miterlimit="10" cx="465.2" cy="278.9" r="2.1"/>
<line fill="none" stroke="#FFF200" stroke-width="13" stroke-miterlimit="10" x1="600.7" y1="367" x2="561.3" y2="439.1"/>
<line fill="none" stroke="#FFF200" stroke-width="13" stroke-miterlimit="10" x1="858.6" y1="367" x2="893.5" y2="441.3"/>
<circle fill="none" stroke="#FFF200" stroke-width="8.8834" stroke-miterlimit="10" cx="600.7" cy="367" r="2.1"/>
<circle fill="none" stroke="#FFF200" stroke-width="8.8834" stroke-miterlimit="10" cx="561.3" cy="439.2" r="2.1"/>
<circle fill="none" stroke="#FFF200" stroke-width="8.8834" stroke-miterlimit="10" cx="892.5" cy="439.2" r="2.1"/>
<circle fill="none" stroke="#FFF200" stroke-width="8.8834" stroke-miterlimit="10" cx="858.6" cy="367" r="2.1"/>
<circle fill="none" stroke="#FFF200" stroke-width="8.8834" stroke-miterlimit="10" cx="690.5" cy="350.6" r="2.1"/>
<line fill="none" stroke="#FFF200" stroke-width="13" stroke-miterlimit="10" x1="772.6" y1="350.6" x2="690.5" y2="350.6"/>
<circle fill="none" stroke="#FFF200" stroke-width="8.8834" stroke-miterlimit="10" cx="772.6" cy="350.7" r="2.1"/>
<line fill="none" stroke="#262262" stroke-width="11" stroke-miterlimit="10" x1="730.5" y1="114" x2="708" y2="158"/>
<line fill="none" stroke="#262262" stroke-width="11" stroke-miterlimit="10" x1="734.8" y1="113.3" x2="756.3" y2="157.8"/>
<circle fill="#262262" stroke="#262262" stroke-width="11" stroke-miterlimit="10" cx="732.8" cy="114.2" r="2.1"/>
<circle fill="#262262" stroke="#262262" stroke-width="6.4286" stroke-miterlimit="10" cx="707.8" cy="158.3" r="2.2"/>
<circle fill="#262262" stroke="#262262" stroke-width="6.6003" stroke-miterlimit="10" cx="756.6" cy="157.9" r="2.3"/>
<g>
	<line fill="none" stroke="#FFF200" stroke-width="13" stroke-miterlimit="10" x1="964.5" y1="334.4" x2="965.9" y2="37.4"/>
	<line fill="none" stroke="#FFF200" stroke-width="13" stroke-miterlimit="10" x1="964.9" y1="36.4" x2="787.9" y2="35.6"/>
	<circle fill="none" stroke="#FFF200" stroke-width="8.8834" stroke-miterlimit="10" cx="788" cy="35.6" r="2.1"/>
	<circle fill="none" stroke="#FFF200" stroke-width="8.8834" stroke-miterlimit="10" cx="964.5" cy="334.4" r="2.1"/>
	<circle fill="none" stroke="#FFF200" stroke-width="8.8834" stroke-miterlimit="10" cx="965.9" cy="36.4" r="2.1"/>
</g>
<line fill="none" stroke="#FFF200" stroke-width="13" stroke-miterlimit="10" x1="172.1" y1="715" x2="403.1" y2="715"/>
<circle fill="none" stroke="#FFF200" stroke-width="8.8834" stroke-miterlimit="10" cx="403.1" cy="715" r="2.1"/>
<circle fill="none" stroke="#FFF200" stroke-width="8.8834" stroke-miterlimit="10" cx="172.1" cy="715.1" r="2.1"/>
<line fill="none" stroke="#262262" stroke-width="11" stroke-miterlimit="10" x1="282.4" y1="835.5" x2="282.3" y2="884.9"/>
<circle fill="#262262" stroke="#262262" stroke-width="6.4286" stroke-miterlimit="10" cx="282.3" cy="835.5" r="2.2"/>
<circle fill="#262262" stroke="#262262" stroke-width="6.4286" stroke-miterlimit="10" cx="282.6" cy="883.9" r="2.2"/>
<line fill="none" stroke="#FFF200" stroke-width="13" stroke-miterlimit="10" x1="637.9" y1="682" x2="839.2" y2="682"/>
<circle fill="none" stroke="#FFF200" stroke-width="8.8834" stroke-miterlimit="10" cx="637.9" cy="682" r="2.1"/>
<circle fill="none" stroke="#FFF200" stroke-width="8.8834" stroke-miterlimit="10" cx="838.1" cy="682" r="2.1"/>
<circle fill="none" stroke="#FFF200" stroke-width="8.8834" stroke-miterlimit="10" cx="737.6" cy="708" r="2.1"/>
<circle fill="none" stroke="#FFF200" stroke-width="8.8834" stroke-miterlimit="10" cx="737.6" cy="653.4" r="2.1"/>
<g>
	<line fill="none" stroke="#262262" stroke-width="13" stroke-miterlimit="10" x1="943.1" y1="222.3" x2="943.8" y2="57"/>
	<line fill="none" stroke="#262262" stroke-width="13" stroke-miterlimit="10" x1="943.3" y1="56.5" x2="844.8" y2="56"/>
	<circle fill="#262262" stroke="#262262" stroke-width="11" stroke-miterlimit="10" cx="844.8" cy="56" r="1.2"/>
	<circle fill="#262262" stroke="#262262" stroke-width="11" stroke-miterlimit="10" cx="943.1" cy="222.3" r="1.2"/>
	<circle fill="#262262" stroke="#262262" stroke-width="11" stroke-miterlimit="10" cx="943.8" cy="56.5" r="1.2"/>
</g>
<line fill="none" stroke="#262262" stroke-width="13" stroke-miterlimit="10" x1="59.4" y1="774.3" x2="59.5" y2="939.6"/>
<line fill="none" stroke="#262262" stroke-width="13" stroke-miterlimit="10" x1="60.1" y1="940.1" x2="158.6" y2="940.1"/>
<circle fill="#262262" stroke="#262262" stroke-width="11" stroke-miterlimit="10" cx="158.5" cy="940.1" r="1.2"/>
<circle fill="#262262" stroke="#262262" stroke-width="11" stroke-miterlimit="10" cx="59.4" cy="774.3" r="1.2"/>
<circle fill="#262262" stroke="#262262" stroke-width="11" stroke-miterlimit="10" cx="59.5" cy="940.1" r="1.2"/>
</svg>
