<?xml version="1.0" encoding="utf-8"?>
<!-- Generator: Adobe Illustrator 19.2.1, SVG Export Plug-In . SVG Version: 6.00 Build 0)  -->
<svg version="1.1" id="Layer_1" xmlns="http://www.w3.org/2000/svg" xmlns:xlink="http://www.w3.org/1999/xlink" x="0px" y="0px"
	 viewBox="0 0 184.5 170.3" style="enable-background:new 0 0 184.5 170.3;" xml:space="preserve">
<style type="text/css">
	.st0{fill:none;stroke:#000000;stroke-width:5;stroke-miterlimit:10;}
	.st1{fill:none;}
	.st2{fill:#1D144E;}
	.st3{fill:#FDD301;}
</style>
<g>
	<path class="st1" d="M52.4,85.2c0,18.1,14.7,32.9,32.9,32.9c16.3,0,29.9-12,32.4-27.6H115c-12.7,0-23-10.3-23-23V53
		c-2.2-0.5-4.4-0.7-6.7-0.7C67.1,52.3,52.4,67,52.4,85.2z"/>
	<path class="st1" d="M73.2,3.7v22.1l-1.4,0.3c-6.6,1.5-12.9,4.1-18.7,7.8l-1.2,0.8L36.2,19.1l-17,17l15.7,15.7L34,53
		c-3.7,5.8-6.3,12.1-7.8,18.7l-0.3,1.4H3.8v24.1h22.1l0.3,1.4c1.5,6.6,4.1,12.9,7.8,18.7l0.8,1.2l-15.7,15.7l17,17l15.7-15.7
		l1.2,0.8c5.8,3.7,12.1,6.3,18.7,7.8l1.4,0.3v22.1h24.1v-22.1l1.4-0.3c6.6-1.5,12.8-4.1,18.7-7.8l1.2-0.8l15.7,15.7l17-17
		l-15.7-15.7l0.8-1.2c3.7-5.9,6.3-12.2,7.8-18.7l0.3-1.4h22.1v-8.4c-2.6,1.1-5.5,1.7-8.6,1.7h-36.7c-2.6,17.7-17.8,31.3-36.2,31.3
		c-20.2,0-36.6-16.4-36.6-36.6c0-20.2,16.4-36.6,36.6-36.6c2.3,0,4.5,0.2,6.7,0.6c0,0,2-35.7,5.3-39.6V3.7H73.2z"/>
	<path class="st2" d="M165,97.2h-19c-0.8,0-1.5,0.6-1.7,1.3l0,0.1c-1.5,6.5-4.1,12.8-7.8,18.7l-0.1,0.1c-0.4,0.7-0.3,1.6,0.2,2.1
		l13.5,13.5c0.7,0.7,0.7,1.8,0,2.4l-14.6,14.6c-0.7,0.7-1.8,0.7-2.4,0l-13.5-13.5c-0.6-0.6-1.5-0.7-2.1-0.2l-0.1,0.1
		c-5.8,3.7-12.1,6.3-18.7,7.8l-0.1,0c-0.8,0.2-1.3,0.9-1.3,1.7v19c0,1-0.8,1.7-1.7,1.7H75c-1,0-1.7-0.8-1.7-1.7v-19
		c0-0.8-0.6-1.5-1.3-1.7l-0.1,0c-6.6-1.5-12.9-4.1-18.7-7.8l-0.1-0.1c-0.7-0.4-1.6-0.3-2.1,0.2l-13.5,13.5c-0.7,0.7-1.8,0.7-2.4,0
		l-14.6-14.6c-0.7-0.7-0.7-1.8,0-2.4l13.5-13.5c0.6-0.6,0.7-1.5,0.2-2.1l-0.1-0.1c-3.7-5.8-6.3-12.1-7.8-18.7l0-0.1
		c-0.2-0.8-0.9-1.3-1.7-1.3h-19c-1,0-1.7-0.8-1.7-1.7V74.9c0-1,0.8-1.7,1.7-1.7h19c0.8,0,1.5-0.6,1.7-1.3l0-0.1
		c1.5-6.6,4.1-12.8,7.8-18.7l0.1-0.1c0.4-0.7,0.3-1.6-0.2-2.1L20.4,37.3c-0.7-0.7-0.7-1.8,0-2.4L35,20.3c0.7-0.7,1.8-0.7,2.4,0
		l13.5,13.5c0.6,0.6,1.5,0.7,2.1,0.2l0.1-0.1c5.8-3.7,12.1-6.3,18.7-7.8l0.1,0c0.8-0.2,1.3-0.9,1.3-1.7v-19c0-1,0.8-1.7,1.7-1.7
		h20.6c1,0,1.7,0.8,1.7,1.7v0c0,1.5,1.7,2.3,2.8,1.3c0.1-0.1,0.1-0.1,0.2-0.2c0.4-0.3,0.7-0.8,0.7-1.3V1.7c0-1-0.8-1.7-1.7-1.7h-28
		c-1,0-1.7,0.8-1.7,1.7v19.8c0,0.8-0.5,1.5-1.3,1.7c-5.1,1.4-10,3.5-14.7,6.1c-0.7,0.4-1.5,0.3-2.1-0.3L37.4,15
		c-0.7-0.7-1.8-0.7-2.4,0L15.1,34.9c-0.7,0.7-0.7,1.8,0,2.4l14.1,14.1c0.6,0.6,0.7,1.4,0.3,2.1c-2.7,4.7-4.7,9.6-6.1,14.7
		c-0.2,0.8-0.9,1.3-1.7,1.3H1.8c-1,0-1.7,0.8-1.7,1.7v28c0,1,0.8,1.7,1.7,1.7h19.8c0.8,0,1.5,0.5,1.7,1.3c1.4,5.1,3.5,10,6.1,14.7
		c0.4,0.7,0.3,1.5-0.3,2.1L15.1,133c-0.7,0.7-0.7,1.8,0,2.4L35,155.3c0.7,0.7,1.8,0.7,2.4,0l14.1-14.1c0.6-0.6,1.4-0.7,2.1-0.3
		c4.7,2.7,9.6,4.7,14.7,6.1c0.8,0.2,1.3,0.9,1.3,1.7v19.8c0,1,0.8,1.7,1.7,1.7h28c1,0,1.7-0.8,1.7-1.7v-19.8c0-0.8,0.5-1.5,1.3-1.7
		c5.1-1.4,10-3.5,14.7-6.1c0.7-0.4,1.5-0.3,2.1,0.3l14.1,14.1c0.7,0.7,1.8,0.7,2.4,0l19.8-19.8c0.7-0.7,0.7-1.8,0-2.4L141.3,119
		c-0.6-0.6-0.7-1.4-0.3-2.1c2.7-4.7,4.7-9.6,6.1-14.7c0.2-0.8,0.9-1.3,1.7-1.3h19.8c1,0,1.7-0.8,1.7-1.7v-9.4c0-1.3-1.3-2.1-2.5-1.6
		c-0.1,0-0.2,0.1-0.2,0.1c-0.6,0.3-1,0.9-1,1.6v5.5C166.7,96.4,166,97.2,165,97.2z"/>
	<path class="st3" d="M85.3,118c-18.1,0-32.9-14.7-32.9-32.9c0-18.1,14.7-32.9,32.9-32.9c2.3,0,4.6,0.2,6.7,0.7v-3.8
		c-2.2-0.4-4.4-0.6-6.7-0.6c-20.2,0-36.6,16.4-36.6,36.6c0,20.2,16.4,36.6,36.6,36.6c18.4,0,33.6-13.6,36.2-31.3h-3.7
		C115.2,106.1,101.6,118,85.3,118z"/>
</g>
<g>
	<g>
		<path class="st2" d="M148.8,90.1h-15.7c-0.5,0-0.9-0.4-0.9-0.9V79.1c0-0.4-0.3-0.8-0.7-0.9c-2.1-0.6-4.2-1.5-6.2-2.6
			c-0.4-0.2-0.8-0.1-1.1,0.2l-7.1,7.1c-0.4,0.4-0.9,0.4-1.3,0l-11.1-11.1c-0.4-0.4-0.4-0.9,0-1.3l7.1-7.1c0.3-0.3,0.3-0.7,0.2-1.1
			c-1.1-2-2-4.1-2.6-6.2c-0.1-0.4-0.5-0.7-0.9-0.7h-10c-0.5,0-0.9-0.4-0.9-0.9V38.7c0-0.5,0.4-0.9,0.9-0.9h10.1
			c0.4,0,0.8-0.3,0.9-0.7c0.6-2.1,1.5-4.2,2.6-6.2c0.2-0.4,0.1-0.8-0.2-1.1l-7.1-7.1c-0.4-0.4-0.4-0.9,0-1.3l11.1-11.1
			c0.4-0.4,0.9-0.4,1.3,0l7.1,7.1c0.3,0.3,0.7,0.3,1.1,0.2c2-1.1,4.1-2,6.2-2.6c0.4-0.1,0.7-0.5,0.7-0.9V4c0-0.5,0.4-0.9,0.9-0.9
			h15.7c0.5,0,0.9,0.4,0.9,0.9v10.1c0,0.4,0.3,0.8,0.7,0.9c2.1,0.6,4.2,1.5,6.2,2.6c0.4,0.2,0.8,0.1,1.1-0.2l7.1-7.1
			c0.4-0.4,0.9-0.4,1.3,0l11.1,11.1c0.4,0.4,0.4,0.9,0,1.3l-7.1,7.1c-0.3,0.3-0.3,0.7-0.2,1.1c1.1,2,2,4.1,2.6,6.2
			c0.1,0.4,0.5,0.7,0.9,0.7h10.1c0.5,0,0.9,0.4,0.9,0.9v13.9c0,0.5-0.4,0.9-0.9,0.9h0c-0.5,0-0.9,0.4-0.9,0.9v0
			c0,0.5-0.4,0.9-0.9,0.9h-8.2c-0.4,0-0.8,0.3-0.9,0.7c-0.6,2.1-1.5,4.2-2.6,6.2c-0.2,0.4-0.1,0.8,0.2,1.1l7.1,7.1
			c0.4,0.4,0.4,0.9,0,1.3l-11.1,11.1c-0.4,0.4-0.9,0.4-1.3,0l-7.1-7.1c-0.3-0.3-0.7-0.3-1.1-0.2c-2,1.1-4.1,2-6.2,2.6
			c-0.4,0.1-0.7,0.5-0.7,0.9v10.1C149.7,89.7,149.3,90.1,148.8,90.1z M136.8,86.4h8.3c0.5,0,0.9-0.4,0.9-0.9v-9.2
			c0-0.4,0.3-0.8,0.7-0.9l0.7-0.2c3.2-0.7,6.2-2,9.1-3.8l0.6-0.4c0.4-0.2,0.8-0.2,1.1,0.1l6.5,6.5c0.4,0.4,0.9,0.4,1.3,0l5.9-5.9
			c0.4-0.4,0.4-0.9,0-1.3l-6.5-6.5c-0.3-0.3-0.4-0.8-0.1-1.1l0.4-0.6c1.8-2.8,3.1-5.9,3.8-9.1l0.2-0.7c0.1-0.4,0.5-0.7,0.9-0.7h9.2
			c0.5,0,0.9-0.4,0.9-0.9v-8.3c0-0.5-0.4-0.9-0.9-0.9h-9.2c-0.4,0-0.8-0.3-0.9-0.7l-0.2-0.7c-0.7-3.2-2-6.2-3.8-9.1l-0.4-0.6
			c-0.2-0.4-0.2-0.8,0.1-1.1l6.5-6.5c0.4-0.4,0.4-0.9,0-1.3l-5.9-5.9c-0.4-0.4-0.9-0.4-1.3,0l-6.5,6.5c-0.3,0.3-0.8,0.4-1.1,0.1
			l-0.6-0.4c-2.8-1.8-5.9-3.1-9.1-3.8l-0.7-0.2c-0.4-0.1-0.7-0.5-0.7-0.9V7.7c0-0.5-0.4-0.9-0.9-0.9h-8.3c-0.5,0-0.9,0.4-0.9,0.9
			v9.2c0,0.4-0.3,0.8-0.7,0.9l-0.7,0.2c-3.2,0.7-6.2,2-9.1,3.8l-0.6,0.4c-0.4,0.2-0.8,0.2-1.1-0.1l-6.5-6.5c-0.4-0.4-0.9-0.4-1.3,0
			l-5.9,5.9c-0.4,0.4-0.4,0.9,0,1.3l6.5,6.5c0.3,0.3,0.4,0.8,0.1,1.1l-0.4,0.6c-1.8,2.8-3.1,5.9-3.8,9.1l-0.2,0.7
			c-0.1,0.4-0.5,0.7-0.9,0.7h-9.2c-0.5,0-0.9,0.4-0.9,0.9v8.3c0,0.5,0.4,0.9,0.9,0.9h9.2c0.4,0,0.8,0.3,0.9,0.7l0.2,0.7
			c0.7,3.2,2,6.2,3.8,9.1l0.4,0.6c0.2,0.4,0.2,0.8-0.1,1.1l-6.5,6.5c-0.4,0.4-0.4,0.9,0,1.3l5.9,5.9c0.4,0.4,0.9,0.4,1.3,0l6.5-6.5
			c0.3-0.3,0.8-0.4,1.1-0.1l0.6,0.4c2.8,1.8,5.9,3.1,9.1,3.8l0.7,0.2c0.4,0.1,0.7,0.5,0.7,0.9v9.2C135.9,86,136.3,86.4,136.8,86.4z"
			/>
	</g>
</g>
<g>
	<path class="st3" d="M141,65.8c-10.6,0-19.2-8.6-19.2-19.2s8.6-19.2,19.2-19.2s19.2,8.6,19.2,19.2S151.5,65.8,141,65.8z M141,31.1
		c-8.6,0-15.5,7-15.5,15.5s7,15.5,15.5,15.5c8.6,0,15.5-7,15.5-15.5S149.5,31.1,141,31.1z"/>
</g>
</svg>
