<?xml version="1.0" encoding="utf-8"?>
<!-- Generator: Adobe Illustrator 19.2.1, SVG Export Plug-In . SVG Version: 6.00 Build 0)  -->
<svg version="1.1" id="Layer_1" xmlns="http://www.w3.org/2000/svg" xmlns:xlink="http://www.w3.org/1999/xlink" x="0px" y="0px"
	 viewBox="0 0 184.5 170.3" style="enable-background:new 0 0 184.5 170.3;" xml:space="preserve">
<style type="text/css">
	.st0{fill:none;stroke:#000000;stroke-width:5;stroke-miterlimit:10;}
	.st1{fill:#FDD301;}
	.st2{fill:#1D144E;}
	.st3{fill:none;}
</style>
<g>
	<path class="st3" d="M16.3,98.7c-2.2,2.2-2.2,5.7,0,7.8l45.7,45.7c2.2,2.2,5.7,2.2,7.8,0l6.5-6.5L22.7,92.2L16.3,98.7z"/>
	
		<rect x="49.6" y="74.2" transform="matrix(0.7071 -0.7071 0.7071 0.7071 -62.6993 72.7172)" class="st3" width="13.7" height="75.7"/>
	<circle class="st3" cx="59.7" cy="68.8" r="2.3"/>
	<path class="st3" d="M57.5,78.7h4.3c3.1,0,5.6-2.5,5.6-5.6V2.9H59v27.8c0,0.8-0.7,1.5-1.5,1.5c-0.8,0-1.5-0.7-1.5-1.5V2.9h-4.1
		v70.1C51.9,76.2,54.4,78.7,57.5,78.7z M59.7,63.5c2.9,0,5.3,2.4,5.3,5.3c0,2.9-2.4,5.3-5.3,5.3c-2.9,0-5.3-2.4-5.3-5.3
		C54.4,65.9,56.8,63.5,59.7,63.5z"/>
	<path class="st3" d="M98,59.3l33.4,33.4l0,0c0,0,0,0,0,0c0.2,0.2,4.7,4.8,7.3,16.7c2.3,10.5,3.6,29-3.3,58.1h17.5
		c0.8-2.3,2.9-8.8,4.5-17.6h-9.2c-0.8,0-1.5-0.7-1.5-1.5c0-0.8,0.7-1.5,1.5-1.5h9.7c0.2-1.2,0.4-2.5,0.5-3.8H154
		c-0.8,0-1.5-0.7-1.5-1.5c0-0.8,0.7-1.5,1.5-1.5h4.9c1.5-14.4,0.9-35.1-9.8-53.2L98,59.3z"/>
	<path class="st3" d="M70.3,44.6v28.5c0,4.7-3.8,8.6-8.6,8.6h-4.3c-4.7,0-8.6-3.8-8.6-8.6V66L36.6,78.4l53.5,53.5l27-27l-11.4-11.4
		c-0.6-0.6-0.6-1.5,0-2.1c0.6-0.6,1.5-0.6,2.1,0l11.4,11.4l9.1-9.1L74.8,40.2L70.3,44.6z M80.3,65.9c0.6-0.6,1.5-0.6,2.1,0
		l16.8,16.8c0.6,0.6,0.6,1.5,0,2.1c-0.3,0.3-0.7,0.4-1,0.4c-0.4,0-0.8-0.1-1-0.4L80.3,68C79.7,67.4,79.7,66.5,80.3,65.9z"/>
	<path class="st1" d="M97.1,84.8c0.3,0.3,0.7,0.4,1,0.4c0.4,0,0.8-0.1,1-0.4c0.6-0.6,0.6-1.5,0-2.1L82.4,65.9
		c-0.6-0.6-1.5-0.6-2.1,0c-0.6,0.6-0.6,1.5,0,2.1L97.1,84.8z"/>
	<path class="st1" d="M59.7,74.1c2.9,0,5.3-2.4,5.3-5.3c0-2.9-2.4-5.3-5.3-5.3c-2.9,0-5.3,2.4-5.3,5.3
		C54.4,71.7,56.8,74.1,59.7,74.1z M59.7,66.5c1.3,0,2.3,1,2.3,2.3c0,1.3-1,2.3-2.3,2.3c-1.3,0-2.3-1-2.3-2.3
		C57.3,67.5,58.4,66.5,59.7,66.5z"/>
</g>
<g>
	<polygon class="st3" points="123,99 128.3,93.7 119.2,102.8 	"/>
	
		<rect x="49.6" y="74.2" transform="matrix(0.7071 -0.7071 0.7071 0.7071 -62.6993 72.7172)" class="st3" width="13.7" height="75.7"/>
	<path class="st3" d="M70.3,44.6v28.5c0,4.7-3.8,8.6-8.6,8.6h-4.3c-4.7,0-8.6-3.8-8.6-8.6V66L36.6,78.4l53.5,53.5l25.2-25.2l1.8-1.8
		l-0.1-0.1l-1.8,1.8l1.8-1.8l-11.3-11.3c-0.6-0.6-0.6-1.5,0-2.1c0.6-0.6,1.5-0.6,2.1,0l11.3,11.3l3.8-3.8l-3.8,3.8l0.1,0.1l9.1-9.1
		L74.8,40.2L70.3,44.6z"/>
	<path class="st3" d="M57.5,78.7h4.3c3.1,0,5.6-2.5,5.6-5.6V2.9H59v27.8c0,0.8-0.7,1.5-1.5,1.5c-0.8,0-1.5-0.7-1.5-1.5V2.9h-4.1
		v70.1C51.9,76.2,54.4,78.7,57.5,78.7z"/>
	<path class="st3" d="M16.3,98.7c-2.2,2.2-2.2,5.7,0,7.8l45.7,45.7c2.2,2.2,5.7,2.2,7.8,0l6.5-6.5L22.7,92.2L16.3,98.7z"/>
	<path class="st3" d="M149.1,86.9L98,59.3l33.4,33.4l0,0c0,0,0,0,0,0c0.2,0.2,4.7,4.8,7.3,16.7c2.3,10.5,3.6,29-3.3,58.1h17.5
		c0.8-2.3,2.8-8.6,4.4-17.1c0-0.2,0.1-0.4,0.1-0.6h-9.2c-0.8,0-1.5-0.7-1.5-1.5c0-0.8,0.7-1.5,1.5-1.5h9.7c0.2-1.2,0.4-2.5,0.5-3.8
		h-0.1c0,0.2-0.1,0.4-0.1,0.6c0.1-0.2,0.1-0.4,0.1-0.6H154c-0.8,0-1.5-0.7-1.5-1.5c0-0.8,0.7-1.5,1.5-1.5h4.8c0-0.3-0.1-0.5-0.1-0.5
		s0,0.1,0.1,0.5h0.1C160.3,125.6,159.8,104.9,149.1,86.9z"/>
	<path class="st1" d="M152.5,141.5c0,0.8,0.7,1.5,1.5,1.5h4.4c0.4-1.6,0.4-2.5,0.4-2.9H154C153.1,140.1,152.5,140.7,152.5,141.5z"/>
	<path class="st1" d="M105.7,91.4c-0.6,0.6-0.6,1.5,0,2.1l11.3,11.3l2.1-2.1l-11.3-11.3C107.2,90.8,106.3,90.8,105.7,91.4z"/>
	<polygon class="st2" points="90.1,131.9 117.1,104.9 115.3,106.6 	"/>
</g>
<g>
	<path class="st3" d="M70.3,44.6v28.5c0,4.7-3.8,8.6-8.6,8.6h-4.3c-4.7,0-8.6-3.8-8.6-8.6V66L36.6,78.4l53.5,53.5l27-27l-0.1-0.1
		l2.1-2.1l0.1,0.1L123,99l5.3-5.3L74.8,40.2L70.3,44.6z"/>
	
		<rect x="49.6" y="74.2" transform="matrix(0.7071 -0.7071 0.7071 0.7071 -62.6993 72.7172)" class="st3" width="13.7" height="75.7"/>
	<path class="st3" d="M16.3,98.7c-2.2,2.2-2.2,5.7,0,7.8l45.7,45.7c2.2,2.2,5.7,2.2,7.8,0l6.5-6.5L22.7,92.2L16.3,98.7z"/>
	<path class="st3" d="M57.5,78.7h4.3c3.1,0,5.6-2.5,5.6-5.6V2.9H59v27.8c0,0.8-0.7,1.5-1.5,1.5c-0.8,0-1.5-0.7-1.5-1.5V2.9h-4.1
		v70.1C51.9,76.2,54.4,78.7,57.5,78.7z"/>
	<path class="st3" d="M149.1,86.9L98,59.3l33.4,33.4l0,0c0,0,0,0,0,0c0.2,0.2,4.7,4.8,7.3,16.7c2.3,10.5,3.6,29-3.3,58.1h17.5
		c0.8-2.3,2.8-8.6,4.4-17.1l0.1-0.6h-9.1c-0.8,0-1.5-0.7-1.5-1.5c0-0.8,0.7-1.5,1.5-1.5h9.5l0.1-1.1l-0.1,1.1h0.2
		c0.2-1.2,0.4-2.5,0.5-3.8h-0.1c0.4-1.6,0.4-2.5,0.4-2.9h0.1C160.3,125.6,159.8,104.9,149.1,86.9z"/>
	<path class="st3" d="M157.4,149.8L157.4,149.8l-0.1,0.6C157.4,150.1,157.4,150,157.4,149.8z"/>
	<path class="st1" d="M146.8,148.3c0,0.8,0.7,1.5,1.5,1.5h9.1l0.4-2.9h-9.5C147.5,146.8,146.8,147.5,146.8,148.3z"/>
	<path class="st2" d="M151.4,85c-0.1-0.2-0.3-0.4-0.6-0.5L90.8,52L75.8,37.1c-0.3-0.3-0.6-0.4-1-0.4c-0.4,0-0.8,0.2-1,0.4l-3.4,3.4
		v-39c0-0.8-0.7-1.5-1.5-1.5H50.5C49.6,0,49,0.7,49,1.5v60.4L14.2,96.6c-3.3,3.3-3.3,8.7,0,12l45.7,45.7c1.7,1.7,3.8,2.5,6,2.5
		c2.2,0,4.3-0.8,6-2.5l58.4-58.4c3.3,4.7,13.7,24.3,1.9,72.6c-0.1,0.4,0,0.9,0.3,1.3c0.3,0.4,0.7,0.6,1.2,0.6h20.4
		c0.6,0,1.2-0.4,1.4-0.9c0.2-0.5,4.6-12.1,6.4-28.3C163.3,126.1,162.9,104.1,151.4,85z M51.9,2.9h4.1v27.8c0,0.8,0.7,1.5,1.5,1.5
		c0.8,0,1.5-0.7,1.5-1.5V2.9h8.4v70.1c0,3.1-2.5,5.6-5.6,5.6h-4.3c-3.1,0-5.6-2.5-5.6-5.6V2.9z M69.8,152.2c-2.2,2.2-5.7,2.2-7.8,0
		l-45.7-45.7c-2.2-2.2-2.2-5.7,0-7.8l6.5-6.5l53.5,53.5L69.8,152.2z M78.3,143.6L24.8,90.1l9.7-9.7L88,133.9L78.3,143.6z M123,99
		l-3.8,3.8l-0.1-0.1l-2.1,2.1l0.1,0.1l-27,27L36.6,78.4L49,66v7.1c0,4.7,3.8,8.6,8.6,8.6h4.3c4.7,0,8.6-3.8,8.6-8.6V44.6l4.4-4.4
		l53.5,53.5L123,99z M158.4,143h0.1c-0.2,1.3-0.3,2.6-0.5,3.8h-0.2l-0.4,2.9h0c0,0.2-0.1,0.4-0.1,0.6l0,0c1.9-10,2-17.3,2-17.3
		s-0.1,7.3-2,17.3c-0.3,1.7-0.7,3.4-1.1,5.3c0.4-1.8,0.8-3.6,1.1-5.3l0,0c-1.6,8.5-3.6,14.8-4.4,17.1h-17.5
		c6.9-29,5.6-47.6,3.3-58.1c-2.6-11.9-7.1-16.5-7.3-16.7c0,0,0,0,0,0l0,0L98,59.3l51,27.6c10.7,18.1,11.2,38.8,9.8,53.2h-0.1
		C158.8,140.5,158.7,141.5,158.4,143z"/>
</g>
</svg>
