<?xml version="1.0" encoding="utf-8"?>
<!-- Generator: Adobe Illustrator 19.2.1, SVG Export Plug-In . SVG Version: 6.00 Build 0)  -->
<svg version="1.1" id="Layer_1" xmlns="http://www.w3.org/2000/svg" xmlns:xlink="http://www.w3.org/1999/xlink" x="0px" y="0px"
	 viewBox="0 0 40 25" style="enable-background:new 0 0 40 25;" xml:space="preserve">
<style type="text/css">
	.st0{fill:#FFFFFF;}
	.st1{fill:#FFC107;}
</style>
<g>
	<path class="st0" d="M9.7,7.8l-1.2,2.9l-0.7-0.3C7,9.9,6,9.6,5.1,9.6c-0.4,0-0.8,0.1-1.2,0.2c-0.2,0.2-0.4,0.4-0.4,0.7
		c0,0.3,0.2,0.6,0.4,0.7c0.5,0.4,1.1,0.5,1.7,0.6c1,0.2,1.9,0.5,2.7,1.1c1.1,0.8,1.8,2,1.8,3.3c0,1.3-0.7,2.5-1.6,3.2
		c-1,0.7-2.1,1-3.3,1c-1.6,0-3-0.3-4.4-1L0,19.1l1.3-2.8L2,16.7c1,0.4,2,0.7,3.1,0.7c0.5,0,1.1-0.1,1.5-0.3c0.2-0.2,0.4-0.4,0.4-0.7
		c0-0.3-0.2-0.7-0.4-0.8C6,15.1,5.4,15,4.7,14.8c-1-0.2-2-0.5-2.8-1.1c-1-0.7-1.6-1.9-1.6-3.2S1,8,2,7.3c0.9-0.7,2-0.9,3.1-0.9
		c1.4,0,2.8,0.3,4,0.9L9.7,7.8L9.7,7.8z M19.4,7.9c0.8-0.9,2-1.3,3.3-1.3c1.2,0,2.5,0.4,3.4,1.3c1.5,1.5,1.5,3.3,1.5,5.2v7.2h-3.2
		v-7.2c0-0.7,0.1-2.2-0.4-2.9C24,10.2,24,10.1,23.9,10c-0.3-0.3-0.8-0.4-1.2-0.4s-0.9,0.1-1.2,0.4c-0.1,0.1-0.2,0.2-0.2,0.2
		c-0.4,0.7-0.4,2.1-0.4,2.9v7.2h-3.1v-7.2c0-0.7,0.1-2.2-0.4-2.9c-0.1-0.1-0.1-0.2-0.2-0.2c-0.3-0.3-0.8-0.4-1.2-0.4
		s-0.9,0.1-1.2,0.4c-0.1,0.1-0.2,0.2-0.2,0.2c-0.4,0.7-0.4,2.1-0.4,2.9v7.2H11v-7.2c0-2,0-3.8,1.5-5.2c0.9-0.9,2.2-1.3,3.4-1.3
		C17.4,6.5,18.5,7,19.4,7.9L19.4,7.9z M32.3,19.8V25h-3.2V13.2c0-1.8-0.1-3.4,1.2-4.9c1.1-1.2,2.6-1.8,4.2-1.8c1.6,0,3,0.6,4.1,1.7
		c1.3,1.5,1.4,3.3,1.4,5.2s0,3.7-1.3,5.2c-1,1.1-2.5,1.7-4,1.7C33.7,20.4,32.9,20.3,32.3,19.8L32.3,19.8z M34.5,9.6
		c-0.6,0-1.3,0.2-1.7,0.7l0,0c-0.5,0.6-0.4,2-0.4,2.7c0,1-0.1,2.8,0.5,3.6l0.1,0.1c0.4,0.5,1.1,0.7,1.6,0.7c0.6,0,1.2-0.2,1.6-0.7
		c0.7-0.7,0.6-2.4,0.6-3.3c0-1,0.1-2.5-0.7-3.2C35.7,9.8,35,9.6,34.5,9.6z"/>
	<rect x="0.1" y="22.2" class="st1" width="0.5" height="2.8"/>
	<rect x="1.8" y="22.2" class="st1" width="0.5" height="2.8"/>
	<polygon class="st1" points="5.5,22.6 5.5,22.2 3.2,22.2 3.2,22.6 4.1,22.6 4.1,25 4.6,25 4.6,22.6 	"/>
	<path class="st1" d="M7.4,22.2V25h1.2c0.7,0,1-0.2,1-0.7c0-0.4-0.2-0.7-0.6-0.7c0.3-0.1,0.5-0.3,0.5-0.7c0-0.4-0.3-0.7-0.9-0.7H7.4
		L7.4,22.2z M7.8,22.6h0.7c0.3,0,0.5,0.2,0.5,0.3c0,0.2-0.2,0.4-0.5,0.4H7.8V22.6L7.8,22.6z M7.8,23.8h0.7c0.3,0,0.6,0.2,0.6,0.4
		c0,0.2-0.2,0.4-0.6,0.4H7.8V23.8z"/>
	<path class="st1" d="M11.9,22.2c-0.8,0-1.5,0.6-1.5,1.4s0.7,1.4,1.5,1.4s1.5-0.7,1.5-1.4C13.4,22.8,12.7,22.2,11.9,22.2L11.9,22.2z
		 M11.9,22.6c0.6,0,1,0.4,1,1s-0.4,1-1,1s-1-0.4-1-1S11.4,22.6,11.9,22.6z"/>
	<polygon class="st1" points="17.3,25 17.3,22.2 16.8,22.2 15.8,24 15,22.2 14.4,22.2 14.4,25 14.9,25 14.9,22.9 15.8,24.7 16,24.7 
		16.9,22.9 16.9,25 	"/>
	<path class="st1" d="M18.6,22.2V25h1.2c0.7,0,1-0.2,1-0.7c0-0.4-0.2-0.7-0.6-0.7c0.3-0.1,0.5-0.3,0.5-0.7c0-0.4-0.3-0.7-0.9-0.7
		H18.6L18.6,22.2z M19,22.6h0.7c0.3,0,0.5,0.2,0.5,0.3c0,0.2-0.2,0.4-0.5,0.4H19V22.6L19,22.6z M19,23.8h0.7c0.3,0,0.6,0.2,0.6,0.4
		c0,0.2-0.2,0.4-0.6,0.4H19V23.8z"/>
	<path class="st1" d="M23.7,24.3l0.2,0.7h0.5l-1.2-2.8h-0.5L21.5,25H22l0.2-0.7H23.7L23.7,24.3z M23.5,23.9h-1.1l0.5-1.2L23.5,23.9z
		"/>
	<polygon class="st1" points="26.3,24 27.3,22.2 26.9,22.2 26.1,23.5 25.2,22.2 24.8,22.2 25.8,24 25.8,25 26.3,25 	"/>
	<circle class="st1" cx="15.4" cy="2" r="2"/>
	<circle class="st1" cx="23.9" cy="2" r="2"/>
</g>
</svg>
