<?xml version="1.0" encoding="utf-8"?>
<!-- Generator: Adobe Illustrator 19.2.1, SVG Export Plug-In . SVG Version: 6.00 Build 0)  -->
<svg version="1.1" id="Layer_1" xmlns="http://www.w3.org/2000/svg" xmlns:xlink="http://www.w3.org/1999/xlink" x="0px" y="0px"
	 viewBox="0 0 184.5 170.3" style="enable-background:new 0 0 184.5 170.3;" xml:space="preserve">
<style type="text/css">
	.st0{fill-rule:evenodd;clip-rule:evenodd;fill:#FFD400;}
	.st1{fill-rule:evenodd;clip-rule:evenodd;fill:#1B004E;}
</style>
<g>
	<path class="st0" d="M171.2,33.9c0-7.2-4.3-9.9-10.1-15.6c-5-5-8.6-10.1-15.3-10.1c-5.6,0-8.6,3.8-11.5,6.7L21.4,127.6
		c-1.7,1.7-2.7,8-3.4,10.6c-1.3,4.6-2.6,9.8-3.8,14.4c-1,3.8-4.1,12.4-2.4,14.4c1.6,2,4.4,0.7,6.7,0.1c2.6-0.6,4.7-1.3,7.4-1.9
		c5.1-1.3,9.7-2.6,14.7-3.9c2.3-0.6,4.6-1.3,7.1-1.9c3.9-1,3.5-0.9,6-3.3L164.3,45.6C167.1,42.7,171.2,39.3,171.2,33.9 M145.8,14.6
		c4,0,6.7,4,10.6,8c1.6,1.6,2.9,2.9,4.5,4.5c3,3,3.8,3,3.8,6.9c0,3.2-2.7,5-4.4,6.7c-1.5,1.5-4.1,4.4-5.6,5.5l-21.4-21.2
		c1-1.5,4-4.2,5.5-5.7C140.7,17.3,142.4,14.6,145.8,14.6z M51.1,149.8l-21.6-21.5l99.2-99l21.5,21.3L51.1,149.8z M18.8,160.4
		c0.2-2.6,6.7-24.4,6.8-26.8l20.1,19.9C41.9,154.1,22.2,160.2,18.8,160.4z"/>
	<path class="st1" d="M54.6,85.7l4.2-4c-2.2-3.4-2.8-2-4.6-5.3c1.1-1.6,9.7-9.9,12.2-12.4c1.2-1.1,3.5-2.8,3.5-4.7
		c0-1.8-1.6-3.2-3.2-3.2c-2.9,0-13.6,13.4-17.5,16.1L41,63.9c1.6-2.4,11.8-11,11.8-12.9c0-2.2-1.4-3.6-3.6-3.6
		c-2.2,0-10,9.8-12.5,11.4c-3.7-2.5-2.6-2.5-4.2-4c-0.8-0.7-1.3-0.9-2.1-1.8c-1.1-1.2-0.7-1.7-2.2-2.1c0.4-1.7,13-13.5,14.8-15.3
		c2.2-2.2,1.3-5.5-2.6-5.5C38.1,30.3,26.5,44,23.5,46c-1.3-0.9-0.7-1-1.9-2c-1-0.8-1.4-1-2.2-2c-1.1-1.3-0.6-0.9-1.9-2
		c-0.8-0.7-1.5-1.3-2.1-2.2L45.2,7.7L89,51.3l4.6-4.5C91.8,45.5,56.2,9.6,52,5.4c-3.9-3.9-6-7.5-9.7-3.8L9.1,34.8
		c-4.1,4,0.7,5.9,3.8,9.3c1.8,2.1,2.3,2,4.1,4.2l22.9,22.8c0.9,0.7,1.3,1.3,2.1,2.2L54.6,85.7z"/>
	<path class="st1" d="M128,90.1l42.2,42.4l-29.9,30c-3.3-2.1-2.5-2.4-4.2-3.9c-0.8-0.7-1.3-0.9-2.1-1.8c-1.1-1.2-0.7-1.7-2.2-2.1
		c0.8-3.2,15.7-13.9,15.7-17.9c0-2.9-3.2-4-5.3-2.1c-2.7,2.6-13.3,13.8-15.1,14.9l-6.3-6.2c-0.9-0.7-1.6-1.2-1.9-2.4
		c1.2-1.8,7.2-6.3,7.2-8.2c0-1.8-1.5-3.6-3.2-3.6c-2.5,0-6.8,6.1-8.9,7.5l-8.2-8.2c2-3,16.1-15,16.1-17.2c0-2-1.2-3.6-3.2-3.6
		c-2,0-3.6,2.3-4.7,3.5c-2.6,2.6-10.8,11.2-12.4,12.2c-1.3-0.9-2.7-1.9-3.6-3.2l-4.4,4.2c1.3,1.9,5.7,6,7.7,7.9l9,9.2
		c0.6,0.6,0.9,0.7,1.5,1.3l6.4,6.5c0.7,0.6,0.9,0.8,1.5,1.4l15.8,16c5.3,5.4,5.1,4.3,11.5-2.1l26.3-26.3c7.2-7.2,6.9-5.1-6.1-18.1
		l-28.8-28.8c-1.3-1.3-4.7-5.2-6.2-5.6L128,90.1z"/>
</g>
</svg>
